<?xml version="1.0" encoding="UTF-8" standalone="no"?>
<!-- Created with Inkscape (http://www.inkscape.org/) -->

<svg
   xmlns:dc="http://purl.org/dc/elements/1.1/"
   xmlns:cc="http://creativecommons.org/ns#"
   xmlns:rdf="http://www.w3.org/1999/02/22-rdf-syntax-ns#"
   xmlns:svg="http://www.w3.org/2000/svg"
   xmlns="http://www.w3.org/2000/svg"
   xmlns:sodipodi="http://sodipodi.sourceforge.net/DTD/sodipodi-0.dtd"
   xmlns:inkscape="http://www.inkscape.org/namespaces/inkscape"
   width="1052.3622"
   height="744.09448"
   id="svg2"
   version="1.1"
   inkscape:version="0.48.1 r9760"
   sodipodi:docname="music-labs-2.svg"
   inkscape:export-filename="/home/cmaureir/music-labs-2.png"
   inkscape:export-xdpi="282.39001"
   inkscape:export-ydpi="282.39001">
  <defs
     id="defs4">
    <linearGradient
       id="linearGradient3224"
       spreadMethod="pad"
       gradientTransform="matrix(-3.1e-5,719,570.053,2.5e-5,622.314,0)"
       gradientUnits="userSpaceOnUse"
       y2="0"
       x2="1"
       y1="0"
       x1="0">
      <stop
         id="stop3226"
         offset="0"
         style="stop-opacity:1;stop-color:#ffffff" />
      <stop
         id="stop3228"
         offset="1"
         style="stop-opacity:1;stop-color:#bdbcbd" />
    </linearGradient>
    <linearGradient
       id="linearGradient3216"
       spreadMethod="pad"
       gradientTransform="matrix(-2.8e-5,648,570.053,2.5e-5,622.314,0)"
       gradientUnits="userSpaceOnUse"
       y2="0"
       x2="1"
       y1="0"
       x1="0">
      <stop
         id="stop3218"
         offset="0"
         style="stop-opacity:1;stop-color:#ffffff" />
      <stop
         id="stop3220"
         offset="1"
         style="stop-opacity:1;stop-color:#bdbcbd" />
    </linearGradient>
    <clipPath
       id="clipPath3212"
       clipPathUnits="userSpaceOnUse">
      <path
         id="path3214"
         d="m 6243.14,0 5660.56,2072.54 0,2658.12 L 6243.14,0"
         inkscape:connector-curvature="0" />
    </clipPath>
    <linearGradient
       id="linearGradient3200"
       spreadMethod="pad"
       gradientTransform="matrix(-4.3e-5,987,440.154,1.9e-5,622.314,0)"
       gradientUnits="userSpaceOnUse"
       y2="0"
       x2="1"
       y1="0"
       x1="0">
      <stop
         id="stop3202"
         offset="0"
         style="stop-opacity:1;stop-color:#ffffff" />
      <stop
         id="stop3204"
         offset="1"
         style="stop-opacity:1;stop-color:#bdbcbd" />
    </linearGradient>
    <linearGradient
       id="linearGradient3192"
       spreadMethod="pad"
       gradientTransform="matrix(-2.8e-5,648,440.154,1.9e-5,622.314,0)"
       gradientUnits="userSpaceOnUse"
       y2="0"
       x2="1"
       y1="0"
       x1="0">
      <stop
         id="stop3194"
         offset="0"
         style="stop-opacity:1;stop-color:#ffffff" />
      <stop
         id="stop3196"
         offset="1"
         style="stop-opacity:1;stop-color:#bdbcbd" />
    </linearGradient>
    <clipPath
       id="clipPath3188"
       clipPathUnits="userSpaceOnUse">
      <path
         id="path3190"
         d="M 8425,6480 6243.14,0 10604.7,6480 8425,6480"
         inkscape:connector-curvature="0" />
    </clipPath>
    <linearGradient
       id="linearGradient3176"
       spreadMethod="pad"
       gradientTransform="matrix(-4.3e-5,995,235.848,1e-5,403.706,0)"
       gradientUnits="userSpaceOnUse"
       y2="0"
       x2="1"
       y1="0"
       x1="0">
      <stop
         id="stop3178"
         offset="0"
         style="stop-opacity:1;stop-color:#ffffff" />
      <stop
         id="stop3180"
         offset="1"
         style="stop-opacity:1;stop-color:#bdbcbd" />
    </linearGradient>
    <linearGradient
       id="linearGradient3168"
       spreadMethod="pad"
       gradientTransform="matrix(-2.8e-5,648,235.848,1e-5,403.706,0)"
       gradientUnits="userSpaceOnUse"
       y2="0"
       x2="1"
       y1="0"
       x1="0">
      <stop
         id="stop3170"
         offset="0"
         style="stop-opacity:1;stop-color:#ffffff" />
      <stop
         id="stop3172"
         offset="1"
         style="stop-opacity:1;stop-color:#bdbcbd" />
    </linearGradient>
    <clipPath
       id="clipPath3164"
       clipPathUnits="userSpaceOnUse">
      <path
         id="path3166"
         d="M 4057.06,6480 6243.14,0 l 132.4,6480 -2318.48,0"
         inkscape:connector-curvature="0" />
    </clipPath>
    <linearGradient
       id="linearGradient3152"
       spreadMethod="pad"
       gradientTransform="matrix(-4.2e-5,951,628.315,2.7e-5,-2,0)"
       gradientUnits="userSpaceOnUse"
       y2="0"
       x2="1"
       y1="0"
       x1="0">
      <stop
         id="stop3154"
         offset="0"
         style="stop-opacity:1;stop-color:#ffffff" />
      <stop
         id="stop3156"
         offset="1"
         style="stop-opacity:1;stop-color:#bdbcbd" />
    </linearGradient>
    <linearGradient
       id="linearGradient3144"
       spreadMethod="pad"
       gradientTransform="matrix(-2.8e-5,648,628.315,2.7e-5,-2,0)"
       gradientUnits="userSpaceOnUse"
       y2="0"
       x2="1"
       y1="0"
       x1="0">
      <stop
         id="stop3146"
         offset="0"
         style="stop-opacity:1;stop-color:#ffffff" />
      <stop
         id="stop3148"
         offset="1"
         style="stop-opacity:1;stop-color:#bdbcbd" />
    </linearGradient>
    <clipPath
       id="clipPath3140"
       clipPathUnits="userSpaceOnUse">
      <path
         id="path3142"
         d="M 0,6480 0,5470.55 6243.14,0 1163.66,6480 0,6480"
         inkscape:connector-curvature="0" />
    </clipPath>
    <linearGradient
       id="linearGradient3128"
       spreadMethod="pad"
       gradientTransform="matrix(-1.7e-5,387,628.315,2.7e-5,-2,0)"
       gradientUnits="userSpaceOnUse"
       y2="0"
       x2="1"
       y1="0"
       x1="0">
      <stop
         id="stop3130"
         offset="0"
         style="stop-opacity:1;stop-color:#ffffff" />
      <stop
         id="stop3132"
         offset="1"
         style="stop-opacity:1;stop-color:#bdbcbd" />
    </linearGradient>
    <linearGradient
       id="linearGradient3120"
       spreadMethod="pad"
       gradientTransform="matrix(-2.8e-5,648,628.315,2.7e-5,-2,0)"
       gradientUnits="userSpaceOnUse"
       y2="0"
       x2="1"
       y1="0"
       x1="0">
      <stop
         id="stop3122"
         offset="0"
         style="stop-opacity:1;stop-color:#ffffff" />
      <stop
         id="stop3124"
         offset="1"
         style="stop-opacity:1;stop-color:#bdbcbd" />
    </linearGradient>
    <clipPath
       id="clipPath3116"
       clipPathUnits="userSpaceOnUse">
      <path
         id="path3118"
         d="M 0,806.023 6243.14,0 0,2877.43 0,806.023"
         inkscape:connector-curvature="0" />
    </clipPath>
    <linearGradient
       id="linearGradient3104"
       spreadMethod="pad"
       gradientTransform="matrix(-2.8e-5,648,570.053,2.5e-5,622.314,0)"
       gradientUnits="userSpaceOnUse"
       y2="0"
       x2="1"
       y1="0"
       x1="0">
      <stop
         id="stop3106"
         offset="0"
         style="stop-opacity:1;stop-color:#ffffff" />
      <stop
         id="stop3108"
         offset="1"
         style="stop-opacity:1;stop-color:#bdbcbd" />
    </linearGradient>
    <clipPath
       id="clipPath3100"
       clipPathUnits="userSpaceOnUse">
      <path
         id="path3102"
         d="m 11903.7,6480 -1299,0 L 6243.14,0 l 5660.56,4730.66 0,1749.34"
         inkscape:connector-curvature="0" />
    </clipPath>
    <linearGradient
       id="linearGradient3088"
       spreadMethod="pad"
       gradientTransform="matrix(-2.8e-5,648,570.053,2.5e-5,622.314,0)"
       gradientUnits="userSpaceOnUse"
       y2="0"
       x2="1"
       y1="0"
       x1="0">
      <stop
         id="stop3090"
         offset="0"
         style="stop-opacity:1;stop-color:#ffffff" />
      <stop
         id="stop3092"
         offset="1"
         style="stop-opacity:1;stop-color:#bdbcbd" />
    </linearGradient>
    <clipPath
       id="clipPath3084"
       clipPathUnits="userSpaceOnUse">
      <path
         id="path3086"
         d="m 11903.7,0 0,2072.54 L 6243.14,0 11903.7,0"
         inkscape:connector-curvature="0" />
    </clipPath>
    <linearGradient
       id="linearGradient3072"
       spreadMethod="pad"
       gradientTransform="matrix(-2.8e-5,648,628.315,2.7e-5,-2,0)"
       gradientUnits="userSpaceOnUse"
       y2="0"
       x2="1"
       y1="0"
       x1="0">
      <stop
         id="stop3074"
         offset="0"
         style="stop-opacity:1;stop-color:#ffffff" />
      <stop
         id="stop3076"
         offset="1"
         style="stop-opacity:1;stop-color:#bdbcbd" />
    </linearGradient>
    <clipPath
       id="clipPath3068"
       clipPathUnits="userSpaceOnUse">
      <path
         id="path3070"
         d="M 0,0 6243.14,0 0,806.023 0,0"
         inkscape:connector-curvature="0" />
    </clipPath>
    <linearGradient
       id="linearGradient3056"
       spreadMethod="pad"
       gradientTransform="matrix(-2.8e-5,648,222.186,1e-5,622.314,0)"
       gradientUnits="userSpaceOnUse"
       y2="0"
       x2="1"
       y1="0"
       x1="0">
      <stop
         id="stop3058"
         offset="0"
         style="stop-opacity:1;stop-color:#ffffff" />
      <stop
         id="stop3060"
         offset="1"
         style="stop-opacity:1;stop-color:#bdbcbd" />
    </linearGradient>
    <clipPath
       id="clipPath3052"
       clipPathUnits="userSpaceOnUse">
      <path
         id="path3054"
         d="M 6375.54,6480 6243.14,0 8425,6480 l -2049.46,0"
         inkscape:connector-curvature="0" />
    </clipPath>
    <linearGradient
       id="linearGradient3040"
       spreadMethod="pad"
       gradientTransform="matrix(-2.8e-5,648,511.949,2.2e-5,114.366,0)"
       gradientUnits="userSpaceOnUse"
       y2="0"
       x2="1"
       y1="0"
       x1="0">
      <stop
         id="stop3042"
         offset="0"
         style="stop-opacity:1;stop-color:#ffffff" />
      <stop
         id="stop3044"
         offset="1"
         style="stop-opacity:1;stop-color:#bdbcbd" />
    </linearGradient>
    <clipPath
       id="clipPath3036"
       clipPathUnits="userSpaceOnUse">
      <path
         id="path3038"
         d="M 1163.66,6480 6243.14,0 4057.06,6480 l -2893.4,0"
         inkscape:connector-curvature="0" />
    </clipPath>
    <linearGradient
       id="linearGradient3024"
       spreadMethod="pad"
       gradientTransform="matrix(-2.8e-5,648,628.315,2.7e-5,-2,0)"
       gradientUnits="userSpaceOnUse"
       y2="0"
       x2="1"
       y1="0"
       x1="0">
      <stop
         id="stop3026"
         offset="0"
         style="stop-opacity:1;stop-color:#ffffff" />
      <stop
         id="stop3028"
         offset="1"
         style="stop-opacity:1;stop-color:#bdbcbd" />
    </linearGradient>
    <clipPath
       id="clipPath3020"
       clipPathUnits="userSpaceOnUse">
      <path
         id="path3022"
         d="M 0,2877.43 6243.14,0 0,5470.55 0,2877.43"
         inkscape:connector-curvature="0" />
    </clipPath>
  </defs>
  <sodipodi:namedview
     id="base"
     pagecolor="#ffffff"
     bordercolor="#666666"
     borderopacity="1.0"
     inkscape:pageopacity="0.0"
     inkscape:pageshadow="2"
     inkscape:zoom="0.49497475"
     inkscape:cx="358.8808"
     inkscape:cy="278.45144"
     inkscape:document-units="px"
     inkscape:current-layer="g3400"
     showgrid="false"
     inkscape:window-width="1280"
     inkscape:window-height="757"
     inkscape:window-x="0"
     inkscape:window-y="0"
     inkscape:window-maximized="1" />
  <metadata
     id="metadata7">
    <rdf:RDF>
      <cc:Work
         rdf:about="">
        <dc:format>image/svg+xml</dc:format>
        <dc:type
           rdf:resource="http://purl.org/dc/dcmitype/StillImage" />
        <dc:title></dc:title>
      </cc:Work>
    </rdf:RDF>
  </metadata>
  <g
     inkscape:label="Layer 1"
     inkscape:groupmode="layer"
     id="layer1"
     transform="translate(0,-308.2677)">
    <g
       transform="matrix(1.25,0,0,-1.25,-169.69553,1094.505)"
       inkscape:label="ink_ext_XXXXXX"
       id="g3012">
      <g
         transform="scale(0.1,0.1)"
         id="g3014">
        <g
           id="g3016"
           transform="matrix(0.68388734,0,0,0.77866708,1438.4572,840.44695)"
           inkscape:export-filename="/home/cmaureir/1.png"
           inkscape:export-xdpi="282.39001"
           inkscape:export-ydpi="282.39001">
          <g
             clip-path="url(#clipPath3020)"
             id="g3018">
            <path
               id="path3030"
               style="fill:url(#linearGradient3024);fill-opacity:1;fill-rule:nonzero;stroke:none"
               d="M 0,2877.43 6243.14,0 0,5470.55 0,2877.43"
               inkscape:connector-curvature="0" />
          </g>
        </g>
        <g
           id="g3032"
           transform="matrix(0.68388734,0,0,0.77866708,1438.4572,840.44695)"
           inkscape:export-filename="/home/cmaureir/1.png"
           inkscape:export-xdpi="282.39001"
           inkscape:export-ydpi="282.39001">
          <g
             clip-path="url(#clipPath3036)"
             id="g3034">
            <path
               id="path3046"
               style="fill:url(#linearGradient3040);fill-opacity:1;fill-rule:nonzero;stroke:none"
               d="M 1163.66,6480 6243.14,0 4057.06,6480 l -2893.4,0"
               inkscape:connector-curvature="0" />
          </g>
        </g>
        <g
           id="g3048"
           transform="matrix(0.68388734,0,0,0.77866708,1438.4572,840.44695)"
           inkscape:export-filename="/home/cmaureir/1.png"
           inkscape:export-xdpi="282.39001"
           inkscape:export-ydpi="282.39001">
          <g
             clip-path="url(#clipPath3052)"
             id="g3050">
            <path
               id="path3062"
               style="fill:url(#linearGradient3056);fill-opacity:1;fill-rule:nonzero;stroke:none"
               d="M 6375.54,6480 6243.14,0 8425,6480 l -2049.46,0"
               inkscape:connector-curvature="0" />
          </g>
        </g>
        <g
           id="g3064"
           transform="matrix(0.68388734,0,0,0.77866708,1438.4572,840.44695)"
           inkscape:export-filename="/home/cmaureir/1.png"
           inkscape:export-xdpi="282.39001"
           inkscape:export-ydpi="282.39001">
          <g
             clip-path="url(#clipPath3068)"
             id="g3066">
            <path
               id="path3078"
               style="fill:url(#linearGradient3072);fill-opacity:1;fill-rule:nonzero;stroke:none"
               d="M 0,0 6243.14,0 0,806.023 0,0"
               inkscape:connector-curvature="0" />
          </g>
        </g>
        <g
           id="g3080"
           transform="matrix(0.68388734,0,0,0.77866708,1438.4572,840.44695)"
           inkscape:export-filename="/home/cmaureir/1.png"
           inkscape:export-xdpi="282.39001"
           inkscape:export-ydpi="282.39001">
          <g
             clip-path="url(#clipPath3084)"
             id="g3082">
            <path
               id="path3094"
               style="fill:url(#linearGradient3088);fill-opacity:1;fill-rule:nonzero;stroke:none"
               d="m 11903.7,0 0,2072.54 L 6243.14,0 11903.7,0"
               inkscape:connector-curvature="0" />
          </g>
        </g>
        <g
           id="g3096"
           transform="matrix(0.68388734,0,0,0.77866708,1438.4572,840.44695)"
           inkscape:export-filename="/home/cmaureir/1.png"
           inkscape:export-xdpi="282.39001"
           inkscape:export-ydpi="282.39001">
          <g
             clip-path="url(#clipPath3100)"
             id="g3098">
            <path
               id="path3110"
               style="fill:url(#linearGradient3104);fill-opacity:1;fill-rule:nonzero;stroke:none"
               d="m 11903.7,6480 -1299,0 L 6243.14,0 l 5660.56,4730.66 0,1749.34"
               inkscape:connector-curvature="0" />
          </g>
        </g>
        <g
           id="g3112"
           transform="matrix(0.68388734,0,0,0.77866708,1438.4572,840.44695)"
           inkscape:export-filename="/home/cmaureir/1.png"
           inkscape:export-xdpi="282.39001"
           inkscape:export-ydpi="282.39001">
          <g
             clip-path="url(#clipPath3116)"
             id="g3114">
            <path
               id="path3126"
               style="fill:url(#linearGradient3120);fill-opacity:1;fill-rule:nonzero;stroke:none"
               d="M 0,806.023 6243.14,0 0,2877.43 0,806.023"
               inkscape:connector-curvature="0" />
            <path
               id="path3134"
               style="fill:url(#linearGradient3128);fill-opacity:1;fill-rule:nonzero;stroke:none"
               d="M 0,806.023 6243.14,0 0,2877.43 0,806.023"
               inkscape:connector-curvature="0" />
          </g>
        </g>
        <g
           id="g3136"
           transform="matrix(0.68388734,0,0,0.77866708,1438.4572,840.44695)"
           inkscape:export-filename="/home/cmaureir/1.png"
           inkscape:export-xdpi="282.39001"
           inkscape:export-ydpi="282.39001">
          <g
             clip-path="url(#clipPath3140)"
             id="g3138">
            <path
               id="path3150"
               style="fill:url(#linearGradient3144);fill-opacity:1;fill-rule:nonzero;stroke:none"
               d="M 0,6480 0,5470.55 6243.14,0 1163.66,6480 0,6480"
               inkscape:connector-curvature="0" />
            <path
               id="path3158"
               style="fill:url(#linearGradient3152);fill-opacity:1;fill-rule:nonzero;stroke:none"
               d="M 0,6480 0,5470.55 6243.14,0 1163.66,6480 0,6480"
               inkscape:connector-curvature="0" />
          </g>
        </g>
        <g
           id="g3160"
           transform="matrix(0.68388734,0,0,0.77866708,1438.4572,840.44695)"
           inkscape:export-filename="/home/cmaureir/1.png"
           inkscape:export-xdpi="282.39001"
           inkscape:export-ydpi="282.39001">
          <g
             clip-path="url(#clipPath3164)"
             id="g3162">
            <path
               id="path3174"
               style="fill:url(#linearGradient3168);fill-opacity:1;fill-rule:nonzero;stroke:none"
               d="M 4057.06,6480 6243.14,0 l 132.4,6480 -2318.48,0"
               inkscape:connector-curvature="0" />
            <path
               id="path3182"
               style="fill:url(#linearGradient3176);fill-opacity:1;fill-rule:nonzero;stroke:none"
               d="M 4057.06,6480 6243.14,0 l 132.4,6480 -2318.48,0"
               inkscape:connector-curvature="0" />
          </g>
        </g>
        <g
           id="g3184"
           transform="matrix(0.68388734,0,0,0.77866708,1438.4572,840.44695)"
           inkscape:export-filename="/home/cmaureir/1.png"
           inkscape:export-xdpi="282.39001"
           inkscape:export-ydpi="282.39001">
          <g
             clip-path="url(#clipPath3188)"
             id="g3186">
            <path
               id="path3198"
               style="fill:url(#linearGradient3192);fill-opacity:1;fill-rule:nonzero;stroke:none"
               d="M 8425,6480 6243.14,0 10604.7,6480 8425,6480"
               inkscape:connector-curvature="0" />
            <path
               id="path3206"
               style="fill:url(#linearGradient3200);fill-opacity:1;fill-rule:nonzero;stroke:none"
               d="M 8425,6480 6243.14,0 10604.7,6480 8425,6480"
               inkscape:connector-curvature="0" />
          </g>
        </g>
        <g
           id="g3208"
           transform="matrix(0.68388734,0,0,0.77866708,1438.4572,840.44695)"
           inkscape:export-filename="/home/cmaureir/1.png"
           inkscape:export-xdpi="282.39001"
           inkscape:export-ydpi="282.39001">
          <g
             clip-path="url(#clipPath3212)"
             id="g3210">
            <path
               id="path3222"
               style="fill:url(#linearGradient3216);fill-opacity:1;fill-rule:nonzero;stroke:none"
               d="m 6243.14,0 5660.56,2072.54 0,2658.12 L 6243.14,0"
               inkscape:connector-curvature="0" />
            <path
               id="path3230"
               style="fill:url(#linearGradient3224);fill-opacity:1;fill-rule:nonzero;stroke:none"
               d="m 6243.14,0 5660.56,2072.54 0,2658.12 L 6243.14,0"
               inkscape:connector-curvature="0" />
          </g>
        </g>
        <path
           id="path3240"
           style="fill:#404040;fill-opacity:1;fill-rule:nonzero;stroke:none"
           d="m 2921.2754,1882.5448 c -2.9612,-1.3938 -5.9908,-2.8031 -9.0615,-4.2515 6.2576,-17.5822 10.8806,-30.2667 10.8806,-30.2667 0,0 7.8852,-4.82 -1.8191,34.5182"
           inkscape:connector-curvature="0"
           inkscape:export-filename="/home/cmaureir/1.png"
           inkscape:export-xdpi="282.39001"
           inkscape:export-ydpi="282.39001" />
        <path
           id="path3242"
           style="fill:#404040;fill-opacity:1;fill-rule:nonzero;stroke:none"
           d="m 2690.3335,1757.5689 c 0,0 39.0295,48.4096 43.9056,42.8577 4.8761,-5.5674 -4.8761,-30.1577 -23.6967,-51.571 -18.8206,-21.4446 -24.3875,-50.0061 -24.3875,-50.0061 0,0 17.4118,27.7751 20.9065,23.8039 3.481,-3.9634 22.2947,-8.7211 0,-34.1135 -22.3016,-25.4001 -34.5022,-39.2681 -34.5022,-39.2681 0,0 104.1903,-70.2467 156.4598,-116.2674 52.2627,-46.0147 170.0486,-158.6838 170.0486,-158.6838 0,0 19.5044,61.8829 26.4732,81.7296 6.9757,19.8256 13.9445,27.7704 13.9445,27.7704 0,0 -8.3639,55.5407 -13.2401,61.0919 -4.8829,5.5659 -73.1827,84.9004 -90.6082,111.889 -17.4186,26.9808 -62.0148,75.3827 -78.0451,83.3096 -16.0304,7.9502 -34.1534,15.0905 -50.1837,15.0905 -16.0303,0 -38.3319,19.8249 -19.5113,32.525 18.8206,12.7 44.6031,14.273 60.6335,6.3461 16.0234,-7.9346 39.727,-22.2231 39.727,-16.6556 0,4.1347 -10.7918,44.2516 -20.633,79.5563 -20.1473,-9.8267 -38.1198,-18.9371 -48.1387,-24.8238 -29.7492,-17.489 -68.1494,-18.5791 -83.5028,-19.6692 -2.0447,-0.1479 -4.1306,0.4205 -6.2233,1.4794 -1.0121,-1.9076 -2.2842,-4.01 -3.8776,-6.4006 -18.1299,-26.9808 -35.5485,-49.9903 -35.5485,-49.9903"
           inkscape:connector-curvature="0"
           inkscape:export-filename="/home/cmaureir/1.png"
           inkscape:export-xdpi="282.39001"
           inkscape:export-ydpi="282.39001" />
        <path
           id="path3244"
           style="fill:#404040;fill-opacity:1;fill-rule:nonzero;stroke:none"
           d="m 2423.4122,2176.5306 c 9.7591,-3.1692 9.7591,-23.0097 9.7591,-23.0097 0,0 12.5493,25.3924 12.5493,31.7386 0,5.5674 -5.3616,23.9674 -6.6747,34.2925 -0.212,-0.1635 -0.4308,-0.3349 -0.636,-0.4983 -17.8973,-14.0706 -28.7233,-34.4328 -35.227,-55.1841 0.01,-0.011 0.021,-0.024 0.021,-0.024 0,0 10.4498,15.8614 20.2088,12.6844"
           inkscape:connector-curvature="0"
           inkscape:export-filename="/home/cmaureir/1.png"
           inkscape:export-xdpi="282.39001"
           inkscape:export-ydpi="282.39001" />
        <path
           id="path3246"
           style="fill:#404040;fill-opacity:1;fill-rule:nonzero;stroke:none"
           d="m 2472.2008,2180.5018 c -3.481,-17.4577 -4.8693,-46.8135 -4.8693,-57.9251 0,-11.1115 10.4429,-56.3443 5.5668,-71.4114 -4.8761,-15.0672 -25.085,-53.1674 -25.085,-64.2713 0,-11.1115 13.2401,-50.7923 22.9992,-78.5518 9.759,-27.7751 83.6257,-208.6984 83.6257,-208.6984 0,0 17.4255,-0.7943 22.3016,-0.7943 4.8761,0 20.2089,-7.1403 20.2089,-7.1403 0,0 13.24,33.3424 16.721,46.8368 3.4947,13.471 23.7036,57.123 23.7036,57.123 0,0 9.7522,15.8615 13.9307,15.8615 4.1786,0 5.5806,-6.3462 2.7903,-18.2521 -2.7903,-11.898 -11.8449,-33.3191 -11.8449,-33.3191 0,0 33.4489,52.3576 36.9367,56.3288 3.481,3.9712 18.807,6.3461 12.8844,-6.7354 -5.9156,-13.105 -14.9771,-34.5262 -14.9771,-34.5262 0,0 12.5425,14.2808 17.7742,20.2298 4.8147,5.4818 18.4514,23.6948 23.0471,29.3557 -8.7606,10.839 -15.5311,25.0264 -15.5311,25.0264 0,0 0,13.1205 2.8792,26.2411 2.8791,13.1049 -2.8792,57.9172 -2.8792,57.9172 0,0 16.3175,6.5642 24.9551,22.9551 8.6442,16.391 19.1967,59.0074 23.9976,78.6922 4.8009,19.669 -13.4385,15.3008 -13.4385,15.3008 0,0 -2.8791,74.3238 -10.5591,111.4739 -7.6801,37.1579 -62.3911,109.2937 -117.1089,121.3164 -45.7452,10.0525 -98.2063,-12.7624 -145.032,-44.7734 0.4582,-1.3315 0.9301,-2.7331 1.4293,-4.306 5.5737,-17.45 9.0547,-36.5118 5.5737,-53.9539"
           inkscape:connector-curvature="0"
           inkscape:export-filename="/home/cmaureir/1.png"
           inkscape:export-xdpi="282.39001"
           inkscape:export-ydpi="282.39001" />
        <path
           id="path3248"
           style="fill:#404040;fill-opacity:1;fill-rule:nonzero;stroke:none"
           d="m 2974.6733,1863.1094 c 2.975,0 1.5593,20.3466 -1.1215,43.6053 -1.7029,-0.7865 -3.4469,-1.5963 -5.2728,-2.4295 -1.9627,-0.8953 -4.8077,-2.188 -8.2955,-3.792 0.9164,-3.068 1.4429,-4.8511 1.4429,-4.8511 0,0 6.9688,-32.5327 13.2469,-32.5327"
           inkscape:connector-curvature="0"
           inkscape:export-filename="/home/cmaureir/1.png"
           inkscape:export-xdpi="282.39001"
           inkscape:export-ydpi="282.39001" />
        <path
           id="path3250"
           style="fill:#404040;fill-opacity:1;fill-rule:nonzero;stroke:none"
           d="m 3848.5993,2050.371 c -4.3359,7.5374 -11.544,18.4545 -18.9574,29.784 -20.4687,-48.1684 6.3876,-105.9221 6.3876,-105.9221 0,0 -19.1968,2.188 -23.0403,-15.3007 -3.8365,-17.4812 19.2036,-53.549 28.7986,-60.1053 9.6017,-6.5642 21.1184,-9.8425 21.1184,-9.8425 0,0 5.7652,-30.5939 6.7227,-38.248 0.465,-3.761 1.1694,-18.3533 1.7643,-32.2136 1.0122,10.7223 1.5935,19.2565 1.5935,24.7461 0,46.0193 -12.5493,186.483 -24.3874,207.1021"
           inkscape:connector-curvature="0"
           inkscape:export-filename="/home/cmaureir/1.png"
           inkscape:export-xdpi="282.39001"
           inkscape:export-ydpi="282.39001" />
        <path
           id="path3252"
           style="fill:#404040;fill-opacity:1;fill-rule:nonzero;stroke:none"
           d="m 3955.9149,2051.1653 c 4.1786,-24.606 23.6899,-181.6943 31.3563,-238.8484 7.6663,-57.1153 24.3942,-284.8544 24.3942,-284.8544 0,0 20.2157,-7.1419 25.7826,-0.7942 5.5805,6.3361 2.7902,17.8643 15.6815,17.8643 12.8981,0 21.433,-6.9504 27.5402,0 6.0933,6.9441 3.1253,19.634 17.2407,19.634 14.1086,0 31.5341,-8.9274 31.5341,-8.9274 0,0 33.4489,7.1326 50.8812,-30.1586 17.4117,-37.2966 31.3562,-123.0045 31.3562,-123.0045 l 6.9688,9.5356 c 0,0 -21.6108,60.3101 23.6967,164.2403 3.0912,7.1023 6.2028,13.9491 9.3283,20.6013 -18.6565,22.3415 -66.3303,80.6636 -85.4381,115.4778 -23.9976,43.7145 -157.424,74.3237 -157.424,74.3237 l -7.68,49.173 c 0,0 9.5949,20.7669 14.4026,29.5114 4.7941,8.7445 2.8723,46.9926 2.8723,46.9926 0,0 3.8434,4.3838 8.6443,13.1204 4.8009,8.7445 10.5593,33.88 15.3534,53.5569 4.8009,19.6691 -10.5525,21.8571 -10.5525,21.8571 0,0 -6.7225,88.5268 -38.4002,116.9403 -3.0091,2.7018 -6.5107,5.1468 -10.4156,7.3427 -1.1831,-3.761 -2.5441,-7.4284 -4.1307,-10.8934 -9.0547,-19.8484 -27.1777,-38.0846 -22.9923,-62.6905"
           inkscape:connector-curvature="0"
           inkscape:export-filename="/home/cmaureir/1.png"
           inkscape:export-xdpi="282.39001"
           inkscape:export-ydpi="282.39001" />
        <path
           id="path3254"
           style="fill:#404040;fill-opacity:1;fill-rule:nonzero;stroke:none"
           d="m 3026.2452,1878.1766 c 0,8.7444 5.5737,111.1002 18.8206,111.1002 13.2332,0 8.3571,-20.6347 8.3571,-36.4962 0,-15.8769 -12.5425,-138.8674 -12.5425,-161.0906 0,-22.2154 20.9065,-87.2653 27.8753,-95.2076 6.962,-7.9425 29.9679,-45.2328 29.9679,-45.2328 0,0 29.9748,57.9172 29.9748,89.6635 0,31.7463 2.0859,132.5136 2.0859,147.5886 0,15.0827 4.8693,36.4961 11.8381,36.4961 6.9824,0 11.8517,-22.2075 11.8517,-48.4097 0,-26.171 6.2713,-26.171 11.1474,-26.171 4.8898,0 28.5728,0.7943 33.4489,6.3461 4.883,5.5597 17.4255,25.3768 21.6109,44.4308 4.1785,19.0462 8.7058,55.9472 19.5113,52.3809 10.8054,-3.5897 16.0303,-15.0828 10.8054,-38.8866 -5.2249,-23.8039 -12.8913,-68.2424 -12.8913,-80.9424 0,-12.6924 7.6664,-30.9365 7.6664,-42.0559 0,-11.1116 4.8761,-16.6635 4.8761,-26.973 0,-10.3096 -19.8669,-42.4608 -33.4557,-57.925 -13.582,-15.4721 -62.7194,-76.1849 -65.5028,-90.461 -2.7971,-14.2962 -8.3639,-46.811 -8.3639,-46.811 0,0 27.1708,-45.2453 39.0226,-72.2097 11.8449,-26.9855 24.3943,-57.1379 24.3943,-57.1379 0,0 32.7513,21.4289 68.293,21.4289 35.5416,0 81.533,-3.9539 81.533,-3.9539 0,0 13.2469,245.1811 17.4323,310.2309 4.1786,65.0655 32.0606,295.9714 24.3943,304.7159 -0.2462,0.2725 -0.5403,0.654 -0.8549,1.1212 -22.7256,-0.4204 -46.8599,-4.2047 -64.5042,-13.1362 -34.55,-17.4887 -45.1161,-41.534 -50.8744,-57.9249 -5.7583,-16.3988 -29.7559,-45.9025 -29.7559,-45.9025 l -36.4786,9.8346 -9.5949,17.4889 c 0,0 12.4809,21.8572 18.2392,30.6016 5.7515,8.7445 8.6375,60.1131 8.6375,60.1131 0,0 5.7583,8.7445 9.6018,18.5789 3.8366,9.8347 1.9149,43.7144 1.9149,43.7144 0,0 8.6375,-5.4662 14.4026,-5.4662 5.7584,0 16.3176,6.5563 17.2751,42.6242 0.9574,36.0678 -32.6352,72.1436 -32.6352,72.1436 0,0 -3.8434,25.1275 -5.7583,37.1502 -1.9217,12.0225 -36.4785,62.301 -78.7155,63.3912 -42.2368,1.0901 -103.6704,-8.7443 -136.3056,-44.8044 -32.635,-36.0679 -30.7201,-120.2263 -30.7201,-120.2263 0,0 -10.5525,-3.2781 -16.3176,-18.579 -5.7583,-15.3007 0.9574,-72.1357 3.8435,-86.3386 2.8791,-14.2106 22.0759,-25.1431 22.0759,-25.1431 l 2.8791,-33.8798 -2.9544,-60.518 c 3.3511,-39.9846 7.0919,-87.273 9.1094,-89.5701 3.139,-3.5663 15.3395,1.604 15.3395,10.3096"
           inkscape:connector-curvature="0"
           inkscape:export-filename="/home/cmaureir/1.png"
           inkscape:export-xdpi="282.39001"
           inkscape:export-ydpi="282.39001" />
        <path
           id="path3256"
           style="fill:#404040;fill-opacity:1;fill-rule:nonzero;stroke:none"
           d="m 3520.0119,1886.7808 c 4.7804,19.054 13.1853,53.8838 18.4444,83.0838 2.7151,15.0672 -4.1785,30.5394 -14.2111,44.2438 -2.3868,-33.3425 -5.2864,-77.8667 -5.2864,-97.0452 0,-6.9068 0.4103,-17.6602 1.0531,-30.2824"
           inkscape:connector-curvature="0"
           inkscape:export-filename="/home/cmaureir/1.png"
           inkscape:export-xdpi="282.39001"
           inkscape:export-ydpi="282.39001" />
        <path
           id="path3258"
           style="fill:#404040;fill-opacity:1;fill-rule:nonzero;stroke:none"
           d="m 4558.0435,2204.2978 c -12.5493,-14.2807 -20.9064,-41.2537 -20.9064,-61.8806 0,-20.6347 -16.0235,-89.6635 -24.3943,-109.5039 -8.3571,-19.8405 -11.8449,-26.1944 -11.8449,-49.9826 0,-23.8194 -2.0859,-145.2137 -2.0859,-173.7908 0,-28.5615 0,-63.4769 0,-63.4769 0,0 6.962,11.1038 16.7142,11.1038 9.7523,0 9.7523,-7.1325 9.7523,-7.1325 0,0 6.9756,15.0827 19.5181,19.0461 12.5494,3.979 20.2089,-4.7576 20.2089,-4.7576 0,0 6.9756,6.3461 6.9756,15.8614 0,9.5231 -2.0858,20.6424 -12.5493,42.85 -10.443,22.2154 -21.2553,45.6298 -14.6352,53.1674 6.62,7.5452 40.4246,-43.6364 53.6578,-68.2424 13.2538,-24.5902 30.6656,-45.2249 30.6656,-66.6461 0,-21.4133 3.4878,-41.2693 3.4878,-41.2693 0,0 44.6031,64.279 135.2044,52.3732 90.6014,-11.9059 149.8329,-79.354 149.8329,-79.354 0,0 4.1786,40.475 80.8424,76.9713 76.6637,36.5038 156.0973,39.673 179.8076,-12.6924 23.6899,-52.3732 29.9612,-82.5309 36.93,-90.45 6.962,-7.9423 9.7453,-50.0075 9.7453,-62.6765 0,-12.7141 28.5797,-65.8822 20.9134,-84.1326 -7.6528,-18.2441 -34.4954,-38.8727 -34.4954,-48.8037 0,-9.9007 3.8367,-38.4614 3.8367,-38.4614 0,0 16.0303,2.3663 29.2635,-3.1848 13.2469,-5.5542 52.9739,-13.4834 52.9739,-13.4834 0,0 -58.5476,193.6078 4.8761,311.0425 35.0697,64.9564 75.2618,105.3458 114.3255,127.9738 -5.3139,14.966 -12.3168,25.5559 -18.8685,50.9483 -9.595,37.1579 -87.3529,71.0377 -87.3529,71.0377 l 0,16.391 -27.8342,-16.391 7.6732,13.1128 -17.275,-9.8423 -0.9575,13.1205 -30.7202,-13.1205 c 0,0 -5.7584,-1.0901 -4.794,19.6846 0.9574,20.7593 22.069,14.2029 22.069,14.2029 0,0 -15.3532,19.6691 -25.9125,4.3684 -10.5592,-15.2931 -9.6018,-38.2559 -9.6018,-38.2559 0,0 -13.4383,39.3537 -34.5568,48.0904 -21.1116,8.7445 -57.5902,-20.7592 -57.5902,-20.7592 0,0 32.6352,14.2028 50.8744,6.5563 18.2393,-7.6543 16.3176,-38.2481 16.3176,-38.2481 0,0 -107.5071,6.5486 -178.5424,-40.4439 -71.0355,-47.0003 -54.7111,-156.2941 -54.7111,-156.2941 0,0 -45.116,19.6768 -64.3195,25.1431 -19.1968,5.4663 -72.9503,16.3909 -72.9503,16.3909 l 0.9574,22.9475 c 0,0 4.8009,9.8423 11.5167,20.7747 6.7226,10.9248 24.9619,71.0379 29.7628,99.4514 4.794,28.4213 12.4809,32.7896 20.1541,68.8653 7.68,36.0523 -14.3958,21.8494 -13.4383,30.5939 0.9642,8.7444 4.8008,43.7222 4.8008,43.7222 0,0 44.1586,18.5711 41.2795,54.6468 -2.8792,36.0601 -45.1161,45.9024 -45.1161,45.9024 0,0 -7.68,31.6918 -16.3176,55.7369 -8.6443,24.0453 -71.0353,40.4363 -103.6704,33.8799 -32.642,-6.5486 -90.2321,-41.5342 -90.2321,-41.5342 l -7.6801,4.3762 -23.0401,0 -3.8367,1.0979 -19.2035,12.0149 -9.5949,0 -18.2393,3.2781 -21.4331,-9.7644 c 0.01,-0.031 0.02,-0.047 0.027,-0.077 4.1786,-15.877 6.2713,-27.7907 -6.2644,-42.0714"
           inkscape:connector-curvature="0"
           inkscape:export-filename="/home/cmaureir/1.png"
           inkscape:export-xdpi="282.39001"
           inkscape:export-ydpi="282.39001" />
        <path
           id="path3260"
           style="fill:#404040;fill-opacity:1;fill-rule:nonzero;stroke:none"
           d="m 3832.5621,1538.5702 c 0,0 24.7225,158.216 35.5006,249.1875 -9.3282,-6.0424 -31.5819,-20.5879 -49.3082,-33.1945 -23.0334,-16.3988 -84.4738,-49.1884 -118.0732,-87.4444 -5.136,-5.8478 -9.8001,-13.9225 -14.0197,-23.4066 16.3176,-1.1837 33.1617,-4.3529 49.0347,-10.7146 63.4101,-25.3961 96.8658,-94.4274 96.8658,-94.4274"
           inkscape:connector-curvature="0"
           inkscape:export-filename="/home/cmaureir/1.png"
           inkscape:export-xdpi="282.39001"
           inkscape:export-ydpi="282.39001" />
        <path
           id="path3262"
           style="fill:#404040;fill-opacity:1;fill-rule:nonzero;stroke:none"
           d="m 1561.3484,1889.2882 c 11.1453,0 25.7846,0 25.7846,0 0,0 12.3934,7.8801 20.0523,8.9858 -1.8486,11.9292 -3.7485,20.806 -4.6191,26.3578 -15.9913,-8.4096 -29.3831,-15.5266 -31.456,-17.8859 -5.2284,-5.9491 -20.9071,-17.4577 -9.7618,-17.4577"
           inkscape:connector-curvature="0"
           inkscape:export-filename="/home/cmaureir/1.png"
           inkscape:export-xdpi="282.39001"
           inkscape:export-ydpi="282.39001" />
        <path
           id="path3264"
           style="fill:#404040;fill-opacity:1;fill-rule:nonzero;stroke:none"
           d="m 1628.9438,1615.5399 -23.6878,13.4865 c 0,0 -4.8802,-21.4249 -0.7023,-38.8843 4.1833,-17.4593 10.4586,-35.7035 10.4586,-35.7035 l -25.0897,14.2747 0,-39.663 c 0,0 49.1379,-9.9312 60.6307,-23.0105 11.4975,58.7194 55.0502,119.0154 70.3815,136.4732 15.3341,17.4654 21.6095,25.3923 21.6095,25.3923 0,0 -2.0948,176.1579 -2.0948,199.1674 0,23.0175 0.7024,41.2695 -10.4559,53.9539 -8.1854,9.3362 -34.7716,40.0314 -48.3263,57.8861 -9.0402,-15.8848 -13.889,-30.7106 -15.9803,-40.7398 -4.8009,-22.9551 -12.4837,-59.023 -8.6395,-84.1662 -9.5956,-15.3008 -10.5627,-30.6015 6.7184,-73.218 17.2764,-42.6243 43.1944,-28.4214 43.1944,-28.4214 0,0 0.9622,-10.9246 1.9238,-18.579 0.956,-7.6465 2.8771,-18.5711 2.8771,-18.5711 0,0 -0.9615,-8.7446 -8.6396,-44.8202 -7.6753,-36.0601 -27.839,-43.7143 -27.839,-43.7143 l -36.4758,4.3682 c 0,0 -7.7259,20.2065 -14.8609,30.6796 0.2585,-1.1913 0.5287,-2.3126 0.8146,-3.3405 4.1833,-15.0828 4.1833,-42.8501 4.1833,-42.8501"
           inkscape:connector-curvature="0"
           inkscape:export-filename="/home/cmaureir/1.png"
           inkscape:export-xdpi="282.39001"
           inkscape:export-ydpi="282.39001" />
        <path
           id="path3266"
           style="fill:#404040;fill-opacity:1;fill-rule:nonzero;stroke:none"
           d="m 1546.7091,1848.0266 c 0,0 51.5719,-13.4866 59.2445,-38.8867 1.0661,-3.5351 2.0673,-7.2493 3.0398,-11.0259 0.3584,3.3171 0.7003,6.6499 1.0183,9.9903 2.369,25.2055 1.7925,47.1795 0.184,65.3925 -0.021,-0.024 -0.043,-0.055 -0.065,-0.077 -9.7556,-11.0959 -63.4223,-25.3922 -63.4223,-25.3922"
           inkscape:connector-curvature="0"
           inkscape:export-filename="/home/cmaureir/1.png"
           inkscape:export-xdpi="282.39001"
           inkscape:export-ydpi="282.39001" />
        <path
           id="path3268"
           style="fill:#404040;fill-opacity:1;fill-rule:nonzero;stroke:none"
           d="m 1549.4952,2007.5132 c 5.5785,0 34.8516,-10.3017 39.0275,-21.4133 4.1833,-11.1116 7.6773,-24.606 7.6773,-24.606 0,0 0.545,0.4126 1.499,1.1134 -3.2457,25.9297 -6.8874,55.3478 -6.8874,55.3478 l 26.8774,-8.7445 -18.2378,27.3236 15.358,-5.4663 c 0,0 -15.358,15.3007 -20.1555,28.4212 -4.8009,13.1051 -8.6423,45.8947 -25.9214,75.4062 -17.2764,29.5115 -116.1459,92.9028 -116.1459,92.9028 l 0,-277.4235 c 16.4561,11.8901 43.0956,30.7495 56.4931,38.108 20.2117,11.096 34.8434,19.0306 40.4157,19.0306"
           inkscape:connector-curvature="0"
           inkscape:export-filename="/home/cmaureir/1.png"
           inkscape:export-xdpi="282.39001"
           inkscape:export-ydpi="282.39001" />
        <path
           id="path3270"
           style="fill:#404040;fill-opacity:1;fill-rule:nonzero;stroke:none"
           d="m 2078.4424,1639.7954 -7.678,-41.5318 c 0,0 -24.9564,-2.1809 -41.276,6.5549 -1.4991,0.8059 -3.2752,1.6577 -5.1722,2.5244 5.6899,-6.473 10.9025,-12.4104 12.3181,-14.0129 3.4838,-3.9727 25.7901,-29.3612 25.7901,-29.3612 l 45.2939,153.1326 c 0,0 -9.0588,12.7001 -17.4173,12.7001 -7.9214,0 -35.1935,13.5021 -54.6337,20.9929 0.6306,-17.7926 4.2312,-40.6853 11.0995,-70.555 10.5633,-45.9025 31.6756,-40.444 31.6756,-40.444"
           inkscape:connector-curvature="0"
           inkscape:export-filename="/home/cmaureir/1.png"
           inkscape:export-xdpi="282.39001"
           inkscape:export-ydpi="282.39001" />
        <path
           id="path3272"
           style="fill:#404040;fill-opacity:1;fill-rule:nonzero;stroke:none"
           d="m 1805.9639,1990.0633 c 0,-25.3846 1.3917,-70.6174 6.2699,-96.8039 4.8727,-26.1867 33.4489,-183.2905 33.4489,-183.2905 0,0 22.2982,4.7654 29.9679,4.7654 7.6671,0 23.6961,0 23.6961,0 0,0 6.9695,37.2827 19.5147,33.327 12.5425,-3.979 7.6643,-34.1134 7.6643,-40.4752 0,-6.3461 -14.6365,-72.2213 -14.6365,-72.2213 l 22.9636,52.3108 c 5.0914,13.7435 14.2495,38.8866 21.6813,51.5789 9.6011,16.3911 7.6827,39.346 4.8029,51.361 -0.8603,3.613 -1.3835,10.8701 -1.6831,19.6068 -17.727,25.1587 -40.1811,58.9139 -46.3758,73.5139 -9.7508,23.0097 -22.2906,50.7848 -9.7508,57.9329 12.5507,7.1326 25.0877,-6.3617 33.4571,-26.9808 4.3728,-10.8002 14.6557,-25.2678 23.471,-36.6286 0.9753,6.5331 2.5058,15.0594 3.9967,24.2945 -2.8635,13.2372 -5.1743,26.7939 -5.1743,36.1379 0,11.3296 -0.8843,25.8517 -0.1341,38.2325 -8.0705,12.5444 -17.9705,20.4712 -17.9705,20.4712 0,0 -19.1919,52.451 -66.2304,61.1955 -35.0013,6.5096 -64.1622,7.5452 -97.7527,-4.0413 0.8014,-4.7577 1.7815,-8.1605 2.9864,-9.5309 7.6616,-8.721 25.7874,-29.3635 25.7874,-54.7558"
           inkscape:connector-curvature="0"
           inkscape:export-filename="/home/cmaureir/1.png"
           inkscape:export-xdpi="282.39001"
           inkscape:export-ydpi="282.39001" />
        <path
           id="path3274"
           style="fill:#404040;fill-opacity:1;fill-rule:nonzero;stroke:none"
           d="m 2170.4492,1984.5036 c 2.6398,14.3041 4.6573,88.5344 4.8556,104.2635 -5.3343,-2.1491 -10.4361,-4.4697 -15.3191,-6.9224 0,-15.8771 0,-35.3826 0,-42.5852 0,-11.1116 7.6733,-69.8231 10.4635,-54.7559"
           inkscape:connector-curvature="0"
           inkscape:export-filename="/home/cmaureir/1.png"
           inkscape:export-xdpi="282.39001"
           inkscape:export-ydpi="282.39001" />
        <path
           id="path3276"
           style="fill:#404040;fill-opacity:1;fill-rule:nonzero;stroke:none"
           d="m 2070.4628,1969.195 c -0.5799,-2.3127 -1.1168,-4.6409 -1.6167,-6.9847 -1.3541,-6.3228 -2.5988,-12.669 -3.7717,-18.9918 4.2286,3.8157 7.0982,6.3696 7.0982,6.3696 0,0 -1.2721,8.0281 -1.7098,19.6069"
           inkscape:connector-curvature="0"
           inkscape:export-filename="/home/cmaureir/1.png"
           inkscape:export-xdpi="282.39001"
           inkscape:export-ydpi="282.39001" />
        <path
           id="path3278"
           style="fill:#404040;fill-opacity:1;fill-rule:nonzero;stroke:none"
           d="m 2194.8366,1972.6133 c 0,-13.502 9.7523,-62.6827 24.3875,-88.8771 14.642,-26.1788 44.6031,-53.946 44.6031,-53.946 0,0 18.123,140.4405 60.6334,136.4692 -4.8146,57.5824 -9.636,109.8387 -12.1526,141.8654 -10.7371,0.9811 -22.452,1.2769 -35.1655,0.545 -32.389,-1.3237 -60.2711,-6.0969 -84.2344,-13.6111 -0.1437,-5.552 -0.636,-11.937 -1.5661,-19.2954 -4.1786,-33.3425 3.4946,-89.6634 3.4946,-103.15"
           inkscape:connector-curvature="0"
           inkscape:export-filename="/home/cmaureir/1.png"
           inkscape:export-xdpi="282.39001"
           inkscape:export-ydpi="282.39001" />
        <path
           id="path3280"
           style="fill:#404040;fill-opacity:1;fill-rule:nonzero;stroke:none"
           d="m 8092.7494,1479.0606 c 3.1459,-3.574 13.9445,11.1171 21.604,30.9396 1.826,4.7242 5.2796,13.8641 9.465,25.0271 -6.196,4.9181 -11.8928,9.4445 -16.7074,13.2459 -8.3365,-34.4771 -15.8456,-67.5307 -14.3616,-69.2126"
           inkscape:connector-curvature="0"
           inkscape:export-filename="/home/cmaureir/1.png"
           inkscape:export-xdpi="282.39001"
           inkscape:export-ydpi="282.39001" />
        <path
           id="path3282"
           style="fill:#404040;fill-opacity:1;fill-rule:nonzero;stroke:none"
           d="m 8147.8092,1402.882 c 8.0083,9.1245 32.0401,23.0042 43.208,23.0042 11.1474,0 64.1076,0.011 54.3554,-27.7586 -9.7591,-27.7766 -50.1768,-22.2255 -50.1768,-22.2255 l -21.604,-24.5918 c 0,0 52.6114,7.5186 59.2451,15.0656 5.3617,6.1195 24.9414,18.4994 32.1496,22.9613 -24.7773,37.8323 -57.2073,76.7813 -70.9944,88.7041 -7.9331,6.8742 -21.7681,18.1742 -36.7179,30.2193 -12.7408,-41.1447 -24.8046,-83.7067 -24.8046,-92.6863 0,-15.8653 7.3244,-21.8081 15.3396,-12.6923"
           inkscape:connector-curvature="0"
           inkscape:export-filename="/home/cmaureir/1.png"
           inkscape:export-xdpi="282.39001"
           inkscape:export-ydpi="282.39001" />
        <path
           id="path3284"
           style="fill:#404040;fill-opacity:1;fill-rule:nonzero;stroke:none"
           d="m 8067.596,1575.4962 -5.3411,4.4563 c -3.864,-22.5541 -7.1466,-42.182 -7.1466,-42.182 l 12.4877,37.7257"
           inkscape:connector-curvature="0"
           inkscape:export-filename="/home/cmaureir/1.png"
           inkscape:export-xdpi="282.39001"
           inkscape:export-ydpi="282.39001" />
        <path
           id="path3286"
           style="fill:#404040;fill-opacity:1;fill-rule:nonzero;stroke:none"
           d="m 8027.9442,1763.9228 c 13.5274,-33.5995 18.3624,-83.8625 19.313,-95.2389 0.4377,-0.077 0.8686,-0.1479 1.3336,-0.2257 3.0843,5.5596 11.8723,19.5523 18.3692,12.155 3.6383,-4.1426 6.1208,-8.2928 7.3655,-13.51 13.9786,1.6431 28.4292,7.6544 35.1996,20.7827 9.6018,18.5867 -29.7627,89.6246 -29.7627,89.6246 0,0 13.4452,109.2859 3.8503,145.3615 -9.6018,36.0602 -50.8812,101.6317 -133.4333,112.572 -9.2872,1.2302 -18.1435,1.9466 -26.6032,2.2815 6.3191,-19.3032 13.3837,-38.4196 20.7286,-54.0084 20.9133,-44.4385 68.293,-181.7175 83.6394,-219.7943"
           inkscape:connector-curvature="0"
           inkscape:export-filename="/home/cmaureir/1.png"
           inkscape:export-xdpi="282.39001"
           inkscape:export-ydpi="282.39001" />
        <path
           id="path3288"
           style="fill:#404040;fill-opacity:1;fill-rule:nonzero;stroke:none"
           d="m 8620.3001,1818.6708 c 5.266,-5.949 12.1732,-13.8915 12.1732,-13.8915 0,0 7.3859,10.7224 17.0972,7.5376 9.7796,-3.177 16.0713,-19.8249 16.0713,-19.8249 0,0 -3.5562,19.0385 4.8556,19.0385 8.3435,0 16.003,-14.2886 16.003,-14.2886 0,0 -2.804,22.2232 -2.804,31.7462 0,9.5232 -15.661,17.8548 -25.7825,29.3559 -3.0775,3.5117 -7.044,7.1714 -10.8054,10.9012 -3.2143,-9.344 -4.8556,-15.2385 -4.8556,-15.2385 0,0 -6.7021,1.098 -35.4938,-10.9169 -1.9149,-0.7942 -3.8297,-1.6118 -5.7446,-2.4683 7.3859,-8.3941 16.3449,-18.6258 19.2856,-21.9507"
           inkscape:connector-curvature="0"
           inkscape:export-filename="/home/cmaureir/1.png"
           inkscape:export-xdpi="282.39001"
           inkscape:export-ydpi="282.39001" />
        <path
           id="path3290"
           style="fill:#404040;fill-opacity:1;fill-rule:nonzero;stroke:none"
           d="m 8711.5991,1836.9228 c 0,-13.4943 0,-13.4943 0,-13.4943 0,0 2.12,-26.1866 6.2917,-45.2327 4.1718,-19.0308 -3.4878,-112.6654 -3.4878,-112.6654 0,0 7.6596,-15.8615 12.5152,-21.429 4.9239,-5.5518 9.0956,-19.8404 9.0956,-19.8404 0,0 33.3054,260.1293 47.5302,367.0013 -7.8647,0.7943 -15.9346,1.3238 -24.1412,1.5497 -50.3341,1.4016 -84.1181,-55.628 -102.036,-97.0064 12.2416,-4.7499 25.8509,-15.441 30.5697,-20.7904 7.6596,-8.7366 23.6626,-24.6137 23.6626,-38.0924"
           inkscape:connector-curvature="0"
           inkscape:export-filename="/home/cmaureir/1.png"
           inkscape:export-xdpi="282.39001"
           inkscape:export-ydpi="282.39001" />
        <path
           id="path3292"
           style="fill:#404040;fill-opacity:1;fill-rule:nonzero;stroke:none"
           d="m 4293.9057,1716.2994 c -22.6162,-27.1366 -30.433,-71.9799 -33.1275,-100.9875 21.1457,42.6733 42.4762,78.8579 62.0833,125.5624 -11.8381,-7.9347 -21.9733,-16.1809 -28.9558,-24.5749"
           inkscape:connector-curvature="0"
           inkscape:export-filename="/home/cmaureir/1.png"
           inkscape:export-xdpi="282.39001"
           inkscape:export-ydpi="282.39001" />
        <path
           id="path3294"
           style="fill:#404040;fill-opacity:1;fill-rule:nonzero;stroke:none"
           d="m 7888.5543,1754.4074 c 31.3563,-63.4769 52.2627,-115.0637 48.7817,-140.4583 -3.4878,-25.3822 -57.8364,-122.19 -57.8364,-122.19 0,0 23.3343,-26.5836 30.31,-34.523 6.9619,-7.9291 13.582,-25.7871 13.582,-25.7871 0,0 24.401,172.9887 24.401,197.5774 0,24.5981 -59.929,254.7098 -66.2003,290.4195 -6.2712,35.7097 -17.4391,101.5616 -17.4391,101.5616 0,0 -4.2743,3.3171 -10.7712,8.6588 -24.3669,-7.522 -38.9679,-18.6803 -42.3873,-27.012 -6.7158,-16.3988 -35.5211,-51.3765 -46.0735,-78.6922 -10.5593,-27.3234 -7.68,-45.9024 -7.68,-45.9024 0,0 -0.9575,-21.865 -6.7158,-43.7143 -0.034,-0.1324 -0.055,-0.2647 -0.082,-0.3816 62.22,-6.4162 113.792,-30.3447 138.111,-79.5564"
           inkscape:connector-curvature="0"
           inkscape:export-filename="/home/cmaureir/1.png"
           inkscape:export-xdpi="282.39001"
           inkscape:export-ydpi="282.39001" />
        <path
           id="path3296"
           style="fill:#404040;fill-opacity:1;fill-rule:nonzero;stroke:none"
           d="m 9255.2214,1744.8688 c 0,13.5021 0.6839,49.2039 12.5151,45.225 11.8313,-3.9557 11.8313,-22.2155 11.8313,-49.1807 0,-26.9808 3.4876,-65.8519 3.4876,-65.8519 0,0 3.4875,15.075 13.2671,15.075 9.7115,0 9.7115,-8.7366 9.7115,-8.7366 0,0 8.4119,6.3462 13.9511,0 5.6082,-6.3384 10.4635,-23.0096 10.4635,-23.0096 0,0 7.6598,42.85 7.6598,51.5789 0,8.7211 -14.6349,45.2327 0,45.2327 14.635,0 23.7307,-46.8212 23.7307,-57.1385 0,-10.3173 1.3678,-61.8963 -13.951,-88.0743 -15.3189,-26.1734 -44.932,-53.1682 -44.932,-59.9051 0,-6.7433 0,-17.8643 0,-17.8643 0,0 48.4195,5.5511 91.6413,5.5511 43.1537,0 84.3229,-19.8373 84.3229,-19.8373 0,0 -56.4889,345.1762 -67.6363,411.83 -11.1474,66.654 -27.834,103.1579 -34.81,111.0925 -6.3602,7.226 -18.1914,26.6615 -0.9572,52.5833 -58.9511,3.6754 -109.7638,-16.9282 -156.3369,-56.9048 -58.5406,-50.2787 -51.838,-159.5724 -52.7961,-182.5275 -0.9573,-22.9473 17.3023,-31.6917 17.3023,-31.6917 0,0 0,0 -12.5143,-5.4585 -12.447,-5.4663 -25.9194,-55.7448 -1.9154,-102.7451 24.005,-46.9926 45.1364,-29.5037 45.1364,-29.5037 0,0 -0.9573,-7.6464 6.7025,-62.3011 0.3415,-2.2738 0.6158,-4.546 0.9573,-6.818 12.6523,21.1298 26.8767,42.0993 26.8767,42.0993 0,0 6.2921,73.7943 6.2921,87.2809"
           inkscape:connector-curvature="0"
           inkscape:export-filename="/home/cmaureir/1.png"
           inkscape:export-xdpi="282.39001"
           inkscape:export-ydpi="282.39001" />
        <path
           id="path3298"
           style="fill:#404040;fill-opacity:1;fill-rule:nonzero;stroke:none"
           d="m 8908.1483,1731.3901 c 0,0 11.4897,2.3827 11.4897,-13.0894 0,-15.4722 0,-15.4722 0,-15.4722 0,0 20.0379,-2.9433 24.8251,-17.0683 3.077,5.474 5.5392,10.6832 6.907,15.2384 7.6598,25.1354 -12.5152,41.5342 -12.5152,41.5342 0,0 7.728,43.722 11.5579,78.6921 3.8299,34.9698 0,44.8123 -24.0049,92.9027 -5.8126,11.6801 -14.0195,22.1842 -24.2778,31.4503 0.6155,-53.1517 1.0942,-103.6171 1.0942,-121.3552 0,-41.2537 4.924,-92.8326 4.924,-92.8326"
           inkscape:connector-curvature="0"
           inkscape:export-filename="/home/cmaureir/1.png"
           inkscape:export-xdpi="282.39001"
           inkscape:export-ydpi="282.39001" />
        <path
           id="path3300"
           style="fill:#404040;fill-opacity:1;fill-rule:nonzero;stroke:none"
           d="m 7384.0028,1679.0169 c 0,0 3.8229,-30.5471 8.3502,-35.7097 4.5342,-5.1548 46.7095,-34.9155 70.3926,-49.19 23.6967,-14.2862 41.1153,-48.3988 41.1153,-48.3988 l 4.1785,4.76 -4.8761,54.7505 c 0,0 -63.41,19.0321 -68.2998,46.0207 -4.8693,26.9652 -11.8313,99.9654 4.8898,106.3193 16.7278,6.3539 39.7202,3.1769 39.7202,3.1769 l -6.2781,37.306 c 0,0 -19.8533,55.1373 -11.1474,65.0576 8.7127,9.8967 16.3791,1.1913 16.3791,1.1913 0,0 -12.2005,32.1278 1.7371,37.6797 13.9444,5.5675 21.604,-30.9364 21.604,-30.9364 0,0 -2.0859,18.2442 8.3639,19.8404 10.4635,1.573 21.604,-37.3059 21.604,-37.3059 0,0 2.4415,12.3029 9.0684,4.7655 4.4863,-5.1004 13.1169,-24.7772 18.2324,-38.9101 -2.845,16.4765 -15.7226,45.9492 -51.3736,96.8817 -5.9019,8.4331 -12.9187,17.1229 -20.9201,25.8518 -12.1801,-27.7127 -23.389,-53.2998 -26.0903,-60.7983 -6.2713,-17.4733 -76.6501,-202.3522 -76.6501,-202.3522"
           inkscape:connector-curvature="0"
           inkscape:export-filename="/home/cmaureir/1.png"
           inkscape:export-xdpi="282.39001"
           inkscape:export-ydpi="282.39001" />
        <path
           id="path3302"
           style="fill:#404040;fill-opacity:1;fill-rule:nonzero;stroke:none"
           d="m 7018.8206,1901.9804 c 0,0 3.652,31.9798 8.8974,77.7656 -18.7454,-23.6171 -31.7598,-48.768 -40.6093,-70.3448 7.7075,-7.3585 14.6284,-11.3764 21.946,-11.3764 9.7659,0 9.7659,3.9556 9.7659,3.9556"
           inkscape:connector-curvature="0"
           inkscape:export-filename="/home/cmaureir/1.png"
           inkscape:export-xdpi="282.39001"
           inkscape:export-ydpi="282.39001" />
        <path
           id="path3304"
           style="fill:#404040;fill-opacity:1;fill-rule:nonzero;stroke:none"
           d="m 6095.4086,1787.7266 c -0.7181,-0.8254 -2.0175,-1.7598 -3.6247,-2.7487 -1.5318,-10.8546 -3.816,-24.0841 -6.5515,-37.4617 11.1951,5.7233 26.3228,12.6222 39.4534,15.6045 24.3942,5.5597 47.3934,-0.7864 47.3934,-0.7864 l 32.0674,80.9346 c 0,0 11.1406,23.0097 23.6831,16.6712 12.5425,-6.3616 3.4878,-33.3268 3.4878,-33.3268 0,0 -25.0987,-76.1926 -25.0987,-85.7002 0,-9.523 17.4255,-19.0539 17.4255,-30.9442 0,-11.9058 -25.4338,-40.8722 -38.3251,-55.5424 -12.8912,-14.6934 -45.9914,-21.4289 -54.3622,-39.6831 -8.3503,-18.259 -41.7992,-99.9739 -48.7817,-142.025 -6.9756,-42.066 -20.2157,-118.2446 -20.2157,-118.2446 0,0 24.7431,-22.6147 32.0743,-30.934 7.3108,-8.3489 19.1558,-21.8238 19.1558,-21.8238 0,0 31.0005,35.3135 42.8455,40.8646 11.8654,5.5511 32.7718,19.0407 32.7718,19.0407 0,0 -23.0059,108.7035 32.0402,153.1482 55.0734,44.4331 186.0858,112.6762 186.0858,112.6762 l -34.8441,77.7656 c 0,0 -15.3396,24.5902 6.2781,38.0845 21.5971,13.471 36.9367,-21.4366 42.5036,-35.7097 5.5805,-14.2885 65.5095,-131.7341 69.0042,-127.7551 3.4741,3.9844 -3.4947,42.0628 -9.7591,60.2993 -6.2712,18.2597 -27.882,99.9808 -27.882,99.9808 0,0 -6.627,27.3778 11.1542,30.1578 17.7605,2.7876 32.0468,-34.1212 32.0468,-34.1212 0,0 -4.8623,53.9695 -4.8623,61.9041 0,7.9267 -41.129,59.5056 -26.4938,76.177 14.6283,16.6556 23.6967,6.3383 23.6967,6.3383 0,0 6.6268,24.9951 18.1298,29.3635 5.7788,2.1959 10.8533,0.7631 14.4779,-1.1914 -12.6793,10.9948 -30.2142,28.3357 -30.2142,28.3357 l 6.7158,60.1209 c 0,0 34.5568,12.0148 42.2369,18.5634 7.6801,6.5642 5.7583,16.3988 8.6443,44.82 2.8723,28.4138 23.0334,53.549 30.7134,74.3161 7.6869,20.7671 3.8366,57.9328 -10.5592,79.79 -14.4027,21.8572 -12.4741,34.97 -15.3601,57.9251 -2.8792,22.9472 -23.0401,31.6917 -30.7203,42.6164 -7.68,10.9402 -38.3933,16.3987 -47.0309,12.0304 -8.6443,-4.3761 -47.0309,3.2705 -66.2344,7.6464 -19.1968,4.3685 -56.6327,-8.7366 -84.4738,-1.0901 -27.841,7.6544 -64.3127,-53.5566 -72.9435,-68.8497 -8.6442,-15.3085 18.2325,-71.0533 11.5099,-122.4142 -6.7158,-51.3687 -1.9217,-51.3687 0.9642,-77.6019 2.8724,-26.2256 31.6709,-36.0601 37.4293,-50.2708 5.7651,-14.2107 42.2436,-7.6466 42.2436,-7.6466 l -4.8008,-65.5871 -19.2036,-10.9247 c 0,0 -7.68,6.5564 -16.3176,7.6544 -8.6374,1.0901 -22.0759,4.3683 -38.3934,-14.2108 -16.3175,-18.5789 -53.7535,-30.6015 -82.552,-42.6241 -21.604,-9.0171 -59.4162,-43.2628 -78.5719,-71.3415 0.5745,-0.4673 1.149,-1.0045 1.7029,-1.6353 8.3708,-9.5308 -5.5668,-15.8692 -9.759,-20.6346"
           inkscape:connector-curvature="0"
           inkscape:export-filename="/home/cmaureir/1.png"
           inkscape:export-xdpi="282.39001"
           inkscape:export-ydpi="282.39001" />
        <path
           id="path3306"
           style="fill:#404040;fill-opacity:1;fill-rule:nonzero;stroke:none"
           d="m 7240.4343,1825.017 c 17.4254,-26.9652 51.5788,-73.802 51.5788,-73.802 0,0 94.7594,169.8116 117.0747,207.8963 8.1314,13.8835 14.5804,23.6637 19.7438,33.5216 -64.9693,45.84 -155.4339,80.6076 -253.8179,68.4292 9.8753,-78.77 23.6077,-170.9719 23.6077,-170.9719 0,0 24.3943,-38.0924 41.8129,-65.0732"
           inkscape:connector-curvature="0"
           inkscape:export-filename="/home/cmaureir/1.png"
           inkscape:export-xdpi="282.39001"
           inkscape:export-ydpi="282.39001" />
        <path
           id="path3308"
           style="fill:#404040;fill-opacity:1;fill-rule:nonzero;stroke:none"
           d="m 6673.1497,1862.3229 c 0,-20.6424 -38.325,-107.1213 -38.325,-121.4098 0,-14.273 0,-37.2981 0,-37.2981 0,0 32.0606,-15.0906 32.0606,-30.952 0,-15.8615 9.0547,-165.0417 9.0547,-165.0417 0,0 99.6492,169.8149 115.6864,207.8994 16.0303,38.0925 35.5416,146.0001 60.6266,184.077 1.2174,1.8455 2.4141,3.5352 3.6041,5.1626 -4.5547,18.3687 -11.2021,49.2039 -8.6102,64.0064 3.8435,21.865 4.8077,30.6093 10.5661,48.0905 5.7515,17.4888 3.8366,54.6468 3.8366,54.6468 0,0 12.4809,16.3988 20.1541,21.8649 7.687,5.4585 16.3244,56.8272 22.0828,75.4062 5.7652,18.5868 -9.5949,7.6465 -9.5949,7.6465 0,0 8.6374,91.8126 4.794,139.9032 -3.8434,48.0904 -73.9077,83.0682 -117.102,93.9851 -43.2012,10.9403 -94.0755,-20.7593 -119.0306,-93.9851 -24.9619,-73.226 -3.8434,-138.8052 -3.8434,-138.8052 0,0 3.8434,-32.782 7.68,-48.0905 3.8435,-15.3009 16.3244,-30.6017 16.3244,-30.6017 0,0 -2.886,-25.1354 -1.9286,-44.7967 0.9643,-19.6847 30.7203,-57.9406 30.7203,-57.9406 l -22.0759,-54.6469 c 0,0 -28.7985,1.098 -45.1229,-3.2703 -5.7515,-1.5418 -18.2325,-7.7323 -31.9444,-15.0751 26.9657,-19.272 60.3872,-47.2339 60.3872,-60.7749"
           inkscape:connector-curvature="0"
           inkscape:export-filename="/home/cmaureir/1.png"
           inkscape:export-xdpi="282.39001"
           inkscape:export-ydpi="282.39001" />
        <path
           id="path3310"
           style="fill:#404040;fill-opacity:1;fill-rule:nonzero;stroke:none"
           d="m 5702.358,1597.2841 -12.5425,14.2924 c 0,0 6.9757,-77.7663 6.9757,-96.0222 0,-18.244 0,-77.76 0,-77.76 0,0 43.9055,47.6078 127.5176,34.9241 83.6394,-12.7048 117.7927,-43.6475 117.7927,-43.6475 0,0 64.1076,131.7194 75.2618,165.8312 6.5996,20.1971 13.1785,42.8609 17.4665,63.6203 l -4.459,4.2281 2.8792,75.4139 c 0,0 3.4742,12.7936 14.4848,31.8475 1.6139,6.7043 3.3715,11.6956 5.1633,13.7512 0.8891,1.0045 2.079,2.157 3.4537,3.4029 7.8031,19.5212 11.4619,41.7132 11.4619,41.7132 0,0 19.1968,-3.2782 24.9482,10.9246 5.7583,14.2029 18.2393,44.8123 29.7628,76.5118 11.5235,31.6918 -11.5235,28.4058 -11.5235,28.4058 0,0 10.5592,38.2559 24.9619,109.3093 14.3958,71.0379 -41.2726,126.7748 -115.194,149.7221 -73.9077,22.9473 -146.8648,-22.9473 -182.3791,-66.6695 -35.5142,-43.7221 -23.9976,-126.7825 -23.9976,-126.7825 0,0 -5.7583,8.7444 -23.0333,-13.105 -17.2818,-21.8728 3.8366,-71.0455 9.5949,-95.0908 5.7583,-24.0453 27.841,-16.3909 27.841,-16.3909 0,0 -0.9642,-24.0531 -0.9642,-48.0983 0,-24.0453 -16.3176,-107.0979 -25.9194,-126.7825 -9.588,-19.6614 -72.9502,-31.6919 -76.7868,-31.6919 -3.3921,0 -0.8275,-0.011 -35.0218,-15.729 0.5333,-9.562 1.2241,-18.283 2.4961,-24.0687 4.1923,-19.0462 9.7591,-42.0596 9.7591,-42.0596"
           inkscape:connector-curvature="0"
           inkscape:export-filename="/home/cmaureir/1.png"
           inkscape:export-xdpi="282.39001"
           inkscape:export-ydpi="282.39001" />
        <path
           id="path3312"
           style="fill:#000000;fill-opacity:1;fill-rule:nonzero;stroke:none"
           d="m 9561.8082,2339.2019 c -6.6344,7.5376 -44.5895,26.9654 -71.0566,39.6732 -26.4662,12.6923 -28.586,-5.5519 -48.761,-16.6635 -20.2431,-11.1038 -8.0695,-37.6875 -8.0695,-37.6875 0,0 -4.5138,5.1548 -46.2997,30.5549 -41.854,25.3768 -24.4145,-13.5098 -24.4145,-13.5098 0,0 17.4394,-19.8172 55.053,-43.6289 37.6136,-23.8038 42.538,-34.1288 42.538,-34.1288 0,0 -29.2708,25.4001 -39.7343,13.4942 -10.4635,-11.8981 14.6358,-31.7384 21.6109,-39.6809 6.976,-7.9269 30.2961,-15.4642 30.2961,-15.4642 0,0 -4.5138,-5.1549 -28.9283,-16.2665 -24.3465,-11.1037 -37.2721,-74.9856 -62.7121,-104.7462 -2.2569,-2.6241 -4.1723,-5.1937 -5.8134,-7.7089 -17.2342,-25.9218 -5.403,-45.3573 0.9572,-52.5833 6.976,-7.9346 23.6626,-44.4385 34.81,-111.0925 11.1474,-66.6538 67.6363,-411.83 67.6363,-411.83 0,0 -41.1692,19.8373 -84.3229,19.8373 -43.2218,0 -91.6413,-5.5511 -91.6413,-5.5511 0,0 0,11.121 0,17.8643 0,6.7369 29.6131,33.7317 44.932,59.9051 15.3188,26.178 13.951,77.757 13.951,88.0743 0,10.3173 -9.0957,57.1385 -23.7307,57.1385 -14.6349,0 0,-36.5116 0,-45.2327 0,-8.7289 -7.6598,-51.5789 -7.6598,-51.5789 0,0 -4.8553,16.6712 -10.4635,23.0096 -5.5392,6.3462 -13.9511,0 -13.9511,0 0,0 0,8.7366 -9.7115,8.7366 -9.7796,0 -13.2671,-15.075 -13.2671,-15.075 0,0 -3.4876,38.8711 -3.4876,65.8519 0,26.9652 0,45.225 -11.8313,49.1807 -11.8312,3.9789 -12.5151,-31.7229 -12.5151,-45.225 0,-13.4866 -6.2921,-87.2809 -6.2921,-87.2809 0,0 -14.2244,-20.9695 -26.8767,-42.0993 -6.6336,-10.9653 -12.7885,-21.9701 -16.3451,-30.1065 -10.4635,-23.8015 -5.9497,-78.1555 -5.9497,-78.1555 0,0 -7.3174,-8.335 -11.8313,-13.4958 -4.5138,-5.1502 -9.3691,-10.7013 -9.3691,-10.7013 0,0 -40.4181,129.3474 -101.7624,162.6681 -61.3451,33.3193 -123.3733,4.7577 -123.3733,4.7577 0,0 -4.8553,17.45 -8.3437,33.327 -0.1363,0.7008 -0.4105,1.3393 -0.6149,1.9779 -4.7872,14.125 -24.8251,17.0683 -24.8251,17.0683 0,0 0,0 0,15.4722 0,15.4721 -11.4897,13.0894 -11.4897,13.0894 0,0 -4.924,51.5789 -4.924,92.8326 0,17.7381 -0.4787,68.2035 -1.0942,121.3552 -0.7523,70.446 -1.6413,145.6264 -1.6413,155.57 0,17.4655 43.9053,11.1193 71.7402,25.3922 27.9021,14.2886 64.1479,40.4752 90.615,59.5135 26.4662,19.0463 36.9297,54.7637 51.5646,71.4272 14.635,16.6557 12.1737,47.2028 2.1198,58.7037 -10.1211,11.5088 -20.2423,-23.0096 -32.0735,-48.3864 -11.8313,-25.4001 -29.6132,-31.3646 -29.6132,-31.3646 0,0 0,0 -7.3174,-8.3163 -7.3175,-8.3316 10.4635,26.1711 18.1233,46.0193 7.6599,19.8404 11.1474,59.5135 5.5392,65.852 -5.5392,6.346 -2.8036,30.9519 -20.858,30.9519 -18.1233,0 -17.0971,-32.1278 -11.2164,-38.8788 5.9506,-6.751 -11.8313,-49.9982 -16.6866,-65.0655 -4.8553,-15.0749 -31.0481,-25.7971 -40.4172,-36.5039 -9.4381,-10.7066 -3.4884,42.8579 -3.4884,53.1596 0,10.3251 -11.1474,28.5693 -11.1474,28.5693 0,0 0,0 -8.7534,9.9203 -8.6852,9.9279 -30.2961,34.526 -44.9316,17.8471 -14.6352,-16.6635 16.4137,-33.7163 23.0473,-41.2616 6.5646,-7.5297 6.2231,-20.6269 6.2231,-44.4386 0,-23.7961 -12.8567,-21.8182 -16.0027,-18.2365 -3.146,3.5742 0,49.9905 -32.0747,46.0116 -32.0743,-3.9634 -20.1746,-41.2461 -20.1746,-59.5058 0,-18.2442 -55.8052,-36.504 -62.7125,-51.5789 -6.9756,-15.0672 -14.7036,-80.9346 -23.7308,-145.2058 -1.0942,-7.8178 -2.7356,-19.7158 -4.7189,-34.5106 -14.2248,-106.872 -47.5302,-367.0013 -47.5302,-367.0013 0,0 -4.1717,14.2886 -9.0956,19.8404 -4.8556,5.5675 -12.5152,21.429 -12.5152,21.429 0,0 7.6596,93.6346 3.4878,112.6654 -4.1717,19.0461 -6.2917,45.2327 -6.2917,45.2327 0,0 0,0 0,13.4943 0,13.4787 -16.003,29.3558 -23.6626,38.0924 -4.7188,5.3494 -18.3281,16.0405 -30.5697,20.7904 -7.7279,3.0057 -14.9087,3.6442 -18.9437,-0.9655 -7.2492,-8.2695 0.1368,-17.1073 8.6854,-25.5949 3.7614,-3.7298 7.7279,-7.3895 10.8054,-10.9012 10.1215,-11.5011 25.7825,-19.8327 25.7825,-29.3559 0,-9.523 2.804,-31.7462 2.804,-31.7462 0,0 -7.6595,14.2886 -16.003,14.2886 -8.4118,0 -4.8556,-19.0385 -4.8556,-19.0385 0,0 -6.2917,16.6479 -16.0713,19.8249 -9.7113,3.1848 -17.0972,-7.5376 -17.0972,-7.5376 0,0 -6.9072,7.9425 -12.1732,13.8915 -2.9407,3.3249 -11.8997,13.5566 -19.2856,21.9507 -5.813,6.6653 -10.6687,12.1783 -10.6687,12.1783 0,0 0,5.5442 4.8557,11.096 4.9239,5.5752 -4.8557,15.0828 -12.1732,23.4144 -7.3177,8.3319 -14.2933,-16.2662 -14.2933,-16.2662 0,0 -66.8842,71.4272 -82.2716,88.8771 -15.3191,17.4576 -49.4451,76.9478 -56.4208,102.3558 -6.9756,25.3844 -31.322,80.1403 -36.9299,101.5536 -5.5394,21.4134 -32.7582,37.2982 -12.1732,-7.5296 20.5167,-44.8357 -8.0014,-9.1261 -14.9771,-1.1914 -6.9756,7.9346 -32.7582,49.1883 -39.7338,41.2693 -6.9757,-7.9502 0,-25.4001 0,-25.4001 0,0 -20.927,23.7961 -27.2188,11.9058 -6.2233,-11.9058 6.2918,-29.3636 6.2918,-29.3636 0,0 -11.1474,12.6924 -17.4392,-1.5807 -6.2917,-14.2885 37.6139,-75.3748 37.6139,-75.3748 0,0 -10.3951,11.8901 -20.1747,0.7785 -9.7796,-11.1115 13.9513,-46.8133 29.9542,-71.4037 16.003,-24.6058 54.3691,-34.1134 71.1244,-53.1596 16.6868,-19.0539 60.5924,-134.9118 60.5924,-134.9118 0,0 -29.2704,7.5452 -37.9558,7.5452 -8.6853,0 -7.6595,8.7211 -7.6595,8.7211 -5.266,38.4896 -34.5363,39.2838 -34.5363,39.2838 0,0 14.6352,-8.721 20.9269,-15.8615 6.2918,-7.1403 2.8039,-27.7672 2.8039,-27.7672 0,0 -13.2674,5.5364 -59.293,-3.1769 -45.9572,-8.7445 -90.5603,-40.4752 -102.3916,-77.7577 -11.8517,-37.306 -48.7953,-84.9215 -48.7953,-84.9215 0,0 21.2552,5.949 25.7894,11.1271 4.5204,5.1392 19.5113,15.8693 19.5113,15.8693 0,0 -14.6421,-24.6137 -21.5972,-39.6809 -6.9825,-15.0906 -23.0059,-26.1944 -23.0059,-26.1944 0,0 15.3327,0 22.3015,7.9424 6.9688,7.9424 14.642,0.7943 14.642,0.7943 0,0 -3.4878,-41.2678 -3.4878,-58.7209 0,-17.4592 4.5137,-41.6563 15.3328,-65.862 10.7849,-24.2173 19.5113,-10.3174 19.5113,-10.3174 l -1.3951,-107.9029 c 0,0 -1.0054,-0.6081 -2.6877,-1.6515 -7.2082,-4.4619 -26.7879,-16.8418 -32.1496,-22.9613 -6.6337,-7.547 -59.2451,-15.0656 -59.2451,-15.0656 l 21.604,24.5918 c 0,0 40.4177,-5.5511 50.1768,22.2255 9.7522,27.764 -43.208,27.7586 -54.3554,27.7586 -11.1679,0 -35.1997,-13.8797 -43.208,-23.0042 -8.0152,-9.1158 -15.3396,-3.173 -15.3396,12.6923 0,8.9796 12.0638,51.5416 24.8046,92.6863 9.7659,31.5267 19.9284,62.2171 25.3654,76.3304 12.5562,32.5304 5.5874,53.9586 -4.1717,57.922 -9.7523,3.9789 -20.2089,-15.0673 -20.2089,-15.0673 0,0 -21.0432,-56.6635 -34.4406,-92.4184 -4.1854,-11.163 -7.639,-20.3029 -9.465,-25.0271 -7.6595,-19.8225 -18.4581,-34.5136 -21.604,-30.9396 -1.484,1.6819 6.0251,34.7355 14.3616,69.2126 9.3624,38.6811 19.7918,79.1725 19.7918,79.1725 0,0 13.9308,34.9077 -5.5737,41.2538 -19.5113,6.3617 -29.968,-21.4289 -29.968,-21.4289 l -23.7651,-71.7744 -12.4877,-37.7257 c 0,0 3.2826,19.6279 7.1466,42.182 4.0965,23.923 8.8426,51.1452 10.99,61.7662 2.2774,11.2829 2.5783,19.1008 1.0806,25.3845 -1.2447,5.2172 -3.7272,9.3674 -7.3655,13.51 -6.4969,7.3973 -15.2849,-6.5954 -18.3692,-12.155 -0.7318,-1.3004 -1.1421,-2.1414 -1.1421,-2.1414 0,0 -0.061,0.8566 -0.1915,2.3671 -0.9506,11.3764 -5.7856,61.6394 -19.313,95.2389 -15.3464,38.0768 -62.7261,175.3558 -83.6394,219.7943 -7.3449,15.5888 -14.4095,34.7052 -20.7286,54.0084 -11.6603,35.7018 -20.7013,72.0578 -23.8745,88.0205 -4.883,24.598 -4.1854,71.4038 -4.1854,80.1481 0,8.7211 0,52.3654 0,70.6174 0,18.2519 -3.4673,28.1721 -8.7058,28.1721 -5.2113,0 -8.706,-9.9202 -8.706,-9.9202 l -5.5873,-73.8021 c 0,0 -8.364,0 -22.9923,0 -14.6352,0 -32.047,-4.7498 -32.047,-4.7498 0,0 -4.1922,38.0768 -11.8586,72.2135 -7.6801,34.1134 -19.4976,40.4441 -25.7826,33.327 -6.2712,-7.1482 0,-31.754 0,-31.754 l 14.9841,-94.8182 c 0,0 -10.8055,-12.2953 -25.4339,-21.0242 -14.642,-8.7288 9.0615,-53.1674 20.2089,-78.5519 8.2546,-18.8125 45.1981,-50.6834 63.7862,-65.9374 6.4969,-5.3417 10.7712,-8.6588 10.7712,-8.6588 0,0 11.1679,-65.8519 17.4391,-101.5616 6.2713,-35.7097 66.2003,-265.8214 66.2003,-290.4195 0,-24.5887 -24.401,-197.5774 -24.401,-197.5774 0,0 -6.6201,17.858 -13.582,25.7871 -6.9757,7.9394 -30.31,34.523 -30.31,34.523 0,0 54.3486,96.8078 57.8364,122.19 3.481,25.3946 -17.4254,76.9814 -48.7817,140.4583 -24.319,49.2117 -75.891,73.1402 -138.111,79.5564 -18.0205,1.8533 -36.9299,2.2582 -56.325,1.3628 -86.4091,-3.9557 -124.0503,-52.3576 -124.0503,-52.3576 0,0 -6.9756,15.8614 -6.9756,22.2153 0,2.0479 -1.6345,7.5219 -4.0555,14.2496 -5.1155,14.1329 -13.7461,33.8097 -18.2324,38.9101 -6.6269,7.5374 -9.0684,-4.7655 -9.0684,-4.7655 0,0 -11.1405,38.8789 -21.604,37.3059 -10.4498,-1.5962 -8.3639,-19.8404 -8.3639,-19.8404 0,0 -7.6596,36.5039 -21.604,30.9364 -13.9376,-5.5519 -1.7371,-37.6797 -1.7371,-37.6797 0,0 -7.6664,8.7054 -16.3791,-1.1913 -8.7059,-9.9203 11.1474,-65.0576 11.1474,-65.0576 l 6.2781,-37.306 c 0,0 -22.9924,3.177 -39.7202,-3.1769 -16.7211,-6.3539 -9.7591,-79.3541 -4.8898,-106.3193 4.8898,-26.9886 68.2998,-46.0207 68.2998,-46.0207 l 4.8761,-54.7505 -4.1785,-4.76 c 0,0 -17.4186,34.1126 -41.1153,48.3988 -23.6831,14.2745 -65.8584,44.0352 -70.3926,49.19 -4.5273,5.1626 -8.3502,35.7097 -8.3502,35.7097 0,0 70.3788,184.8789 76.6501,202.3522 2.7013,7.4985 13.9102,33.0856 26.0903,60.7983 16.1329,36.7064 33.9481,77.1502 35.9383,84.3919 3.481,12.7002 39.0226,30.9599 55.7505,42.8579 16.721,11.9059 12.5425,32.5327 12.5425,39.6653 0,7.156 -15.326,15.8769 -15.326,15.8769 0,0 39.0227,122.1886 27.1709,126.9695 -11.8449,4.7577 -18.1094,-20.6347 -18.1094,-20.6347 l -32.0606,-93.6425 c 0,0 -9.7591,10.3174 -28.5728,10.3174 -18.8206,0 -38.3182,-11.1038 -38.3182,-11.1038 0,0 -2.804,14.2729 4.8761,52.3653 7.6459,38.0925 -11.8586,26.9809 -21.6109,1.5963 -9.7659,-25.4001 -18.1161,-61.1098 -23.0059,-123.8003 -3.098,-39.8288 -8.1793,-57.232 -17.1861,-74.3937 -5.1634,-9.8579 -11.6124,-19.6381 -19.7438,-33.5216 -22.3153,-38.0847 -117.0747,-207.8963 -117.0747,-207.8963 0,0 -34.1534,46.8368 -51.5788,73.802 -17.4186,26.9808 -41.8129,65.0732 -41.8129,65.0732 0,0 -13.7324,92.2019 -23.6077,170.9719 -5.5259,44.1583 -9.8481,84.096 -9.8481,101.1955 0,47.6077 6.2713,234.8616 9.7729,251.5329 3.4672,16.6557 13.5819,25.7895 21.5834,34.9154 8.0152,9.1182 12.5493,49.1884 23.7103,75.3828 11.1406,26.1866 10.4567,56.3288 3.4742,73.7865 -6.9757,17.4577 -52.2695,14.2886 -52.2695,14.2886 0,0 -19.5182,64.2789 -29.2635,105.5327 -9.7522,41.2694 -19.5182,71.4115 -33.4489,65.8596 -13.9308,-5.5597 -2.7972,-38.8867 -2.7972,-38.8867 l 31.37,-135.6904 c 0,0 -11.8587,0 -36.9437,-6.3384 -25.0918,-6.3539 -49.486,-28.5615 -49.486,-28.5615 0,0 -32.7445,51.5712 -41.1085,68.2346 -8.3571,16.6635 -21.2621,33.7163 -31.363,22.2231 -10.1079,-11.5087 -3.481,-23.0095 -3.481,-23.0095 0,0 39.7133,-83.3252 45.9845,-90.4577 6.2781,-7.1482 39.727,-96.0175 50.1906,-107.9233 10.4429,-11.8903 -1.3952,-112.681 -6.285,-146.7867 -3.4195,-23.9751 -24.702,-208.6826 -37.0872,-316.6136 -5.2454,-45.7858 -8.8974,-77.7656 -8.8974,-77.7656 0,0 0,-3.9556 -9.7659,-3.9556 -7.3176,0 -14.2385,4.0179 -21.946,11.3764 -2.5714,2.4606 -5.2317,5.2793 -8.0219,8.4485 -11.1337,12.7001 -26.829,8.3394 -32.0538,2.3905 -5.225,-5.9491 -8.3571,15.8769 -21.604,20.6269 -13.2333,4.7576 -25.7826,-11.898 -25.7826,-11.898 0,0 -20.2089,7.88 -43.7893,-24.2088 -1.19,-1.6274 -2.3867,-3.3171 -3.6041,-5.1626 -25.085,-38.0769 -44.5963,-145.9845 -60.6266,-184.077 -16.0372,-38.0845 -115.6864,-207.8994 -115.6864,-207.8994 0,0 -9.0547,149.1802 -9.0547,165.0417 0,15.8614 -32.0606,30.952 -32.0606,30.952 0,0 0,23.0251 0,37.2981 0,14.2885 38.325,100.7674 38.325,121.4098 0,13.541 -33.4215,41.5029 -60.3872,60.7749 -14.0539,10.037 -26.357,17.7148 -31.2536,19.7548 -14.2865,5.9491 -20.5646,-23.4067 -20.5646,-23.4067 0,0 -10.7917,12.2873 -24.3737,6.3462 -13.5957,-5.9492 -10.4703,-21.429 -10.4703,-21.429 0,0 -2.1542,2.445 -5.7173,4.3761 -3.6246,1.9545 -8.6991,3.3873 -14.4779,1.1914 -11.503,-4.3684 -18.1298,-29.3635 -18.1298,-29.3635 0,0 -9.0684,10.3173 -23.6967,-6.3383 -14.6352,-16.6714 26.4938,-68.2503 26.4938,-76.177 0,-7.9346 4.8623,-61.9041 4.8623,-61.9041 0,0 -14.2863,36.9088 -32.0468,34.1212 -17.7812,-2.78 -11.1542,-30.1578 -11.1542,-30.1578 0,0 21.6108,-81.7211 27.882,-99.9808 6.2644,-18.2365 13.2332,-56.3149 9.7591,-60.2993 -3.4947,-3.979 -63.4237,113.4666 -69.0042,127.7551 -5.5669,14.2731 -20.9065,49.1807 -42.5036,35.7097 -21.6177,-13.4943 -6.2781,-38.0845 -6.2781,-38.0845 l 34.8441,-77.7656 c 0,0 -131.0124,-68.2431 -186.0858,-112.6762 -55.0461,-44.4447 -32.0402,-153.1482 -32.0402,-153.1482 0,0 -20.9064,-13.4896 -32.7718,-19.0407 -11.845,-5.5511 -42.8455,-40.8646 -42.8455,-40.8646 0,0 -11.845,13.4749 -19.1558,21.8238 -7.3312,8.3193 -32.0743,30.934 -32.0743,30.934 0,0 13.2401,76.1786 20.2157,118.2446 6.9825,42.0511 40.4314,123.766 48.7817,142.025 8.3708,18.2542 41.471,24.9897 54.3622,39.6831 12.8913,14.6702 38.3251,43.6366 38.3251,55.5424 0,11.8903 -17.4255,21.4212 -17.4255,30.9442 0,9.5076 25.0987,85.7002 25.0987,85.7002 0,0 9.0547,26.9652 -3.4878,33.3268 -12.5425,6.3385 -23.6831,-16.6712 -23.6831,-16.6712 l -32.0674,-80.9346 c 0,0 -22.9992,6.3461 -47.3934,0.7864 -13.1306,-2.9823 -28.2583,-9.8812 -39.4534,-15.6045 -9.6018,-4.9134 -16.2971,-8.9702 -16.2971,-8.9702 0,0 0,22.1998 0,29.3323 0,5.9024 15.2028,12.342 22.8486,17.0996 1.6072,0.9889 2.9066,1.9233 3.6247,2.7487 4.1922,4.7654 18.1298,11.1038 9.759,20.6346 -0.5539,0.6308 -1.1284,1.168 -1.7029,1.6353 -8.1861,6.642 -18.5128,-1.6353 -18.5128,-1.6353 0,0 -19.101,-12.6922 -28.6001,-21.1952 -1.3747,-1.2459 -2.5646,-2.3984 -3.4537,-3.4029 -1.7918,-2.0556 -3.5494,-7.0469 -5.1633,-13.7512 -4.6163,-19.2409 -8.0631,-52.7468 -8.0631,-72.7508 0,-11.0104 -1.8875,-24.4269 -4.8419,-38.7387 -4.288,-20.7594 -10.8669,-43.4232 -17.4665,-63.6203 -11.1542,-34.1118 -75.2618,-165.8312 -75.2618,-165.8312 0,0 -34.1533,30.9427 -117.7927,43.6475 -83.6121,12.6837 -127.5176,-34.9241 -127.5176,-34.9241 0,0 0,59.516 0,77.76 0,18.2559 -6.9757,96.0222 -6.9757,96.0222 l 12.5425,-14.2924 c 0,0 -5.5668,23.0134 -9.7591,42.0596 -1.272,5.7857 -1.9628,14.5067 -2.4961,24.0687 -1.2448,21.8882 -1.7098,48.1761 -6.5585,53.689 -6.962,7.9502 -29.6193,57.528 -27.1709,54.7637 2.4278,-2.7876 22.9855,-5.5675 22.9855,-5.5675 0,0 -32.7446,28.5616 -51.5583,49.9905 -18.8206,21.4289 -66.2208,9.5232 -66.2208,9.5232 0,0 4.1922,29.3634 -55.7369,32.5327 -26.7878,1.417 -57.6175,-5.2795 -89.1788,-23.5782 -39.0637,-22.628 -79.2558,-63.0174 -114.3255,-127.9738 -63.4237,-117.4347 -4.8761,-311.0425 -4.8761,-311.0425 0,0 -39.727,7.9292 -52.9739,13.4834 -13.2332,5.5511 -29.2635,3.1848 -29.2635,3.1848 0,0 -3.8367,28.5607 -3.8367,38.4614 0,9.931 26.8426,30.5596 34.4954,48.8037 7.6663,18.2504 -20.9134,71.4185 -20.9134,84.1326 0,12.669 -2.7833,54.7342 -9.7453,62.6765 -6.9688,7.9191 -13.2401,38.0768 -36.93,90.45 -23.7103,52.3654 -103.1439,49.1962 -179.8076,12.6924 -76.6638,-36.4963 -80.8424,-76.9713 -80.8424,-76.9713 0,0 -59.2315,67.4481 -149.8329,79.354 -90.6013,11.9058 -135.2044,-52.3732 -135.2044,-52.3732 0,0 -3.4878,19.856 -3.4878,41.2693 0,21.4212 -17.4118,42.0559 -30.6656,66.6461 -13.2332,24.606 -47.0378,75.7876 -53.6578,68.2424 -6.6201,-7.5376 4.1922,-30.952 14.6352,-53.1674 10.4635,-22.2076 12.5493,-33.3269 12.5493,-42.85 0,-9.5153 -6.9756,-15.8614 -6.9756,-15.8614 0,0 -7.6595,8.7366 -20.2089,4.7576 -12.5425,-3.9634 -19.5181,-19.0461 -19.5181,-19.0461 0,0 0,7.1325 -9.7523,7.1325 -9.7522,0 -16.7142,-11.1038 -16.7142,-11.1038 0,0 0,34.9154 0,63.4769 0,28.5771 2.0859,149.9714 2.0859,173.7908 0,23.7882 3.4878,30.1421 11.8449,49.9826 8.3708,19.8404 24.3943,88.8692 24.3943,109.5039 0,20.6269 8.3571,47.5999 20.9064,61.8806 12.5357,14.2808 10.443,26.1944 6.2644,42.0715 -0.01,0.031 -0.021,0.047 -0.027,0.077 -4.2264,15.7368 -21.5767,4.6797 -21.5767,4.6797 0,0 0,14.2808 -9.0546,24.5981 -9.0684,10.3174 -24.4011,0.7864 -24.4011,0.7864 0,0 -6.962,7.9346 -15.3191,17.4656 -8.3776,9.5309 -28.5727,-4.7654 -28.5727,-4.7654 0,0 0,13.4865 -13.9445,20.6268 -13.9445,7.1482 -82.2306,-49.9826 -91.9897,-69.8308 -9.7523,-19.8327 19.5113,-91.2442 25.7894,-109.4961 6.2781,-18.2442 16.721,-61.0944 -16.0303,-230.9139 -13.2469,-68.6784 -29.12,-117.7577 -46.3197,-158.7234 -19.6071,-46.7045 -40.9376,-82.8891 -62.0833,-125.5624 -3.0433,-6.1383 -6.0798,-12.4035 -9.1026,-18.8586 -3.1254,-6.6521 -6.237,-13.499 -9.3282,-20.6012 -45.3075,-103.9302 -23.6967,-164.2403 -23.6967,-164.2403 l -6.9688,-9.5356 c 0,0 -13.9445,85.708 -31.3563,123.0045 -17.4322,37.2912 -50.8812,30.1586 -50.8812,30.1586 0,0 -17.4254,8.9274 -31.534,8.9274 -14.1154,0 -11.1474,-12.6899 -17.2408,-19.6341 -6.1072,-6.9504 -14.6421,0 -27.5401,0 -12.8914,0 -10.1011,-11.5281 -15.6816,-17.8641 -5.5669,-6.3478 -25.7826,0.7941 -25.7826,0.7941 0,0 -16.7279,227.7392 -24.3942,284.8543 -7.6664,57.1542 -27.1777,214.2426 -31.3563,238.8484 -4.1854,24.6059 13.9376,42.8423 22.9923,62.6905 1.5867,3.4651 2.9476,7.1326 4.1308,10.8935 5.5873,17.6835 7.0234,37.3449 7.0234,47.818 0,12.7001 34.1465,73.0001 38.3319,85.6923 4.1854,12.7001 11.1474,30.1656 -0.3556,34.5105 -11.4893,4.3762 -22.6435,-25.7739 -22.6435,-25.7739 l -31.3563,-65.8674 c 0,0 -18.123,20.6347 -30.6723,25.3924 -12.5425,4.7732 -51.572,8.7289 -51.572,8.7289 0,0 16.7279,73 19.5182,90.4576 2.7972,17.4577 13.24,38.8866 -2.4346,43.2472 -15.6884,4.3683 -22.6503,-25.7895 -22.6503,-25.7895 l -36.2392,-105.5405 c 0,0 -16.7279,0 -41.8129,-14.2807 -25.0918,-14.2808 0,-73.7943 0,-73.7943 0,0 -4.883,-11.898 -4.883,-22.2154 0,-6.5486 13.4795,-27.487 26.3502,-47.1794 7.4134,-11.3296 14.6215,-22.2466 18.9574,-29.784 11.8381,-20.6192 24.3874,-161.0829 24.3874,-207.1022 0,-5.4896 -0.5813,-14.0237 -1.5935,-24.746 -0.8344,-8.8923 -1.9695,-19.2797 -3.3305,-30.7651 -10.7781,-90.9716 -35.5006,-249.1874 -35.5006,-249.1874 0,0 -33.4557,69.0312 -96.8658,94.4273 -15.873,6.3618 -32.7172,9.5309 -49.0347,10.7145 -48.8774,3.5507 -93.1318,-10.7145 -93.1318,-10.7145 0,0 -9.7659,37.2826 -13.9445,51.5711 -4.1854,14.2807 -3.481,24.5981 -3.481,37.2904 0,12.7 -5.5805,41.2616 -9.759,62.6905 -4.1786,21.4288 -20.9065,49.1962 -27.8753,49.1962 -6.9688,0 3.4878,-33.3192 6.2713,-44.4386 2.7834,-11.096 0,-14.2808 -3.481,-18.2442 -3.4947,-3.9712 -13.2469,-3.9712 -13.2469,-3.9712 0,0 -5.6147,72.8443 -8.0015,119.689 -0.6429,12.6222 -1.0532,23.3756 -1.0532,30.2823 0,19.1786 2.8997,63.7029 5.2864,97.0453 1.6551,23.2354 3.0707,41.028 3.0707,41.028 0,0 13.9445,15.8614 18.8206,32.5249 4.8693,16.6558 6.2644,73.0001 6.2644,78.552 0,5.5441 20.9064,59.5058 20.9064,65.8597 0,6.3539 -16.721,6.3539 -16.721,6.3539 0,0 0,34.9232 -5.5737,50.7847 -5.5737,15.8692 -22.9991,37.2982 -36.246,43.6364 -13.2401,6.354 -29.2636,-14.2886 -32.047,-17.4577 -2.7903,-3.1692 -14.642,0 -21.604,0 -6.9757,0 -21.6108,-11.8902 -25.7894,-26.9652 -4.1786,-15.075 -18.1162,-17.4655 -24.3943,-17.4655 -6.2644,0 -20.9064,-11.1038 -23.6967,-23.0096 -2.7765,-11.8981 -11.1473,-12.7 -18.1161,-12.7 -6.962,0 -14.6284,-5.552 -18.1162,-30.9521 -3.3784,-24.5669 36.971,-116.7378 46.5385,-130.5825 0.3146,-0.4673 0.6087,-0.8488 0.8549,-1.1213 7.6663,-8.7443 -20.2157,-239.6503 -24.3943,-304.7158 -4.1854,-65.0498 -17.4323,-310.231 -17.4323,-310.231 0,0 -45.9914,3.9541 -81.533,3.9541 -35.5416,0 -68.2929,-21.4289 -68.2929,-21.4289 0,0 -12.5494,30.1523 -24.3943,57.1378 -11.8518,26.9644 -39.0226,72.2097 -39.0226,72.2097 0,0 5.5668,32.5147 8.3639,46.8111 2.7834,14.2759 51.9207,74.9887 65.5028,90.4608 13.5888,15.4643 33.4557,47.6155 33.4557,57.9251 0,10.3094 -4.8761,15.8613 -4.8761,26.9729 0,11.1194 -7.6664,29.3636 -7.6664,42.0559 0,12.7 7.6664,57.1385 12.8913,80.9424 5.2249,23.8039 0,35.297 -10.8054,38.8866 -10.8055,3.5664 -15.3328,-33.3347 -19.5113,-52.3809 -4.1854,-19.0539 -16.7279,-38.8711 -21.6109,-44.4307 -4.8761,-5.5519 -28.5591,-6.3462 -33.4489,-6.3462 -4.8761,0 -11.1474,0 -11.1474,26.1711 0,26.2021 -4.8693,48.4096 -11.8517,48.4096 -6.9688,0 -11.8381,-21.4133 -11.8381,-36.4961 0,-15.0749 -2.0859,-115.8423 -2.0859,-147.5886 0,-31.7462 -29.9748,-89.6633 -29.9748,-89.6633 0,0 -23.0059,37.2903 -29.9679,45.2327 -6.9688,7.9424 -27.8753,72.9922 -27.8753,95.2075 0,22.2233 12.5425,145.2137 12.5425,161.0907 0,15.8614 4.8761,36.4961 -8.3571,36.4961 -13.2469,0 -18.8206,-102.3558 -18.8206,-111.1002 0,-8.7055 -12.2005,-13.8757 -15.3395,-10.3096 -2.0175,2.2971 -5.7583,49.5856 -9.1095,89.5702 -1.8465,22.1685 -3.5767,42.1025 -4.8213,50.8703 -3.4879,24.6059 -22.9992,50.7846 -35.5485,45.2328 -12.5288,-5.5675 -10.443,-26.1867 -10.443,-26.1867 0,0 9.7523,-38.871 13.2333,-56.3365 1.8396,-9.165 6.3601,-38.5206 9.3351,-64.3023 2.6807,-23.2588 4.0964,-43.6054 1.1215,-43.6054 -6.2781,0 -13.2469,32.5327 -13.2469,32.5327 0,0 -0.5266,1.7832 -1.443,4.8511 -5.7242,19.1709 -26.9862,90.2398 -34.7962,114.176 -9.0547,27.7517 -20.2157,43.6287 -33.4489,37.2904 -13.2401,-6.3462 -4.1854,-34.9077 -4.1854,-34.9077 0,0 18.123,-76.1848 31.3699,-125.3809 0.8823,-3.286 1.6619,-6.3073 2.3526,-9.1261 9.7043,-39.3382 1.8191,-34.5182 1.8191,-34.5182 0,0 -4.6231,12.6844 -10.8806,30.2666 -11.9339,33.5061 -29.8175,84.7814 -33.025,99.872 -4.8761,23.0095 -19.5045,42.0557 -34.1396,32.5327 -14.6421,-9.5232 -5.5874,-40.4673 -5.5874,-40.4673 0,0 8.3776,-43.6366 18.8206,-80.1404 2.6809,-9.3597 5.9567,-20.954 9.3419,-33.1167 9.8412,-35.3048 20.6329,-75.4218 20.6329,-79.5565 0,-5.5675 -23.7036,8.7211 -39.727,16.6557 -16.0304,7.9268 -41.8129,6.3539 -60.6335,-6.3462 -18.8206,-12.7001 3.481,-32.5248 19.5113,-32.5248 16.0303,0 34.1533,-7.1405 50.1837,-15.0907 16.0303,-7.9268 60.6266,-56.3287 78.0452,-83.3094 17.4255,-26.9887 85.7253,-106.3231 90.6082,-111.889 4.8762,-5.5512 13.2401,-61.092 13.2401,-61.092 0,0 -6.9688,-7.9447 -13.9445,-27.7704 -6.9688,-19.8466 -26.4733,-81.7297 -26.4733,-81.7297 0,0 -117.7859,112.6693 -170.0486,158.6839 -52.2695,46.0207 -156.4597,116.2673 -156.4597,116.2673 0,0 12.2006,13.868 34.5022,39.2683 22.2946,25.3922 3.4809,30.1499 0,34.1134 -3.4948,3.9711 -20.9065,-23.804 -20.9065,-23.804 0,0 5.5668,28.5616 24.3874,50.0061 18.8206,21.4133 28.5728,46.0036 23.6967,51.5711 -4.8761,5.5518 -43.9055,-42.8578 -43.9055,-42.8578 0,0 17.4185,23.0095 35.5485,49.9903 1.5934,2.3906 2.8654,4.493 3.8776,6.4007 10.5044,19.677 -7.9947,15.1062 -10.8464,11.8514 -0.2463,-0.2881 -0.6019,-0.7164 -0.9985,-1.1992 -4.5958,-5.6609 -18.2325,-23.8739 -23.0471,-29.3557 -5.2317,-5.9491 -17.7742,-20.2299 -17.7742,-20.2299 0,0 9.0615,21.4212 14.9771,34.5262 5.9225,13.0816 -9.4034,10.7066 -12.8844,6.7354 -3.4878,-3.9712 -36.9367,-56.3287 -36.9367,-56.3287 0,0 9.0546,21.421 11.8449,33.3191 2.7903,11.9059 1.3883,18.252 -2.7903,18.252 -4.1785,0 -13.9307,-15.8614 -13.9307,-15.8614 0,0 -20.2089,-43.6521 -23.7036,-57.123 -3.481,-13.4943 -16.721,-46.8369 -16.721,-46.8369 0,0 -15.3328,7.1403 -20.2089,7.1403 -4.8761,0 -22.3016,0.7943 -22.3016,0.7943 0,0 -73.8667,180.9233 -83.6257,208.6984 -9.7591,27.7595 -22.9992,67.4404 -22.9992,78.5519 0,11.1038 20.2089,49.204 25.085,64.2712 4.8761,15.0672 -5.5668,60.3 -5.5668,71.4115 0,11.1116 1.3883,40.4674 4.8693,57.9251 3.481,17.4422 0,36.504 -5.5737,53.9539 -0.4993,1.5728 -0.9712,2.9744 -1.4294,4.3059 -4.6094,13.4009 -7.4953,14.7481 -20.1746,14.7481 -13.9377,0 -6.2713,-21.4367 -6.2713,-30.1656 0,-1.0668 0.1094,-2.3594 0.2941,-3.7921 1.3131,-10.3252 6.6747,-28.725 6.6747,-34.2925 0,-6.3461 -12.5493,-31.7385 -12.5493,-31.7385 0,0 0,19.8405 -9.7591,23.0096 -9.759,3.177 -20.2088,-12.6844 -20.2088,-12.6844 0,0 -0.014,0.016 -0.021,0.024 -0.1231,0.1324 -5.9429,6.7588 -9.7248,11.0804 -3.8367,4.3684 -18.8206,0 -23.7036,-5.5519 -4.8829,-5.5675 -16.721,-10.3252 -16.721,-10.3252 0,0 0,43.6443 0,50.7925 0,7.1405 19.86,22.6047 25.085,28.5615 5.2248,5.9569 19.1624,21.8261 10.4566,31.7386 -8.7128,9.9202 -25.7894,-5.552 -25.7894,-5.552 0,0 -38.3251,-35.7096 -43.2148,-48.4019 -4.8693,-12.7001 -9.0479,-62.6905 -9.0479,-78.5598 0,-4.9056 0.6634,-15.1994 1.785,-29.527 2.5166,-32.0266 7.3381,-84.283 12.1526,-141.8654 -42.5104,3.9713 -60.6334,-136.4691 -60.6334,-136.4691 0,0 -29.9611,27.7672 -44.6031,53.946 -14.6352,26.1944 -24.3875,75.375 -24.3875,88.8771 0,13.4865 -7.6732,69.8075 -3.4946,103.1499 0.9301,7.3585 1.4224,13.7435 1.5661,19.2955 0.5129,19.5913 -3.5631,28.3123 -10.6208,28.3123 -9.0547,0 -6.9688,-23.0097 -6.9688,-32.5327 0,-0.4828 0,-1.2069 -0.014,-2.0712 -0.1983,-15.7292 -2.2157,-89.9594 -4.8556,-104.2636 -2.7902,-15.0672 -10.4635,43.6443 -10.4635,54.7559 0,7.2027 0,26.7082 0,42.5853 0,8.6198 0,16.1963 0,20.1052 0,11.1194 0,24.5902 -13.24,24.5902 -12.8229,0 -11.2568,-40.9578 -11.1474,-43.5196 -0.041,0.7943 -0.5402,5.949 -6.2781,19.7313 -6.2643,15.0673 -19.5126,13.4866 -23.6905,-30.1577 -18.1209,7.9423 -29.2738,-44.4463 -33.4571,-70.6251 -1.8705,-11.7111 -2.0654,-23.4067 -1.7098,-32.774 0.4377,-11.5789 1.7098,-19.607 1.7098,-19.607 0,0 -2.8696,-2.5539 -7.0981,-6.3695 -10.6673,-9.6086 -30.022,-27.1599 -34.0104,-31.715 -5.575,-6.3383 0,-25.3845 0,-38.0846 0,-12.6922 -24.3956,11.9136 -31.3624,19.8405 -6.9722,7.9346 -9.7536,54.7636 -9.7536,62.6748 0,7.9502 0,46.8291 -17.4227,46.8291 -9.4008,0 -12.5077,-11.5477 -13.3816,-26.0387 -0.7503,-12.3808 0.134,-26.9029 0.134,-38.2325 0,-9.344 2.3109,-22.9006 5.1743,-36.1379 4.686,-21.6392 10.8595,-42.414 10.8595,-42.414 0,0 -6.8177,7.7633 -14.8561,18.1195 -8.8154,11.3608 -19.0983,25.8284 -23.471,36.6285 -8.3694,20.6191 -20.9065,34.1134 -33.4572,26.9808 -12.5397,-7.1481 0,-34.9232 9.7509,-57.9328 6.1947,-14.6 28.6487,-48.3552 46.3758,-73.5139 10.2159,-14.5066 18.8711,-26.1711 21.9247,-29.6439 8.3694,-9.5153 31.3651,-21.4133 50.8724,-28.5614 1.0387,-0.3817 2.1207,-0.7943 3.2162,-1.2226 19.4402,-7.4908 46.7122,-20.9929 54.6338,-20.9929 8.3585,0 17.4172,-12.7 17.4172,-12.7 l -45.2937,-153.133 c 0,0 -22.3063,25.3885 -25.7901,29.3613 -1.4156,1.6025 -6.6281,7.5399 -12.3181,14.0129 -8.3161,9.4686 -17.6478,20.1028 -17.6478,20.1028 0,0 10.1038,28.9588 3.4892,36.4884 -6.6227,7.5609 -16.7313,-6.3462 -16.7313,-6.3462 0,0 0,0 4.1834,11.9136 4.1758,11.8981 5.5675,33.327 5.5675,43.6365 0,10.3018 -18.1072,4.7577 -18.1072,4.7577 0,0 0,0 3.1287,10.3096 3.139,10.3407 0,21.0474 -6.62,28.5615 -6.6173,7.5531 -20.2151,-8.7055 -20.2151,-8.7055 l -26.5108,-60.3857 -22.9635,-52.3108 c 0,0 14.6365,65.8752 14.6365,72.2213 0,6.3618 4.8782,36.4961 -7.6643,40.4752 -12.5452,3.9557 -19.5147,-33.327 -19.5147,-33.327 0,0 -16.029,0 -23.6961,0 -7.6697,0 -29.9679,-4.7655 -29.9679,-4.7655 0,0 -28.5762,157.1039 -33.4489,183.2906 -4.8782,26.1865 -6.2699,71.4193 -6.2699,96.8039 0,25.3922 -18.1258,46.0348 -25.7874,54.7558 -1.205,1.3704 -2.185,4.7732 -2.9865,9.5309 -4.2798,25.4234 -3.2888,89.6479 -3.2888,89.6479 0,0 -3.481,22.2153 -13.937,22.2153 -10.4559,0 -10.4559,-23.796 -10.4559,-23.796 l 0.6948,-81.7445 c 0,0 -10.4532,4.7733 -16.0207,4.7733 -5.5806,0 -8.3592,-9.5232 -8.3592,-9.5232 l -5.5832,-6.3539 c 0,0 -12.1952,6.7511 -16.031,2.3906 -3.8312,-4.3684 -6.9648,-17.4499 -6.9648,-17.4499 0,0 0,38.871 0,49.1883 0,10.3095 0,32.5406 -9.7638,35.7097 -9.7509,3.1691 -12.5452,-14.2807 -12.5452,-30.9521 0,-16.6635 -1.3863,-91.244 -1.3863,-96.796 0,-1.4873 3.2136,-6.2839 8.1184,-12.7468 13.5547,-17.8548 40.1408,-48.5499 48.3263,-57.8861 11.1583,-12.6845 10.4559,-30.9364 10.4559,-53.9539 0,-23.0095 2.0948,-199.1675 2.0948,-199.1675 0,0 -6.2754,-7.9268 -21.6095,-25.3922 -15.3314,-17.4578 -58.8841,-77.7538 -70.3816,-136.4732 -11.4927,13.0793 -60.6307,23.0104 -60.6307,23.0104 l 0,39.663 25.0897,-14.2746 c 0,0 -6.2753,18.2442 -10.4586,35.7035 -4.1779,17.4593 0.7023,38.8843 0.7023,38.8843 l 23.6878,-13.4865 c 0,0 0,27.7673 -4.1833,42.85 -0.2859,1.028 -0.556,2.1492 -0.8145,3.3405 -3.548,16.3287 -4.7578,46.65 -4.7578,46.65 0,0 3.4803,-16.6712 10.458,-24.5981 6.9619,-7.9346 22.2961,-13.5021 22.2961,-13.5021 0,0 -12.2006,55.1608 -22.9985,67.456 -9.2913,10.5821 -13.9472,37.0333 -19.9504,60.3778 -0.9724,3.7766 -1.9736,7.4908 -3.0398,11.0259 -7.6726,25.4001 -59.2445,38.8867 -59.2445,38.8867 0,0 53.6667,14.2963 63.4223,25.3923 0.022,0.024 0.043,0.055 0.065,0.077 9.6736,11.0728 6.5401,18.5946 2.0251,23.7338 -1.0074,1.1369 -2.8368,1.3549 -5.0355,1.0434 -7.6588,-1.1057 -20.0522,-8.9858 -20.0522,-8.9858 0,0 -14.6393,0 -25.7846,0 -11.1453,0 4.5334,11.5088 9.7618,17.4577 2.0728,2.3594 15.4647,9.4765 31.456,17.886 24.3075,12.7935 54.6468,28.5771 60.5323,35.2892 9.7556,11.096 0,23.7961 -9.7591,19.8249 -8.7305,16.3364 -47.5678,-11.1662 -55.6404,-17.1385 -0.954,-0.7008 -1.499,-1.1136 -1.499,-1.1136 0,0 -3.494,13.4944 -7.6773,24.606 -4.1759,11.1116 -33.449,21.4133 -39.0275,21.4133 -5.5723,0 -20.204,-7.9346 -40.4157,-19.0306 -13.3975,-7.3583 -40.037,-26.2177 -56.4931,-38.108 -8.3802,-6.0576 -14.1292,-10.3091 -14.1292,-10.3091 l 0,-1099.61818 8140.7896,0 0,1481.30508 c 0,0 -10.805,9.9047 -17.4386,17.4499"
           inkscape:connector-curvature="0"
           inkscape:export-filename="/home/cmaureir/1.png"
           inkscape:export-xdpi="282.39001"
           inkscape:export-ydpi="282.39001" />
        <flowRoot
           xml:space="preserve"
           id="flowRoot3465"
           style="font-size:40px;font-style:normal;font-weight:normal;line-height:125%;letter-spacing:0px;word-spacing:0px;fill:#000000;fill-opacity:1;stroke:none;font-family:Bitstream Vera Sans"
           transform="matrix(27.003314,0,0,-27.003314,6990.5044,16959.506)"
           inkscape:export-filename="/home/cmaureir/1.png"
           inkscape:export-xdpi="282.39001"
           inkscape:export-ydpi="282.39001"><flowRegion
             id="flowRegion3467"><rect
               id="rect3469"
               width="1333.4014"
               height="216.17264"
               x="-98.994949"
               y="424.0473" /></flowRegion><flowPara
             id="flowPara3471"
             style="font-size:40px;font-style:normal;font-variant:normal;font-weight:normal;font-stretch:normal;text-align:start;line-height:125%;writing-mode:lr-tb;text-anchor:start;font-family:Frakturika;-inkscape-font-specification:Frakturika">Music Labs</flowPara></flowRoot>        <flowRoot
           xml:space="preserve"
           id="flowRoot3473"
           style="font-size:40px;font-style:normal;font-weight:normal;line-height:125%;letter-spacing:0px;word-spacing:0px;fill:#000000;fill-opacity:1;stroke:none;font-family:Bitstream Vera Sans"
           transform="matrix(9.5466135,2.0291953,2.0291953,-9.5466135,3158.0839,10387.037)"
           inkscape:export-filename="/home/cmaureir/1.png"
           inkscape:export-xdpi="282.39001"
           inkscape:export-ydpi="282.39001"><flowRegion
             id="flowRegion3475"><rect
               id="rect3477"
               width="1060.6602"
               height="155.56349"
               x="123.23861"
               y="682.64636" /></flowRegion><flowPara
             id="flowPara3479"
             style="font-size:40px;font-style:normal;font-variant:normal;font-weight:normal;font-stretch:normal;text-align:start;line-height:125%;writing-mode:lr-tb;text-anchor:start;fill:#ff0000;font-family:Annie Use Your Telescope;-inkscape-font-specification:Annie Use Your Telescope">tu opcin a la fama!</flowPara></flowRoot>        <rect
           style="opacity:0.63720931;fill:#ffffff;fill-opacity:1;stroke:none"
           id="rect4205"
           width="2084.9548"
           height="4654.7827"
           x="1647.1886"
           y="-5703.0728"
           transform="scale(1,-1)" />
        <g
           transform="matrix(9.3099031,0,0,8.4393888,3540.8596,-2289.8727)"
           inkscape:label="ink_ext_XXXXXX"
           id="g3398"
           style="fill:#000000">
          <g
             transform="scale(0.1,0.1)"
             id="g3400"
             style="fill:#000000">
            <path
               id="path3410"
               style="opacity:0.84186048;fill:#000000;fill-opacity:1;fill-rule:nonzero;stroke:none"
               d="m -1059.98,8145.9544 c 0.6164,112.9117 -34.6529,116.6285 -52.2224,130.8619 -17.5867,14.2082 -52.7321,35.5694 -34.8324,81.3513 17.8493,45.8268 165.50207,560.3273 212.26676,726.0285 46.78221,165.6377 205.63287,168.2863 265.28213,97.356 59.54923,-70.9406 34.13009,-208.4817 -33.1224,-243.3885 -67.24916,-34.9436 -53.27959,-52.6671 -53.42605,-80.923 -0.15463,-28.2136 55.02418,-268.5218 61.88621,-300.3421 6.89305,-31.8327 31.27779,-91.9606 -21.84027,-119.879 -53.06758,-27.9524 -117.14885,-126.465 -117.76453,-235.8652 -0.60661,-109.4324 39.36125,-2188.2512 39.36125,-2188.2512 259.86717,-230.8359 388.77873,100.2037 392.73693,167.2458 3.88139,67.0723 67.70493,119.6261 106.37841,91.1989 145.76162,-107.2127 89.44807,-315.4775 21.66836,-456.3042 l -60.53806,1.3491 c 0,0 77.80402,179.4826 74.47874,255.0908 -2.00024,45.48 -14.55851,124.5957 -55.76539,121.9641 -47.21357,-3.0152 -46.50831,-200.2559 -131.52891,-263.6186 -65.0078,-48.4478 -152.11191,-75.7664 -234.94776,-58.6936 -57.48294,11.8475 -127.7094,25.8038 -159.87431,79.6782 -41.60865,69.6922 -21.64416,250.3071 -21.64416,250.3071 0,0 -16.77192,1570.7154 -20.94323,2021.5593 -0.46972,50.7691 25.33556,98.3858 46.79517,143.3008 22.88706,47.9025 82.6504,77.7823 86.08428,131.7986 8.62575,135.687 -64.85824,330.5969 -60.53097,428.2445 2.34164,52.8404 92.19643,56.1345 106.58762,106.5998 12.55481,44.0257 8.37976,112.136 -27.97572,134.9753 -36.10354,22.6809 -101.74951,-0.1752 -118.67573,-42.0323 -88.21634,-218.1515 -208.17647,-569.6741 -237.26677,-749.5119 -9.0759,-56.1078 93.25964,-110.6305 90.60009,-178.8658 -15.45069,-396.4142 -39.51799,-1978.8303 -39.51799,-1978.8303 0,0 -131.5424,-127.2866 -196.5756,-134.3555 -86.1266,-9.3616 -182.8348,33.0476 -242.5608,102.1387 -66.1495,76.5217 -33.2855,311.6627 -89.6825,301.3929 -60.6279,-11.0404 -32.0916,-222.8722 -24.8485,-334.4403 7.469,-115.0477 69.9119,-337.323 69.9119,-337.323 l -76.1651,0.044 c -149.3247,442.0188 -54.2879,780.7067 30.4161,783.7611 84.7691,3.0828 91.5426,-49.9006 97.939,-166.393 6.4569,-116.5373 111.5411,-258.3276 242.1355,-259.0333 130.6771,-0.7313 127.6635,108.7233 127.6635,108.7233 0,0 39.4564,1750.0633 40.0576,1863.0804 z m -76.0277,317.5832 c -2.1375,-25.713 -21.6871,-45.0659 -43.4971,-43.2426 -21.8724,1.8267 -37.8733,24.2251 -35.6652,49.9815 2.2107,25.7091 21.6927,45.0705 43.5532,43.2132 21.8555,-1.852 37.825,-24.2486 35.6091,-49.9521 z m 29.7302,-32.8203 -60.4479,12.5505 4.6588,22.2944 60.3828,-12.5992 z m 9.8063,159.6527 c -2.1871,-25.7571 -21.6614,-45.0723 -43.5102,-43.1945 -21.8265,1.8084 -37.7923,24.1791 -35.6044,49.9467 2.1856,25.7262 21.684,45.1026 43.5112,43.2156 21.8498,-1.8673 37.7792,-24.2308 35.6034,-49.9678 z m 29.7825,-32.8231 -60.5197,12.586 4.6094,22.2497 60.4695,-12.541 z m 6.1546,159.6768 c -2.163,-25.6959 -21.572,-45.0614 -43.4851,-43.2116 -21.8279,1.8763 -37.731,24.2439 -35.6327,50.0005 2.2211,25.7085 21.7565,45.0882 43.5668,43.1759 21.8148,-1.8288 37.8277,-24.1966 35.551,-49.9648 z m 29.8122,-32.7565 -60.5262,12.56 4.6765,22.2306 60.4527,-12.5666 z m 4.4896,161.4489 c -2.2131,-25.7508 -21.7255,-45.0898 -43.512,-43.2259 -21.8924,1.8486 -37.8055,24.227 -35.6365,49.9381 2.1904,25.7207 21.7115,45.1271 43.5742,43.212 21.8726,-1.8265 37.7848,-24.2149 35.5743,-49.9242 z m 29.69783,-32.8291 -60.43743,12.5502 4.6358,22.2539 60.47654,-12.5053 z m 11.57114,157.8806 c -2.16846,-25.7011 -21.64007,-45.0627 -43.50087,-43.2159 -21.8451,1.8513 -37.8116,24.2115 -35.5978,49.9724 2.1745,25.7163 21.6625,45.0931 43.5647,43.2338 21.83787,-1.8876 37.7419,-24.2343 35.53397,-49.9903 z m 29.83085,-32.7992 -60.55242,12.5563 4.6302,22.2487 60.47007,-12.531 z m 9.71113,166.7274 c -2.16075,-25.7535 -21.63079,-45.084 -43.5377,-43.219 -21.78285,1.8373 -37.72665,24.2277 -35.54555,49.9696 2.1862,25.7368 21.7054,45.1119 43.50034,43.2057 21.85015,-1.8571 37.79488,-24.2264 35.58291,-49.9563 z m 29.75245,-32.8002 -60.45144,12.5875 4.62865,22.2176 60.49078,-12.5323 z"
               inkscape:connector-curvature="0"
               sodipodi:nodetypes="cccccccccccccccssssscssssssssscsssscccccccccccccccccccccccccccccccccccccccccccccccccccccccccccccccccccc" />
          </g>
        </g>
        <text
           xml:space="preserve"
           style="font-size:163.6053772px;font-style:normal;font-weight:normal;line-height:125%;letter-spacing:0px;word-spacing:0px;fill:#000000;fill-opacity:1;stroke:none;font-family:Bitstream Vera Sans"
           x="2656.3103"
           y="-2454.4836"
           id="text3343"
           sodipodi:linespacing="125%"
           transform="scale(1,-1)"><tspan
             sodipodi:role="line"
             id="tspan3345"
             x="2656.3103"
             y="-2454.4836"
             style="text-align:center;text-anchor:middle">Gabriel Zamora</tspan><tspan
             sodipodi:role="line"
             x="2656.3103"
             y="-2249.9768"
             style="text-align:center;text-anchor:middle"
             id="tspan3361">Juan Reyes</tspan><tspan
             sodipodi:role="line"
             x="2656.3103"
             y="-2045.4702"
             style="text-align:center;text-anchor:middle"
             id="tspan3363">Mario Rojas</tspan><tspan
             sodipodi:role="line"
             x="2656.3103"
             y="-1840.9635"
             style="text-align:center;text-anchor:middle"
             id="tspan3365">Javier Olivares</tspan><tspan
             sodipodi:role="line"
             x="2656.3103"
             y="-1636.4568"
             style="text-align:center;text-anchor:middle"
             id="tspan3367">Cristin Maureira</tspan><tspan
             sodipodi:role="line"
             x="2656.3103"
             y="-1431.9501"
             style="text-align:center;text-anchor:middle"
             id="tspan3369">Rodrigo Fernndez</tspan><tspan
             sodipodi:role="line"
             x="2656.3103"
             y="-1227.4434"
             style="text-align:center;text-anchor:middle"
             id="tspan3359">Rudyar Corts</tspan><tspan
             sodipodi:role="line"
             x="2656.3103"
             y="-1022.9366"
             id="tspan3347"
             style="text-align:center;text-anchor:middle" /><tspan
             sodipodi:role="line"
             x="2656.3103"
             y="-818.42987"
             id="tspan3349"
             style="text-align:center;text-anchor:middle" /><tspan
             sodipodi:role="line"
             x="2656.3103"
             y="-613.92316"
             id="tspan3351"
             style="text-align:center;text-anchor:middle" /><tspan
             sodipodi:role="line"
             x="2656.3103"
             y="-409.41644"
             id="tspan3353"
             style="text-align:center;text-anchor:middle" /><tspan
             sodipodi:role="line"
             x="2656.3103"
             y="-204.90971"
             id="tspan3355"
             style="text-align:center;text-anchor:middle" /><tspan
             sodipodi:role="line"
             x="2656.3103"
             y="-0.40298462"
             id="tspan3357"
             style="text-align:center;text-anchor:middle" /></text>
      </g>
    </g>
  </g>
</svg>
