<?xml version="1.0" encoding="UTF-8" standalone="no"?>
<!-- Created with Inkscape (http://www.inkscape.org/) -->

<svg
   xmlns:dc="http://purl.org/dc/elements/1.1/"
   xmlns:cc="http://creativecommons.org/ns#"
   xmlns:rdf="http://www.w3.org/1999/02/22-rdf-syntax-ns#"
   xmlns:svg="http://www.w3.org/2000/svg"
   xmlns="http://www.w3.org/2000/svg"
   xmlns:sodipodi="http://sodipodi.sourceforge.net/DTD/sodipodi-0.dtd"
   xmlns:inkscape="http://www.inkscape.org/namespaces/inkscape"
   width="1052.3622"
   height="744.09448"
   id="svg2"
   version="1.1"
   inkscape:version="0.48.1 r9760"
   sodipodi:docname="music-labs.svg">
  <defs
     id="defs4">
    <linearGradient
       id="linearGradient3224"
       spreadMethod="pad"
       gradientTransform="matrix(-3.1e-5,719,570.053,2.5e-5,622.314,0)"
       gradientUnits="userSpaceOnUse"
       y2="0"
       x2="1"
       y1="0"
       x1="0">
      <stop
         id="stop3226"
         offset="0"
         style="stop-opacity:1;stop-color:#ffffff" />
      <stop
         id="stop3228"
         offset="1"
         style="stop-opacity:1;stop-color:#bdbcbd" />
    </linearGradient>
    <linearGradient
       id="linearGradient3216"
       spreadMethod="pad"
       gradientTransform="matrix(-2.8e-5,648,570.053,2.5e-5,622.314,0)"
       gradientUnits="userSpaceOnUse"
       y2="0"
       x2="1"
       y1="0"
       x1="0">
      <stop
         id="stop3218"
         offset="0"
         style="stop-opacity:1;stop-color:#ffffff" />
      <stop
         id="stop3220"
         offset="1"
         style="stop-opacity:1;stop-color:#bdbcbd" />
    </linearGradient>
    <clipPath
       id="clipPath3212"
       clipPathUnits="userSpaceOnUse">
      <path
         id="path3214"
         d="m 6243.14,0 5660.56,2072.54 0,2658.12 L 6243.14,0"
         inkscape:connector-curvature="0" />
    </clipPath>
    <linearGradient
       id="linearGradient3200"
       spreadMethod="pad"
       gradientTransform="matrix(-4.3e-5,987,440.154,1.9e-5,622.314,0)"
       gradientUnits="userSpaceOnUse"
       y2="0"
       x2="1"
       y1="0"
       x1="0">
      <stop
         id="stop3202"
         offset="0"
         style="stop-opacity:1;stop-color:#ffffff" />
      <stop
         id="stop3204"
         offset="1"
         style="stop-opacity:1;stop-color:#bdbcbd" />
    </linearGradient>
    <linearGradient
       id="linearGradient3192"
       spreadMethod="pad"
       gradientTransform="matrix(-2.8e-5,648,440.154,1.9e-5,622.314,0)"
       gradientUnits="userSpaceOnUse"
       y2="0"
       x2="1"
       y1="0"
       x1="0">
      <stop
         id="stop3194"
         offset="0"
         style="stop-opacity:1;stop-color:#ffffff" />
      <stop
         id="stop3196"
         offset="1"
         style="stop-opacity:1;stop-color:#bdbcbd" />
    </linearGradient>
    <clipPath
       id="clipPath3188"
       clipPathUnits="userSpaceOnUse">
      <path
         id="path3190"
         d="M 8425,6480 6243.14,0 10604.7,6480 8425,6480"
         inkscape:connector-curvature="0" />
    </clipPath>
    <linearGradient
       id="linearGradient3176"
       spreadMethod="pad"
       gradientTransform="matrix(-4.3e-5,995,235.848,1e-5,403.706,0)"
       gradientUnits="userSpaceOnUse"
       y2="0"
       x2="1"
       y1="0"
       x1="0">
      <stop
         id="stop3178"
         offset="0"
         style="stop-opacity:1;stop-color:#ffffff" />
      <stop
         id="stop3180"
         offset="1"
         style="stop-opacity:1;stop-color:#bdbcbd" />
    </linearGradient>
    <linearGradient
       id="linearGradient3168"
       spreadMethod="pad"
       gradientTransform="matrix(-2.8e-5,648,235.848,1e-5,403.706,0)"
       gradientUnits="userSpaceOnUse"
       y2="0"
       x2="1"
       y1="0"
       x1="0">
      <stop
         id="stop3170"
         offset="0"
         style="stop-opacity:1;stop-color:#ffffff" />
      <stop
         id="stop3172"
         offset="1"
         style="stop-opacity:1;stop-color:#bdbcbd" />
    </linearGradient>
    <clipPath
       id="clipPath3164"
       clipPathUnits="userSpaceOnUse">
      <path
         id="path3166"
         d="M 4057.06,6480 6243.14,0 l 132.4,6480 -2318.48,0"
         inkscape:connector-curvature="0" />
    </clipPath>
    <linearGradient
       id="linearGradient3152"
       spreadMethod="pad"
       gradientTransform="matrix(-4.2e-5,951,628.315,2.7e-5,-2,0)"
       gradientUnits="userSpaceOnUse"
       y2="0"
       x2="1"
       y1="0"
       x1="0">
      <stop
         id="stop3154"
         offset="0"
         style="stop-opacity:1;stop-color:#ffffff" />
      <stop
         id="stop3156"
         offset="1"
         style="stop-opacity:1;stop-color:#bdbcbd" />
    </linearGradient>
    <linearGradient
       id="linearGradient3144"
       spreadMethod="pad"
       gradientTransform="matrix(-2.8e-5,648,628.315,2.7e-5,-2,0)"
       gradientUnits="userSpaceOnUse"
       y2="0"
       x2="1"
       y1="0"
       x1="0">
      <stop
         id="stop3146"
         offset="0"
         style="stop-opacity:1;stop-color:#ffffff" />
      <stop
         id="stop3148"
         offset="1"
         style="stop-opacity:1;stop-color:#bdbcbd" />
    </linearGradient>
    <clipPath
       id="clipPath3140"
       clipPathUnits="userSpaceOnUse">
      <path
         id="path3142"
         d="M 0,6480 0,5470.55 6243.14,0 1163.66,6480 0,6480"
         inkscape:connector-curvature="0" />
    </clipPath>
    <linearGradient
       id="linearGradient3128"
       spreadMethod="pad"
       gradientTransform="matrix(-1.7e-5,387,628.315,2.7e-5,-2,0)"
       gradientUnits="userSpaceOnUse"
       y2="0"
       x2="1"
       y1="0"
       x1="0">
      <stop
         id="stop3130"
         offset="0"
         style="stop-opacity:1;stop-color:#ffffff" />
      <stop
         id="stop3132"
         offset="1"
         style="stop-opacity:1;stop-color:#bdbcbd" />
    </linearGradient>
    <linearGradient
       id="linearGradient3120"
       spreadMethod="pad"
       gradientTransform="matrix(-2.8e-5,648,628.315,2.7e-5,-2,0)"
       gradientUnits="userSpaceOnUse"
       y2="0"
       x2="1"
       y1="0"
       x1="0">
      <stop
         id="stop3122"
         offset="0"
         style="stop-opacity:1;stop-color:#ffffff" />
      <stop
         id="stop3124"
         offset="1"
         style="stop-opacity:1;stop-color:#bdbcbd" />
    </linearGradient>
    <clipPath
       id="clipPath3116"
       clipPathUnits="userSpaceOnUse">
      <path
         id="path3118"
         d="M 0,806.023 6243.14,0 0,2877.43 0,806.023"
         inkscape:connector-curvature="0" />
    </clipPath>
    <linearGradient
       id="linearGradient3104"
       spreadMethod="pad"
       gradientTransform="matrix(-2.8e-5,648,570.053,2.5e-5,622.314,0)"
       gradientUnits="userSpaceOnUse"
       y2="0"
       x2="1"
       y1="0"
       x1="0">
      <stop
         id="stop3106"
         offset="0"
         style="stop-opacity:1;stop-color:#ffffff" />
      <stop
         id="stop3108"
         offset="1"
         style="stop-opacity:1;stop-color:#bdbcbd" />
    </linearGradient>
    <clipPath
       id="clipPath3100"
       clipPathUnits="userSpaceOnUse">
      <path
         id="path3102"
         d="m 11903.7,6480 -1299,0 L 6243.14,0 l 5660.56,4730.66 0,1749.34"
         inkscape:connector-curvature="0" />
    </clipPath>
    <linearGradient
       id="linearGradient3088"
       spreadMethod="pad"
       gradientTransform="matrix(-2.8e-5,648,570.053,2.5e-5,622.314,0)"
       gradientUnits="userSpaceOnUse"
       y2="0"
       x2="1"
       y1="0"
       x1="0">
      <stop
         id="stop3090"
         offset="0"
         style="stop-opacity:1;stop-color:#ffffff" />
      <stop
         id="stop3092"
         offset="1"
         style="stop-opacity:1;stop-color:#bdbcbd" />
    </linearGradient>
    <clipPath
       id="clipPath3084"
       clipPathUnits="userSpaceOnUse">
      <path
         id="path3086"
         d="m 11903.7,0 0,2072.54 L 6243.14,0 11903.7,0"
         inkscape:connector-curvature="0" />
    </clipPath>
    <linearGradient
       id="linearGradient3072"
       spreadMethod="pad"
       gradientTransform="matrix(-2.8e-5,648,628.315,2.7e-5,-2,0)"
       gradientUnits="userSpaceOnUse"
       y2="0"
       x2="1"
       y1="0"
       x1="0">
      <stop
         id="stop3074"
         offset="0"
         style="stop-opacity:1;stop-color:#ffffff" />
      <stop
         id="stop3076"
         offset="1"
         style="stop-opacity:1;stop-color:#bdbcbd" />
    </linearGradient>
    <clipPath
       id="clipPath3068"
       clipPathUnits="userSpaceOnUse">
      <path
         id="path3070"
         d="M 0,0 6243.14,0 0,806.023 0,0"
         inkscape:connector-curvature="0" />
    </clipPath>
    <linearGradient
       id="linearGradient3056"
       spreadMethod="pad"
       gradientTransform="matrix(-2.8e-5,648,222.186,1e-5,622.314,0)"
       gradientUnits="userSpaceOnUse"
       y2="0"
       x2="1"
       y1="0"
       x1="0">
      <stop
         id="stop3058"
         offset="0"
         style="stop-opacity:1;stop-color:#ffffff" />
      <stop
         id="stop3060"
         offset="1"
         style="stop-opacity:1;stop-color:#bdbcbd" />
    </linearGradient>
    <clipPath
       id="clipPath3052"
       clipPathUnits="userSpaceOnUse">
      <path
         id="path3054"
         d="M 6375.54,6480 6243.14,0 8425,6480 l -2049.46,0"
         inkscape:connector-curvature="0" />
    </clipPath>
    <linearGradient
       id="linearGradient3040"
       spreadMethod="pad"
       gradientTransform="matrix(-2.8e-5,648,511.949,2.2e-5,114.366,0)"
       gradientUnits="userSpaceOnUse"
       y2="0"
       x2="1"
       y1="0"
       x1="0">
      <stop
         id="stop3042"
         offset="0"
         style="stop-opacity:1;stop-color:#ffffff" />
      <stop
         id="stop3044"
         offset="1"
         style="stop-opacity:1;stop-color:#bdbcbd" />
    </linearGradient>
    <clipPath
       id="clipPath3036"
       clipPathUnits="userSpaceOnUse">
      <path
         id="path3038"
         d="M 1163.66,6480 6243.14,0 4057.06,6480 l -2893.4,0"
         inkscape:connector-curvature="0" />
    </clipPath>
    <linearGradient
       id="linearGradient3024"
       spreadMethod="pad"
       gradientTransform="matrix(-2.8e-5,648,628.315,2.7e-5,-2,0)"
       gradientUnits="userSpaceOnUse"
       y2="0"
       x2="1"
       y1="0"
       x1="0">
      <stop
         id="stop3026"
         offset="0"
         style="stop-opacity:1;stop-color:#ffffff" />
      <stop
         id="stop3028"
         offset="1"
         style="stop-opacity:1;stop-color:#bdbcbd" />
    </linearGradient>
    <clipPath
       id="clipPath3020"
       clipPathUnits="userSpaceOnUse">
      <path
         id="path3022"
         d="M 0,2877.43 6243.14,0 0,5470.55 0,2877.43"
         inkscape:connector-curvature="0" />
    </clipPath>
  </defs>
  <sodipodi:namedview
     id="base"
     pagecolor="#ffffff"
     bordercolor="#666666"
     borderopacity="1.0"
     inkscape:pageopacity="0.0"
     inkscape:pageshadow="2"
     inkscape:zoom="0.49497475"
     inkscape:cx="375"
     inkscape:cy="439.1878"
     inkscape:document-units="px"
     inkscape:current-layer="g3014"
     showgrid="false"
     inkscape:window-width="1280"
     inkscape:window-height="757"
     inkscape:window-x="0"
     inkscape:window-y="0"
     inkscape:window-maximized="1" />
  <metadata
     id="metadata7">
    <rdf:RDF>
      <cc:Work
         rdf:about="">
        <dc:format>image/svg+xml</dc:format>
        <dc:type
           rdf:resource="http://purl.org/dc/dcmitype/StillImage" />
        <dc:title></dc:title>
      </cc:Work>
    </rdf:RDF>
  </metadata>
  <g
     inkscape:label="Layer 1"
     inkscape:groupmode="layer"
     id="layer1"
     transform="translate(0,-308.2677)">
    <g
       transform="matrix(1.25,0,0,-1.25,-169.69553,1094.505)"
       inkscape:label="ink_ext_XXXXXX"
       id="g3012">
      <g
         transform="scale(0.1,0.1)"
         id="g3014">
        <g
           id="g3016"
           transform="matrix(0.68388734,0,0,0.68388734,1438.4572,840.44692)"
           inkscape:export-filename="/home/cmaureir/1.png"
           inkscape:export-xdpi="282.39001"
           inkscape:export-ydpi="282.39001">
          <g
             clip-path="url(#clipPath3020)"
             id="g3018">
            <path
               id="path3030"
               style="fill:url(#linearGradient3024);fill-opacity:1;fill-rule:nonzero;stroke:none"
               d="M 0,2877.43 6243.14,0 0,5470.55 0,2877.43"
               inkscape:connector-curvature="0" />
          </g>
        </g>
        <g
           id="g3032"
           transform="matrix(0.68388734,0,0,0.68388734,1438.4572,840.44692)"
           inkscape:export-filename="/home/cmaureir/1.png"
           inkscape:export-xdpi="282.39001"
           inkscape:export-ydpi="282.39001">
          <g
             clip-path="url(#clipPath3036)"
             id="g3034">
            <path
               id="path3046"
               style="fill:url(#linearGradient3040);fill-opacity:1;fill-rule:nonzero;stroke:none"
               d="M 1163.66,6480 6243.14,0 4057.06,6480 l -2893.4,0"
               inkscape:connector-curvature="0" />
          </g>
        </g>
        <g
           id="g3048"
           transform="matrix(0.68388734,0,0,0.68388734,1438.4572,840.44692)"
           inkscape:export-filename="/home/cmaureir/1.png"
           inkscape:export-xdpi="282.39001"
           inkscape:export-ydpi="282.39001">
          <g
             clip-path="url(#clipPath3052)"
             id="g3050">
            <path
               id="path3062"
               style="fill:url(#linearGradient3056);fill-opacity:1;fill-rule:nonzero;stroke:none"
               d="M 6375.54,6480 6243.14,0 8425,6480 l -2049.46,0"
               inkscape:connector-curvature="0" />
          </g>
        </g>
        <g
           id="g3064"
           transform="matrix(0.68388734,0,0,0.68388734,1438.4572,840.44692)"
           inkscape:export-filename="/home/cmaureir/1.png"
           inkscape:export-xdpi="282.39001"
           inkscape:export-ydpi="282.39001">
          <g
             clip-path="url(#clipPath3068)"
             id="g3066">
            <path
               id="path3078"
               style="fill:url(#linearGradient3072);fill-opacity:1;fill-rule:nonzero;stroke:none"
               d="M 0,0 6243.14,0 0,806.023 0,0"
               inkscape:connector-curvature="0" />
          </g>
        </g>
        <g
           id="g3080"
           transform="matrix(0.68388734,0,0,0.68388734,1438.4572,840.44692)"
           inkscape:export-filename="/home/cmaureir/1.png"
           inkscape:export-xdpi="282.39001"
           inkscape:export-ydpi="282.39001">
          <g
             clip-path="url(#clipPath3084)"
             id="g3082">
            <path
               id="path3094"
               style="fill:url(#linearGradient3088);fill-opacity:1;fill-rule:nonzero;stroke:none"
               d="m 11903.7,0 0,2072.54 L 6243.14,0 11903.7,0"
               inkscape:connector-curvature="0" />
          </g>
        </g>
        <g
           id="g3096"
           transform="matrix(0.68388734,0,0,0.68388734,1438.4572,840.44692)"
           inkscape:export-filename="/home/cmaureir/1.png"
           inkscape:export-xdpi="282.39001"
           inkscape:export-ydpi="282.39001">
          <g
             clip-path="url(#clipPath3100)"
             id="g3098">
            <path
               id="path3110"
               style="fill:url(#linearGradient3104);fill-opacity:1;fill-rule:nonzero;stroke:none"
               d="m 11903.7,6480 -1299,0 L 6243.14,0 l 5660.56,4730.66 0,1749.34"
               inkscape:connector-curvature="0" />
          </g>
        </g>
        <g
           id="g3112"
           transform="matrix(0.68388734,0,0,0.68388734,1438.4572,840.44692)"
           inkscape:export-filename="/home/cmaureir/1.png"
           inkscape:export-xdpi="282.39001"
           inkscape:export-ydpi="282.39001">
          <g
             clip-path="url(#clipPath3116)"
             id="g3114">
            <path
               id="path3126"
               style="fill:url(#linearGradient3120);fill-opacity:1;fill-rule:nonzero;stroke:none"
               d="M 0,806.023 6243.14,0 0,2877.43 0,806.023"
               inkscape:connector-curvature="0" />
            <path
               id="path3134"
               style="fill:url(#linearGradient3128);fill-opacity:1;fill-rule:nonzero;stroke:none"
               d="M 0,806.023 6243.14,0 0,2877.43 0,806.023"
               inkscape:connector-curvature="0" />
          </g>
        </g>
        <g
           id="g3136"
           transform="matrix(0.68388734,0,0,0.68388734,1438.4572,840.44692)"
           inkscape:export-filename="/home/cmaureir/1.png"
           inkscape:export-xdpi="282.39001"
           inkscape:export-ydpi="282.39001">
          <g
             clip-path="url(#clipPath3140)"
             id="g3138">
            <path
               id="path3150"
               style="fill:url(#linearGradient3144);fill-opacity:1;fill-rule:nonzero;stroke:none"
               d="M 0,6480 0,5470.55 6243.14,0 1163.66,6480 0,6480"
               inkscape:connector-curvature="0" />
            <path
               id="path3158"
               style="fill:url(#linearGradient3152);fill-opacity:1;fill-rule:nonzero;stroke:none"
               d="M 0,6480 0,5470.55 6243.14,0 1163.66,6480 0,6480"
               inkscape:connector-curvature="0" />
          </g>
        </g>
        <g
           id="g3160"
           transform="matrix(0.68388734,0,0,0.68388734,1438.4572,840.44692)"
           inkscape:export-filename="/home/cmaureir/1.png"
           inkscape:export-xdpi="282.39001"
           inkscape:export-ydpi="282.39001">
          <g
             clip-path="url(#clipPath3164)"
             id="g3162">
            <path
               id="path3174"
               style="fill:url(#linearGradient3168);fill-opacity:1;fill-rule:nonzero;stroke:none"
               d="M 4057.06,6480 6243.14,0 l 132.4,6480 -2318.48,0"
               inkscape:connector-curvature="0" />
            <path
               id="path3182"
               style="fill:url(#linearGradient3176);fill-opacity:1;fill-rule:nonzero;stroke:none"
               d="M 4057.06,6480 6243.14,0 l 132.4,6480 -2318.48,0"
               inkscape:connector-curvature="0" />
          </g>
        </g>
        <g
           id="g3184"
           transform="matrix(0.68388734,0,0,0.68388734,1438.4572,840.44692)"
           inkscape:export-filename="/home/cmaureir/1.png"
           inkscape:export-xdpi="282.39001"
           inkscape:export-ydpi="282.39001">
          <g
             clip-path="url(#clipPath3188)"
             id="g3186">
            <path
               id="path3198"
               style="fill:url(#linearGradient3192);fill-opacity:1;fill-rule:nonzero;stroke:none"
               d="M 8425,6480 6243.14,0 10604.7,6480 8425,6480"
               inkscape:connector-curvature="0" />
            <path
               id="path3206"
               style="fill:url(#linearGradient3200);fill-opacity:1;fill-rule:nonzero;stroke:none"
               d="M 8425,6480 6243.14,0 10604.7,6480 8425,6480"
               inkscape:connector-curvature="0" />
          </g>
        </g>
        <g
           id="g3208"
           transform="matrix(0.68388734,0,0,0.68388734,1438.4572,840.44692)"
           inkscape:export-filename="/home/cmaureir/1.png"
           inkscape:export-xdpi="282.39001"
           inkscape:export-ydpi="282.39001">
          <g
             clip-path="url(#clipPath3212)"
             id="g3210">
            <path
               id="path3222"
               style="fill:url(#linearGradient3216);fill-opacity:1;fill-rule:nonzero;stroke:none"
               d="m 6243.14,0 5660.56,2072.54 0,2658.12 L 6243.14,0"
               inkscape:connector-curvature="0" />
            <path
               id="path3230"
               style="fill:url(#linearGradient3224);fill-opacity:1;fill-rule:nonzero;stroke:none"
               d="m 6243.14,0 5660.56,2072.54 0,2658.12 L 6243.14,0"
               inkscape:connector-curvature="0" />
          </g>
        </g>
        <path
           id="path3240"
           style="fill:#404040;fill-opacity:1;fill-rule:nonzero;stroke:none"
           d="m 2921.2754,1755.7001 c -2.9612,-1.2241 -5.9908,-2.4619 -9.0615,-3.734 6.2576,-15.4421 10.8806,-26.5826 10.8806,-26.5826 0,0 7.8852,-4.2333 -1.8191,30.3166"
           inkscape:connector-curvature="0"
           inkscape:export-filename="/home/cmaureir/1.png"
           inkscape:export-xdpi="282.39001"
           inkscape:export-ydpi="282.39001" />
        <path
           id="path3242"
           style="fill:#404040;fill-opacity:1;fill-rule:nonzero;stroke:none"
           d="m 2690.3335,1645.9363 c 0,0 39.0295,42.5172 43.9056,37.6411 4.8761,-4.8898 -4.8761,-26.4869 -23.6967,-45.2938 -18.8206,-18.8343 -24.3875,-43.9193 -24.3875,-43.9193 0,0 17.4118,24.3943 20.9065,20.9065 3.481,-3.481 22.2947,-7.6596 0,-29.9612 -22.3016,-22.3084 -34.5022,-34.4884 -34.5022,-34.4884 0,0 104.1903,-61.6962 156.4598,-102.1153 52.2627,-40.4137 170.0486,-139.3687 170.0486,-139.3687 0,0 19.5044,54.3505 26.4732,71.7814 6.9757,17.4125 13.9445,24.3902 13.9445,24.3902 0,0 -8.3639,48.7803 -13.2401,53.6558 -4.8829,4.8884 -73.1827,74.5663 -90.6082,98.2698 -17.4186,23.6967 -62.0148,66.2071 -78.0451,73.1691 -16.0304,6.9825 -34.1534,13.2537 -50.1837,13.2537 -16.0303,0 -38.3319,17.4118 -19.5113,28.566 18.8206,11.1542 44.6031,12.5357 60.6335,5.5737 16.0234,-6.9688 39.727,-19.5181 39.727,-14.6283 0,3.6314 -10.7918,38.8653 -20.633,69.8727 -20.1473,-8.6306 -38.1198,-16.6321 -48.1387,-21.8023 -29.7492,-15.3602 -68.1494,-16.3176 -83.5028,-17.275 -2.0447,-0.1299 -4.1306,0.3693 -6.2233,1.2993 -1.0121,-1.6754 -2.2842,-3.5219 -3.8776,-5.6215 -18.1299,-23.6967 -35.5485,-43.9055 -35.5485,-43.9055"
           inkscape:connector-curvature="0"
           inkscape:export-filename="/home/cmaureir/1.png"
           inkscape:export-xdpi="282.39001"
           inkscape:export-ydpi="282.39001" />
        <path
           id="path3244"
           style="fill:#404040;fill-opacity:1;fill-rule:nonzero;stroke:none"
           d="m 2423.4122,2013.9018 c 9.7591,-2.7834 9.7591,-20.2089 9.7591,-20.2089 0,0 12.5493,22.3016 12.5493,27.8753 0,4.8898 -5.3616,21.0501 -6.6747,30.1184 -0.212,-0.1436 -0.4308,-0.2941 -0.636,-0.4376 -17.8973,-12.3579 -28.7233,-30.2416 -35.227,-48.4671 0.01,-0.01 0.021,-0.021 0.021,-0.021 0,0 10.4498,13.9308 20.2088,11.1405"
           inkscape:connector-curvature="0"
           inkscape:export-filename="/home/cmaureir/1.png"
           inkscape:export-xdpi="282.39001"
           inkscape:export-ydpi="282.39001" />
        <path
           id="path3246"
           style="fill:#404040;fill-opacity:1;fill-rule:nonzero;stroke:none"
           d="m 2472.2008,2017.3896 c -3.481,-15.3327 -4.8693,-41.1153 -4.8693,-50.8744 0,-9.759 10.4429,-49.486 5.5668,-62.7192 -4.8761,-13.2332 -25.085,-46.6958 -25.085,-56.4481 0,-9.759 13.2401,-44.6099 22.9992,-68.9905 9.759,-24.3943 83.6257,-183.2955 83.6257,-183.2955 0,0 17.4255,-0.6976 22.3016,-0.6976 4.8761,0 20.2089,-6.2712 20.2089,-6.2712 0,0 13.24,29.284 16.721,41.1358 3.4947,11.8313 23.7036,50.17 23.7036,50.17 0,0 9.7522,13.9308 13.9307,13.9308 4.1786,0 5.5806,-5.5737 2.7903,-16.0304 -2.7903,-10.4498 -11.8449,-29.2635 -11.8449,-29.2635 0,0 33.4489,45.9846 36.9367,49.4724 3.481,3.4878 18.807,5.5737 12.8844,-5.9156 -5.9156,-11.5098 -14.9771,-30.3236 -14.9771,-30.3236 0,0 12.5425,12.5425 17.7742,17.7674 4.8147,4.8146 18.4514,20.8107 23.0471,25.7825 -8.7606,9.5197 -15.5311,21.9802 -15.5311,21.9802 0,0 0,11.5235 2.8792,23.047 2.8791,11.5098 -2.8792,50.8675 -2.8792,50.8675 0,0 16.3175,5.7652 24.9551,20.161 8.6442,14.3959 19.1967,51.825 23.9976,69.1137 4.8009,17.2749 -13.4385,13.4384 -13.4385,13.4384 0,0 -2.8791,65.2771 -10.5591,97.9053 -7.6801,32.635 -62.3911,95.9904 -117.1089,106.5497 -45.7452,8.8289 -98.2063,-11.209 -145.032,-39.3236 0.4582,-1.1694 0.9301,-2.4004 1.4293,-3.7819 5.5737,-15.3259 9.0547,-32.0675 5.5737,-47.3866"
           inkscape:connector-curvature="0"
           inkscape:export-filename="/home/cmaureir/1.png"
           inkscape:export-xdpi="282.39001"
           inkscape:export-ydpi="282.39001" />
        <path
           id="path3248"
           style="fill:#404040;fill-opacity:1;fill-rule:nonzero;stroke:none"
           d="m 2974.6733,1738.6304 c 2.975,0 1.5593,17.87 -1.1215,38.2976 -1.7029,-0.6907 -3.4469,-1.402 -5.2728,-2.1337 -1.9627,-0.7864 -4.8077,-1.9217 -8.2955,-3.3305 0.9164,-2.6945 1.4429,-4.2606 1.4429,-4.2606 0,0 6.9688,-28.5728 13.2469,-28.5728"
           inkscape:connector-curvature="0"
           inkscape:export-filename="/home/cmaureir/1.png"
           inkscape:export-xdpi="282.39001"
           inkscape:export-ydpi="282.39001" />
        <path
           id="path3250"
           style="fill:#404040;fill-opacity:1;fill-rule:nonzero;stroke:none"
           d="m 3848.5993,1903.0984 c -4.3359,6.62 -11.544,16.2082 -18.9574,26.1587 -20.4687,-42.3053 6.3876,-93.0292 6.3876,-93.0292 0,0 -19.1968,1.9217 -23.0403,-13.4383 -3.8365,-15.3534 19.2036,-47.031 28.7986,-52.7893 9.6017,-5.7652 21.1184,-8.6444 21.1184,-8.6444 0,0 5.7652,-26.87 6.7227,-33.5925 0.465,-3.3032 1.1694,-16.1193 1.7643,-28.2925 1.0122,9.4172 1.5935,16.9126 1.5935,21.734 0,40.4178 -12.5493,163.7842 -24.3874,181.8935"
           inkscape:connector-curvature="0"
           inkscape:export-filename="/home/cmaureir/1.png"
           inkscape:export-xdpi="282.39001"
           inkscape:export-ydpi="282.39001" />
        <path
           id="path3252"
           style="fill:#404040;fill-opacity:1;fill-rule:nonzero;stroke:none"
           d="m 3955.9149,1903.796 c 4.1786,-21.6109 23.6899,-159.5783 31.3563,-209.7756 7.6663,-50.1632 24.3942,-250.1818 24.3942,-250.1818 0,0 20.2157,-6.2726 25.7826,-0.6975 5.5805,5.5648 2.7902,15.6898 15.6815,15.6898 12.8981,0 21.433,-6.1044 27.5402,0 6.0933,6.0989 3.1253,17.2442 17.2407,17.2442 14.1086,0 31.5341,-7.8408 31.5341,-7.8408 0,0 33.4489,6.2644 50.8812,-26.4877 17.4117,-32.7568 31.3562,-108.0323 31.3562,-108.0323 l 6.9688,8.3749 c 0,0 -21.6108,52.9691 23.6967,144.2489 3.0912,6.2378 6.2028,12.2512 9.3283,18.0937 -18.6565,19.6221 -66.3303,70.8452 -85.4381,101.4218 -23.9976,38.3935 -157.424,65.277 -157.424,65.277 l -7.68,43.1876 c 0,0 9.5949,18.2392 14.4026,25.9193 4.7941,7.6801 2.8723,41.2726 2.8723,41.2726 0,0 3.8434,3.8502 8.6443,11.5234 4.8009,7.6801 10.5593,29.7561 15.3534,47.0379 4.8009,17.275 -10.5525,19.1967 -10.5525,19.1967 0,0 -6.7225,77.7512 -38.4002,102.7062 -3.0091,2.373 -6.5107,4.5204 -10.4156,6.449 -1.1831,-3.3032 -2.5441,-6.5242 -4.1307,-9.5675 -9.0547,-17.4324 -27.1777,-33.4489 -22.9923,-55.0598"
           inkscape:connector-curvature="0"
           inkscape:export-filename="/home/cmaureir/1.png"
           inkscape:export-xdpi="282.39001"
           inkscape:export-ydpi="282.39001" />
        <path
           id="path3254"
           style="fill:#404040;fill-opacity:1;fill-rule:nonzero;stroke:none"
           d="m 3026.2452,1751.8636 c 0,7.68 5.5737,97.577 18.8206,97.577 13.2332,0 8.3571,-18.123 8.3571,-32.0538 0,-13.9444 -12.5425,-121.9644 -12.5425,-141.4826 0,-19.5113 20.9065,-76.6433 27.8753,-83.6189 6.962,-6.9757 29.9679,-39.727 29.9679,-39.727 0,0 29.9748,50.8675 29.9748,78.7496 0,27.8821 2.0859,116.384 2.0859,129.624 0,13.2469 4.8693,32.0538 11.8381,32.0538 6.9824,0 11.8517,-19.5044 11.8517,-42.5172 0,-22.9855 6.2713,-22.9855 11.1474,-22.9855 4.8898,0 28.5728,0.6976 33.4489,5.5737 4.883,4.8829 17.4255,22.2879 21.6109,39.0226 4.1785,16.7279 8.7058,49.1373 19.5113,46.0051 10.8054,-3.1528 16.0303,-13.2469 10.8054,-34.1533 -5.2249,-20.9065 -12.8913,-59.9359 -12.8913,-71.0901 0,-11.1474 7.6664,-27.1709 7.6664,-36.9368 0,-9.7591 4.8761,-14.6352 4.8761,-23.6898 0,-9.0547 -19.8669,-37.2925 -33.4557,-50.8744 -13.582,-13.5888 -62.7194,-66.9116 -65.5028,-79.45 -2.7971,-12.5561 -8.3639,-41.1132 -8.3639,-41.1132 0,0 27.1708,-39.738 39.0226,-63.4203 11.8449,-23.7008 24.3943,-50.183 24.3943,-50.183 0,0 32.7513,18.8206 68.293,18.8206 35.5416,0 81.533,-3.4727 81.533,-3.4727 0,0 13.2469,215.3376 17.4323,272.4695 4.1786,57.1457 32.0606,259.9456 24.3943,267.6257 -0.2462,0.2393 -0.5403,0.5744 -0.8549,0.9847 -22.7256,-0.3692 -46.8599,-3.6929 -64.5042,-11.5372 -34.55,-15.36 -45.1161,-36.4785 -50.8744,-50.8743 -5.7583,-14.4027 -29.7559,-40.3152 -29.7559,-40.3152 l -36.4786,8.6375 -9.5949,15.3602 c 0,0 12.4809,19.1967 18.2392,26.8767 5.7515,7.6801 8.6375,52.7961 8.6375,52.7961 0,0 5.7583,7.6801 9.6018,16.3175 3.8366,8.6376 1.9149,38.3935 1.9149,38.3935 0,0 8.6375,-4.8009 14.4026,-4.8009 5.7584,0 16.3176,5.7583 17.2751,37.436 0.9574,31.6776 -32.6352,63.3622 -32.6352,63.3622 0,0 -3.8434,22.069 -5.7583,32.6283 -1.9217,10.5591 -36.4785,54.7177 -78.7155,55.6752 -42.2368,0.9574 -103.6704,-7.68 -136.3056,-39.3508 -32.635,-31.6777 -30.7201,-105.5923 -30.7201,-105.5923 0,0 -10.5525,-2.8791 -16.3176,-16.3176 -5.7583,-13.4383 0.9574,-63.3553 3.8435,-75.8294 2.8791,-12.4809 22.0759,-22.0827 22.0759,-22.0827 l 2.8791,-29.7559 -2.9544,-53.1517 c 3.3511,-35.1177 7.0919,-76.6501 9.1094,-78.6676 3.139,-3.1322 15.3395,1.4088 15.3395,9.0547"
           inkscape:connector-curvature="0"
           inkscape:export-filename="/home/cmaureir/1.png"
           inkscape:export-xdpi="282.39001"
           inkscape:export-ydpi="282.39001" />
        <path
           id="path3256"
           style="fill:#404040;fill-opacity:1;fill-rule:nonzero;stroke:none"
           d="m 3520.0119,1759.4205 c 4.7804,16.7347 13.1853,47.325 18.4444,72.9708 2.7151,13.2332 -4.1785,26.8221 -14.2111,38.8584 -2.3868,-29.284 -5.2864,-68.3887 -5.2864,-85.2328 0,-6.0661 0.4103,-15.5106 1.0531,-26.5964"
           inkscape:connector-curvature="0"
           inkscape:export-filename="/home/cmaureir/1.png"
           inkscape:export-xdpi="282.39001"
           inkscape:export-ydpi="282.39001" />
        <path
           id="path3258"
           style="fill:#404040;fill-opacity:1;fill-rule:nonzero;stroke:none"
           d="m 4558.0435,2038.2892 c -12.5493,-12.5425 -20.9064,-36.2323 -20.9064,-54.3485 0,-18.123 -16.0235,-78.7496 -24.3943,-96.175 -8.3571,-17.4255 -11.8449,-23.006 -11.8449,-43.8987 0,-20.9201 -2.0859,-127.5382 -2.0859,-152.6369 0,-25.085 0,-55.7505 0,-55.7505 0,0 6.962,9.7523 16.7142,9.7523 9.7523,0 9.7523,-6.2644 9.7523,-6.2644 0,0 6.9756,13.2469 19.5181,16.7278 12.5494,3.4947 20.2089,-4.1785 20.2089,-4.1785 0,0 6.9756,5.5737 6.9756,13.9308 0,8.3639 -2.0858,18.1298 -12.5493,37.6343 -10.443,19.5113 -21.2553,40.0757 -14.6352,46.6958 6.62,6.6268 40.4246,-38.325 53.6578,-59.9359 13.2538,-21.5971 30.6656,-39.7201 30.6656,-58.5339 0,-18.8069 3.4878,-36.246 3.4878,-36.246 0,0 44.6031,56.4549 135.2044,45.9983 90.6014,-10.4567 149.8329,-69.695 149.8329,-69.695 0,0 4.1786,35.5484 80.8424,67.6023 76.6637,32.0606 156.0973,34.844 179.8076,-11.1474 23.6899,-45.9983 29.9612,-72.4852 36.93,-79.4404 6.962,-6.9756 9.7453,-43.9206 9.7453,-55.0475 0,-11.1665 28.5797,-57.863 20.9134,-73.8919 -7.6528,-16.0235 -34.4954,-34.1411 -34.4954,-42.8633 0,-8.6956 3.8367,-33.7799 3.8367,-33.7799 0,0 16.0303,2.0783 29.2635,-2.7971 13.2469,-4.8782 52.9739,-11.8422 52.9739,-11.8422 0,0 -58.5476,170.0417 4.8761,273.1822 35.0697,57.0499 75.2618,92.5231 114.3255,112.3968 -5.3139,13.1443 -12.3168,22.4452 -18.8685,44.7468 -9.595,32.6351 -87.3529,62.391 -87.3529,62.391 l 0,14.3959 -27.8342,-14.3959 7.6732,11.5167 -17.275,-8.6443 -0.9575,11.5235 -30.7202,-11.5235 c 0,0 -5.7584,-0.9574 -4.794,17.2886 0.9574,18.2325 22.069,12.4741 22.069,12.4741 0,0 -15.3532,17.275 -25.9125,3.8367 -10.5592,-13.4316 -9.6018,-33.5994 -9.6018,-33.5994 0,0 -13.4383,34.5636 -34.5568,42.2368 -21.1116,7.6801 -57.5902,-18.2324 -57.5902,-18.2324 0,0 32.6352,12.4741 50.8744,5.7583 18.2393,-6.7226 16.3176,-33.5925 16.3176,-33.5925 0,0 -107.5071,5.7515 -178.5424,-35.5211 -71.0355,-41.2794 -54.7111,-137.2699 -54.7111,-137.2699 0,0 -45.116,17.2818 -64.3195,22.0827 -19.1968,4.8009 -72.9503,14.3958 -72.9503,14.3958 l 0.9574,20.1543 c 0,0 4.8009,8.6443 11.5167,18.246 6.7226,9.595 24.9619,62.3911 29.7628,87.3461 4.794,24.9619 12.4809,28.7985 20.1541,60.483 7.68,31.664 -14.3958,19.1899 -13.4383,26.87 0.9642,7.68 4.8008,38.4003 4.8008,38.4003 0,0 44.1586,16.3106 41.2795,47.9952 -2.8792,31.6708 -45.1161,40.3151 -45.1161,40.3151 0,0 -7.68,27.8343 -16.3176,48.9526 -8.6443,21.1185 -71.0353,35.5144 -103.6704,29.756 -32.642,-5.7515 -90.2321,-36.4786 -90.2321,-36.4786 l -7.6801,3.8435 -23.0401,0 -3.8367,0.9643 -19.2035,10.5524 -9.5949,0 -18.2393,2.8791 -21.4331,-8.5759 c 0.01,-0.027 0.02,-0.041 0.027,-0.068 4.1786,-13.9445 6.2713,-24.408 -6.2644,-36.9505"
           inkscape:connector-curvature="0"
           inkscape:export-filename="/home/cmaureir/1.png"
           inkscape:export-xdpi="282.39001"
           inkscape:export-ydpi="282.39001" />
        <path
           id="path3260"
           style="fill:#404040;fill-opacity:1;fill-rule:nonzero;stroke:none"
           d="m 3832.5621,1453.5943 c 0,0 24.7225,138.9578 35.5006,218.8562 -9.3282,-5.3069 -31.5819,-18.0819 -49.3082,-29.154 -23.0334,-14.4027 -84.4738,-43.2012 -118.0732,-76.8006 -5.136,-5.136 -9.8001,-12.2279 -14.0197,-20.5576 16.3176,-1.0396 33.1617,-3.823 49.0347,-9.4104 63.4101,-22.3049 96.8658,-82.9336 96.8658,-82.9336"
           inkscape:connector-curvature="0"
           inkscape:export-filename="/home/cmaureir/1.png"
           inkscape:export-xdpi="282.39001"
           inkscape:export-ydpi="282.39001" />
        <path
           id="path3262"
           style="fill:#404040;fill-opacity:1;fill-rule:nonzero;stroke:none"
           d="m 1561.3484,1761.6227 c 11.1453,0 25.7846,0 25.7846,0 0,0 12.3934,6.9209 20.0523,7.892 -1.8486,10.4772 -3.7485,18.2735 -4.6191,23.1496 -15.9913,-7.386 -29.3831,-13.6367 -31.456,-15.7089 -5.2284,-5.2249 -20.9071,-15.3327 -9.7618,-15.3327"
           inkscape:connector-curvature="0"
           inkscape:export-filename="/home/cmaureir/1.png"
           inkscape:export-xdpi="282.39001"
           inkscape:export-ydpi="282.39001" />
        <path
           id="path3264"
           style="fill:#404040;fill-opacity:1;fill-rule:nonzero;stroke:none"
           d="m 1628.9438,1521.1952 -23.6878,11.8449 c 0,0 -4.8802,-18.8171 -0.7023,-34.1513 4.1833,-15.3341 10.4586,-31.3576 10.4586,-31.3576 l -25.0897,12.5371 0,-34.8352 c 0,0 49.1379,-8.7223 60.6307,-20.2096 11.4975,51.572 55.0502,104.5288 70.3815,119.8616 15.3341,15.3395 21.6095,22.3015 21.6095,22.3015 0,0 -2.0948,154.7159 -2.0948,174.9247 0,20.2158 0.7024,36.2461 -10.4559,47.3866 -8.1854,8.1998 -34.7716,35.1587 -48.3263,50.8402 -9.0402,-13.9513 -13.889,-26.9725 -15.9803,-35.781 -4.8009,-20.161 -12.4837,-51.8387 -8.6395,-73.9214 -9.5956,-13.4384 -10.5627,-26.8767 6.7184,-64.3059 17.2764,-37.436 43.1944,-24.9619 43.1944,-24.9619 0,0 0.9622,-9.5949 1.9238,-16.3176 0.956,-6.7157 2.8771,-16.3106 2.8771,-16.3106 0,0 -0.9615,-7.6802 -8.6396,-39.3647 -7.6753,-31.6708 -27.839,-38.3933 -27.839,-38.3933 l -36.4758,3.8365 c 0,0 -7.7259,17.7469 -14.8609,26.9452 0.2585,-1.0463 0.5287,-2.0311 0.8146,-2.9339 4.1833,-13.2469 4.1833,-37.6343 4.1833,-37.6343"
           inkscape:connector-curvature="0"
           inkscape:export-filename="/home/cmaureir/1.png"
           inkscape:export-xdpi="282.39001"
           inkscape:export-ydpi="282.39001" />
        <path
           id="path3266"
           style="fill:#404040;fill-opacity:1;fill-rule:nonzero;stroke:none"
           d="m 1546.7091,1725.3835 c 0,0 51.5719,-11.845 59.2445,-34.1534 1.0661,-3.1048 2.0673,-6.3669 3.0398,-9.6838 0.3584,2.9133 0.7003,5.8404 1.0183,8.7742 2.369,22.1375 1.7925,41.4368 0.184,57.4329 -0.021,-0.021 -0.043,-0.048 -0.065,-0.068 -9.7556,-9.7453 -63.4223,-22.3015 -63.4223,-22.3015"
           inkscape:connector-curvature="0"
           inkscape:export-filename="/home/cmaureir/1.png"
           inkscape:export-xdpi="282.39001"
           inkscape:export-ydpi="282.39001" />
        <path
           id="path3268"
           style="fill:#404040;fill-opacity:1;fill-rule:nonzero;stroke:none"
           d="m 1549.4952,1865.4573 c 5.5785,0 34.8516,-9.0478 39.0275,-18.8069 4.1833,-9.7591 7.6773,-21.6109 7.6773,-21.6109 0,0 0.545,0.3624 1.499,0.9779 -3.2457,22.7735 -6.8874,48.6108 -6.8874,48.6108 l 26.8774,-7.6801 -18.2378,23.9977 15.358,-4.8009 c 0,0 -15.358,13.4383 -20.1555,24.9618 -4.8009,11.5099 -8.6423,40.3083 -25.9214,66.2277 -17.2764,25.9193 -116.1459,81.5946 -116.1459,81.5946 l 0,-243.6554 c 16.4561,10.4429 43.0956,27.0067 56.4931,33.4695 20.2117,9.7454 34.8434,16.7142 40.4157,16.7142"
           inkscape:connector-curvature="0"
           inkscape:export-filename="/home/cmaureir/1.png"
           inkscape:export-xdpi="282.39001"
           inkscape:export-ydpi="282.39001" />
        <path
           id="path3270"
           style="fill:#404040;fill-opacity:1;fill-rule:nonzero;stroke:none"
           d="m 2078.4424,1542.4983 -7.678,-36.4765 c 0,0 -24.9564,-1.9155 -41.276,5.757 -1.4991,0.7078 -3.2752,1.4559 -5.1722,2.2171 5.6899,-5.6851 10.9025,-10.8998 12.3181,-12.3072 3.4838,-3.4892 25.7901,-25.7874 25.7901,-25.7874 l 45.2939,134.4933 c 0,0 -9.0588,11.1542 -17.4173,11.1542 -7.9214,0 -35.1935,11.8586 -54.6337,18.4376 0.6306,-15.6268 4.2312,-35.733 11.0995,-61.967 10.5633,-40.3152 31.6756,-35.5211 31.6756,-35.5211"
           inkscape:connector-curvature="0"
           inkscape:export-filename="/home/cmaureir/1.png"
           inkscape:export-xdpi="282.39001"
           inkscape:export-ydpi="282.39001" />
        <path
           id="path3272"
           style="fill:#404040;fill-opacity:1;fill-rule:nonzero;stroke:none"
           d="m 1805.9639,1850.1314 c 0,-22.2948 1.3917,-62.0218 6.2699,-85.0209 4.8727,-22.9992 33.4489,-160.9803 33.4489,-160.9803 0,0 22.2982,4.1854 29.9679,4.1854 7.6671,0 23.6961,0 23.6961,0 0,0 6.9695,32.7446 19.5147,29.2704 12.5425,-3.4947 7.6643,-29.9611 7.6643,-35.5485 0,-5.5737 -14.6365,-63.4305 -14.6365,-63.4305 l 22.9636,45.9435 c 5.0914,12.0706 14.2495,34.1533 21.6813,45.3007 9.6011,14.3959 7.6827,34.5568 4.8029,45.1093 -0.8603,3.1732 -1.3835,9.547 -1.6831,17.2202 -17.727,22.0964 -40.1811,51.7429 -46.3758,64.5658 -9.7508,20.2089 -22.2906,44.6032 -9.7508,50.8813 12.5507,6.2644 25.0877,-5.5874 33.4571,-23.6967 4.3728,-9.4856 14.6557,-22.1922 23.471,-32.1702 0.9753,5.7379 2.5058,13.2264 3.9967,21.3374 -2.8635,11.626 -5.1743,23.5325 -5.1743,31.7392 0,9.9505 -0.8843,22.705 -0.1341,33.5788 -8.0705,11.0175 -17.9705,17.9794 -17.9705,17.9794 0,0 -19.1919,46.0667 -66.2304,53.7468 -35.0013,5.7172 -64.1622,6.6268 -97.7527,-3.5494 0.8014,-4.1786 1.7815,-7.1672 2.9864,-8.3708 7.6616,-7.6595 25.7874,-25.7894 25.7874,-48.0909"
           inkscape:connector-curvature="0"
           inkscape:export-filename="/home/cmaureir/1.png"
           inkscape:export-xdpi="282.39001"
           inkscape:export-ydpi="282.39001" />
        <path
           id="path3274"
           style="fill:#404040;fill-opacity:1;fill-rule:nonzero;stroke:none"
           d="m 2170.4492,1845.2484 c 2.6398,12.563 4.6573,77.758 4.8556,91.5725 -5.3343,-1.8875 -10.4361,-3.9256 -15.3191,-6.0798 0,-13.9445 0,-31.0758 0,-37.4017 0,-9.7591 7.6733,-61.3242 10.4635,-48.091"
           inkscape:connector-curvature="0"
           inkscape:export-filename="/home/cmaureir/1.png"
           inkscape:export-xdpi="282.39001"
           inkscape:export-ydpi="282.39001" />
        <path
           id="path3276"
           style="fill:#404040;fill-opacity:1;fill-rule:nonzero;stroke:none"
           d="m 2070.4628,1831.8032 c -0.5799,-2.0312 -1.1168,-4.076 -1.6167,-6.1345 -1.3541,-5.5532 -2.5988,-11.1269 -3.7717,-16.6801 4.2286,3.3512 7.0982,5.5943 7.0982,5.5943 0,0 -1.2721,7.0509 -1.7098,17.2203"
           inkscape:connector-curvature="0"
           inkscape:export-filename="/home/cmaureir/1.png"
           inkscape:export-xdpi="282.39001"
           inkscape:export-ydpi="282.39001" />
        <path
           id="path3278"
           style="fill:#404040;fill-opacity:1;fill-rule:nonzero;stroke:none"
           d="m 2194.8366,1834.8054 c 0,-11.8585 9.7523,-55.0529 24.3875,-78.0589 14.642,-22.9923 44.6031,-47.3797 44.6031,-47.3797 0,0 18.123,123.346 60.6334,119.8581 -4.8146,50.5735 -9.636,96.4691 -12.1526,124.5975 -10.7371,0.8617 -22.452,1.1215 -35.1655,0.4787 -32.389,-1.1626 -60.2711,-5.3548 -84.2344,-11.9544 -0.1437,-4.8762 -0.636,-10.484 -1.5661,-16.9467 -4.1786,-29.2841 3.4946,-78.7496 3.4946,-90.5946"
           inkscape:connector-curvature="0"
           inkscape:export-filename="/home/cmaureir/1.png"
           inkscape:export-xdpi="282.39001"
           inkscape:export-ydpi="282.39001" />
        <path
           id="path3280"
           style="fill:#404040;fill-opacity:1;fill-rule:nonzero;stroke:none"
           d="m 8092.7494,1401.3282 c 3.1459,-3.139 13.9445,9.7639 21.604,27.1736 1.826,4.1492 5.2796,12.1766 9.465,21.9808 -6.196,4.3195 -11.8928,8.2949 -16.7074,11.6336 -8.3365,-30.2805 -15.8456,-59.3108 -14.3616,-60.788"
           inkscape:connector-curvature="0"
           inkscape:export-filename="/home/cmaureir/1.png"
           inkscape:export-xdpi="282.39001"
           inkscape:export-ydpi="282.39001" />
        <path
           id="path3282"
           style="fill:#404040;fill-opacity:1;fill-rule:nonzero;stroke:none"
           d="m 8147.8092,1334.4221 c 8.0083,8.0139 32.0401,20.2041 43.208,20.2041 11.1474,0 64.1076,0.01 54.3554,-24.3798 -9.7591,-24.3956 -50.1768,-19.5202 -50.1768,-19.5202 l -21.604,-21.5985 c 0,0 52.6114,6.6035 59.2451,13.2318 5.3617,5.3747 24.9414,16.2477 32.1496,20.1665 -24.7773,33.2273 -57.2073,67.4354 -70.9944,77.907 -7.9331,6.0374 -21.7681,15.962 -36.7179,26.541 -12.7408,-36.1366 -24.8046,-73.5179 -24.8046,-81.4045 0,-13.9342 7.3244,-19.1536 15.3396,-11.1474"
           inkscape:connector-curvature="0"
           inkscape:export-filename="/home/cmaureir/1.png"
           inkscape:export-xdpi="282.39001"
           inkscape:export-ydpi="282.39001" />
        <path
           id="path3284"
           style="fill:#404040;fill-opacity:1;fill-rule:nonzero;stroke:none"
           d="m 8067.596,1486.0256 -5.3411,3.9139 c -3.864,-19.8088 -7.1466,-37.0476 -7.1466,-37.0476 l 12.4877,33.1337"
           inkscape:connector-curvature="0"
           inkscape:export-filename="/home/cmaureir/1.png"
           inkscape:export-xdpi="282.39001"
           inkscape:export-ydpi="282.39001" />
        <path
           id="path3286"
           style="fill:#404040;fill-opacity:1;fill-rule:nonzero;stroke:none"
           d="m 8027.9442,1651.5168 c 13.5274,-29.5097 18.3624,-73.6547 19.313,-83.6463 0.4377,-0.068 0.8686,-0.1299 1.3336,-0.1983 3.0843,4.8829 11.8723,17.1724 18.3692,10.6755 3.6383,-3.6383 6.1208,-7.2834 7.3655,-11.8655 13.9786,1.4431 28.4292,6.7227 35.1996,18.253 9.6018,16.3243 -29.7627,78.7154 -29.7627,78.7154 0,0 13.4452,95.9836 3.8503,127.6681 -9.6018,31.6709 -50.8812,89.261 -133.4333,98.8696 -9.2872,1.0805 -18.1435,1.7097 -26.6032,2.0038 6.3191,-16.9536 13.3837,-33.7431 20.7286,-47.4344 20.9133,-39.0295 68.293,-159.5988 83.6394,-193.0409"
           inkscape:connector-curvature="0"
           inkscape:export-filename="/home/cmaureir/1.png"
           inkscape:export-xdpi="282.39001"
           inkscape:export-ydpi="282.39001" />
        <path
           id="path3288"
           style="fill:#404040;fill-opacity:1;fill-rule:nonzero;stroke:none"
           d="m 8620.3001,1699.6009 c 5.266,-5.2249 12.1732,-12.2006 12.1732,-12.2006 0,0 7.3859,9.4172 17.0972,6.6201 9.7796,-2.7903 16.0713,-17.4118 16.0713,-17.4118 0,0 -3.5562,16.7211 4.8556,16.7211 8.3435,0 16.003,-12.5494 16.003,-12.5494 0,0 -2.804,19.5182 -2.804,27.8821 0,8.364 -15.661,15.6815 -25.7825,25.7826 -3.0775,3.0843 -7.044,6.2985 -10.8054,9.5743 -3.2143,-8.2066 -4.8556,-13.3836 -4.8556,-13.3836 0,0 -6.7021,0.9643 -35.4938,-9.5881 -1.9149,-0.6975 -3.8297,-1.4156 -5.7446,-2.1679 7.3859,-7.3723 16.3449,-16.3586 19.2856,-19.2788"
           inkscape:connector-curvature="0"
           inkscape:export-filename="/home/cmaureir/1.png"
           inkscape:export-xdpi="282.39001"
           inkscape:export-ydpi="282.39001" />
        <path
           id="path3290"
           style="fill:#404040;fill-opacity:1;fill-rule:nonzero;stroke:none"
           d="m 8711.5991,1715.6312 c 0,-11.8517 0,-11.8517 0,-11.8517 0,0 2.12,-22.9992 6.2917,-39.727 4.1718,-16.7143 -3.4878,-98.9517 -3.4878,-98.9517 0,0 7.6596,-13.9308 12.5152,-18.8206 4.9239,-4.8761 9.0956,-17.4255 9.0956,-17.4255 0,0 33.3054,228.4663 47.5302,322.3298 -7.8647,0.6976 -15.9346,1.1626 -24.1412,1.361 -50.3341,1.231 -84.1181,-48.8569 -102.036,-85.1987 12.2416,-4.1717 25.8509,-13.5615 30.5697,-18.2598 7.6596,-7.6732 23.6626,-21.6177 23.6626,-33.4558"
           inkscape:connector-curvature="0"
           inkscape:export-filename="/home/cmaureir/1.png"
           inkscape:export-xdpi="282.39001"
           inkscape:export-ydpi="282.39001" />
        <path
           id="path3292"
           style="fill:#404040;fill-opacity:1;fill-rule:nonzero;stroke:none"
           d="m 4293.9057,1609.6902 c -22.6162,-23.8335 -30.433,-63.2185 -33.1275,-88.6953 21.1457,37.4791 42.4762,69.2593 62.0833,110.2789 -11.8381,-6.9689 -21.9733,-14.2113 -28.9558,-21.5836"
           inkscape:connector-curvature="0"
           inkscape:export-filename="/home/cmaureir/1.png"
           inkscape:export-xdpi="282.39001"
           inkscape:export-ydpi="282.39001" />
        <path
           id="path3294"
           style="fill:#404040;fill-opacity:1;fill-rule:nonzero;stroke:none"
           d="m 7888.5543,1643.1597 c 31.3563,-55.7505 52.2627,-101.0581 48.7817,-123.3617 -3.4878,-22.2927 -57.8364,-107.317 -57.8364,-107.317 0,0 23.3343,-23.3478 30.31,-30.3208 6.9619,-6.964 13.582,-22.6483 13.582,-22.6483 0,0 24.401,151.9324 24.401,173.5282 0,21.604 -59.929,223.7064 -66.2003,255.0695 -6.2712,31.3631 -17.4391,89.1995 -17.4391,89.1995 0,0 -4.2743,2.9133 -10.7712,7.6048 -24.3669,-6.6064 -38.9679,-16.4065 -42.3873,-23.7241 -6.7158,-14.4027 -35.5211,-45.1229 -46.0735,-69.1137 -10.5593,-23.9976 -7.68,-40.3152 -7.68,-40.3152 0,0 -0.9575,-19.2035 -6.7158,-38.3933 -0.034,-0.1163 -0.055,-0.2325 -0.082,-0.3352 62.22,-5.6352 113.792,-26.6511 138.111,-69.8727"
           inkscape:connector-curvature="0"
           inkscape:export-filename="/home/cmaureir/1.png"
           inkscape:export-xdpi="282.39001"
           inkscape:export-ydpi="282.39001" />
        <path
           id="path3296"
           style="fill:#404040;fill-opacity:1;fill-rule:nonzero;stroke:none"
           d="m 9255.2214,1634.7821 c 0,11.8586 0.6839,43.2148 12.5151,39.7202 11.8313,-3.4742 11.8313,-19.5114 11.8313,-43.1944 0,-23.6967 3.4876,-57.8364 3.4876,-57.8364 0,0 3.4875,13.2401 13.2671,13.2401 9.7115,0 9.7115,-7.6732 9.7115,-7.6732 0,0 8.4119,5.5737 13.9511,0 5.6082,-5.5669 10.4635,-20.2089 10.4635,-20.2089 0,0 7.6598,37.6343 7.6598,45.3007 0,7.6596 -14.6349,39.727 0,39.727 14.635,0 23.7307,-41.1221 23.7307,-50.1836 0,-9.0615 1.3678,-54.3622 -13.951,-77.3538 -15.3189,-22.9876 -44.932,-46.6966 -44.932,-52.6135 0,-5.9225 0,-15.6898 0,-15.6898 0,0 48.4195,4.8754 91.6413,4.8754 43.1537,0 84.3229,-17.4227 84.3229,-17.4227 0,0 -56.4889,303.1612 -67.6363,361.7019 -11.1474,58.5408 -27.834,90.6014 -34.81,97.5702 -6.3602,6.3465 -18.1914,23.4163 -0.9572,46.1829 -58.9511,3.228 -109.7638,-14.8677 -156.3369,-49.9784 -58.5406,-44.1587 -51.838,-140.1491 -52.7961,-160.3101 -0.9573,-20.1542 17.3023,-27.8342 17.3023,-27.8342 0,0 0,0 -12.5143,-4.7941 -12.447,-4.8009 -25.9194,-48.9595 -1.9154,-90.2389 24.005,-41.2726 45.1364,-25.9125 45.1364,-25.9125 0,0 -0.9573,-6.7157 6.7025,-54.7178 0.3415,-1.997 0.6158,-3.9926 0.9573,-5.9881 12.6523,18.5579 26.8767,36.975 26.8767,36.975 0,0 6.2921,64.812 6.2921,76.657"
           inkscape:connector-curvature="0"
           inkscape:export-filename="/home/cmaureir/1.png"
           inkscape:export-xdpi="282.39001"
           inkscape:export-ydpi="282.39001" />
        <path
           id="path3298"
           style="fill:#404040;fill-opacity:1;fill-rule:nonzero;stroke:none"
           d="m 8908.1483,1622.944 c 0,0 11.4897,2.0927 11.4897,-11.4961 0,-13.5889 0,-13.5889 0,-13.5889 0,0 20.0379,-2.5851 24.8251,-14.9908 3.077,4.8077 5.5392,9.3829 6.907,13.3836 7.6598,22.0759 -12.5152,36.4786 -12.5152,36.4786 0,0 7.728,38.4002 11.5579,69.1137 3.8299,30.7133 0,39.3577 -24.0049,81.5945 -5.8126,10.2584 -14.0195,19.484 -24.2778,27.6222 0.6155,-46.6821 1.0942,-91.0048 1.0942,-106.5838 0,-36.2323 4.924,-81.533 4.924,-81.533"
           inkscape:connector-curvature="0"
           inkscape:export-filename="/home/cmaureir/1.png"
           inkscape:export-xdpi="282.39001"
           inkscape:export-ydpi="282.39001" />
        <path
           id="path3300"
           style="fill:#404040;fill-opacity:1;fill-rule:nonzero;stroke:none"
           d="m 7384.0028,1576.9457 c 0,0 3.8229,-26.8289 8.3502,-31.3631 4.5342,-4.5273 46.7095,-30.6655 70.3926,-43.2025 23.6967,-12.5473 41.1153,-42.5077 41.1153,-42.5077 l 4.1785,4.1806 -4.8761,48.0862 c 0,0 -63.41,16.7155 -68.2998,40.4191 -4.8693,23.683 -11.8313,87.7975 4.8898,93.378 16.7278,5.5805 39.7202,2.7902 39.7202,2.7902 l -6.2781,32.7651 c 0,0 -19.8533,48.426 -11.1474,57.1388 8.7127,8.6921 16.3791,1.0463 16.3791,1.0463 0,0 -12.2005,28.2172 1.7371,33.0933 13.9444,4.8898 21.604,-27.1708 21.604,-27.1708 0,0 -2.0859,16.0235 8.3639,17.4254 10.4635,1.3815 21.604,-32.765 21.604,-32.765 0,0 2.4415,10.8054 9.0684,4.1854 4.4863,-4.4795 13.1169,-21.7613 18.2324,-34.1739 -2.845,14.471 -15.7226,40.3562 -51.3736,85.0892 -5.9019,7.4066 -12.9187,15.0387 -20.9201,22.7051 -12.1801,-24.3395 -23.389,-46.8121 -26.0903,-53.3979 -6.2713,-15.3464 -76.6501,-177.7218 -76.6501,-177.7218"
           inkscape:connector-curvature="0"
           inkscape:export-filename="/home/cmaureir/1.png"
           inkscape:export-xdpi="282.39001"
           inkscape:export-ydpi="282.39001" />
        <path
           id="path3302"
           style="fill:#404040;fill-opacity:1;fill-rule:nonzero;stroke:none"
           d="m 7018.8206,1772.77 c 0,0 3.652,28.0872 8.8974,68.2999 -18.7454,-20.7424 -31.7598,-42.8319 -40.6093,-61.7824 7.7075,-6.4628 14.6284,-9.9916 21.946,-9.9916 9.7659,0 9.7659,3.4741 9.7659,3.4741"
           inkscape:connector-curvature="0"
           inkscape:export-filename="/home/cmaureir/1.png"
           inkscape:export-xdpi="282.39001"
           inkscape:export-ydpi="282.39001" />
        <path
           id="path3304"
           style="fill:#404040;fill-opacity:1;fill-rule:nonzero;stroke:none"
           d="m 6095.4086,1672.4232 c -0.7181,-0.7249 -2.0175,-1.5456 -3.6247,-2.4141 -1.5318,-9.5334 -3.816,-21.1526 -6.5515,-32.9018 11.1951,5.0266 26.3228,11.0858 39.4534,13.7051 24.3942,4.8829 47.3934,-0.6907 47.3934,-0.6907 l 32.0674,71.0832 c 0,0 11.1406,20.2089 23.6831,14.642 12.5425,-5.5873 3.4878,-29.2703 3.4878,-29.2703 0,0 -25.0987,-66.9184 -25.0987,-75.2687 0,-8.3639 17.4255,-16.7347 17.4255,-27.1777 0,-10.4566 -25.4338,-35.8972 -38.3251,-48.7817 -12.8912,-12.9049 -45.9914,-18.8206 -54.3622,-34.8529 -8.3503,-16.0365 -41.7992,-87.805 -48.7817,-124.7376 -6.9756,-36.9457 -20.2157,-103.8518 -20.2157,-103.8518 0,0 24.7431,-19.8621 32.0743,-27.1687 7.3108,-7.3327 19.1558,-19.1674 19.1558,-19.1674 0,0 31.0005,31.0151 42.8455,35.8905 11.8654,4.8754 32.7718,16.7231 32.7718,16.7231 0,0 -23.0059,95.472 32.0402,134.5069 55.0734,39.0247 186.0858,98.9612 186.0858,98.9612 l -34.8441,68.2999 c 0,0 -15.3396,21.5971 6.2781,33.4489 21.5971,11.8313 36.9367,-18.8274 42.5036,-31.3631 5.5805,-12.5493 65.5095,-115.6994 69.0042,-112.2047 3.4741,3.4994 -3.4947,36.9429 -9.7591,52.9596 -6.2712,16.0371 -27.882,87.8111 -27.882,87.8111 0,0 -6.627,24.0454 11.1542,26.487 17.7605,2.4483 32.0468,-29.968 32.0468,-29.968 0,0 -4.8623,47.4003 -4.8623,54.3691 0,6.9619 -41.129,52.2626 -26.4938,66.9047 14.6283,14.6283 23.6967,5.5668 23.6967,5.5668 0,0 6.6268,21.9527 18.1298,25.7894 5.7788,1.9286 10.8533,0.6702 14.4779,-1.0464 -12.6793,9.6565 -30.2142,24.8867 -30.2142,24.8867 l 6.7158,52.8029 c 0,0 34.5568,10.5524 42.2369,16.3039 7.6801,5.7652 5.7583,14.4027 8.6443,39.3645 2.8723,24.9552 23.0334,47.031 30.7134,65.2703 7.6869,18.2393 3.8366,50.8812 -10.5592,70.0779 -14.4027,19.1967 -12.4741,30.7134 -15.3601,50.8744 -2.8792,20.1541 -23.0401,27.8342 -30.7203,37.4291 -7.68,9.6086 -38.3933,14.4027 -47.0309,10.5661 -8.6443,-3.8434 -47.0309,2.8724 -66.2344,6.7157 -19.1968,3.8367 -56.6327,-7.6732 -84.4738,-0.9574 -27.841,6.7227 -64.3127,-47.0377 -72.9435,-60.4693 -8.6442,-13.4452 18.2325,-62.4047 11.5099,-107.5139 -6.7158,-45.1161 -1.9217,-45.1161 0.9642,-68.1562 2.8724,-23.0334 31.6709,-31.6708 37.4293,-44.1518 5.7651,-12.4809 42.2436,-6.7158 42.2436,-6.7158 l -4.8008,-57.6038 -19.2036,-9.595 c 0,0 -7.68,5.7584 -16.3176,6.7227 -8.6374,0.9574 -22.0759,3.8366 -38.3934,-12.481 -16.3175,-16.3175 -53.7535,-26.8767 -82.552,-37.4359 -21.604,-7.9195 -59.4162,-37.9968 -78.5719,-62.6578 0.5745,-0.4104 1.149,-0.8822 1.7029,-1.4362 8.3708,-8.3707 -5.5668,-13.9376 -9.759,-18.123"
           inkscape:connector-curvature="0"
           inkscape:export-filename="/home/cmaureir/1.png"
           inkscape:export-xdpi="282.39001"
           inkscape:export-ydpi="282.39001" />
        <path
           id="path3306"
           style="fill:#404040;fill-opacity:1;fill-rule:nonzero;stroke:none"
           d="m 7240.4343,1705.1746 c 17.4254,-23.683 51.5788,-64.8188 51.5788,-64.8188 0,0 94.7594,149.1421 117.0747,182.5911 8.1314,12.1936 14.5804,20.7833 19.7438,29.4413 -64.9693,40.2604 -155.4339,70.796 -253.8179,60.1 9.8753,-69.1821 23.6077,-150.1611 23.6077,-150.1611 0,0 24.3943,-33.4558 41.8129,-57.1525"
           inkscape:connector-curvature="0"
           inkscape:export-filename="/home/cmaureir/1.png"
           inkscape:export-xdpi="282.39001"
           inkscape:export-ydpi="282.39001" />
        <path
           id="path3308"
           style="fill:#404040;fill-opacity:1;fill-rule:nonzero;stroke:none"
           d="m 6673.1497,1737.9396 c 0,-18.1298 -38.325,-94.0824 -38.325,-106.6317 0,-12.5357 0,-32.7582 0,-32.7582 0,0 32.0606,-13.2537 32.0606,-27.1845 0,-13.9308 9.0547,-144.9527 9.0547,-144.9527 0,0 99.6492,149.1449 115.6864,182.5938 16.0303,33.4558 35.5416,128.2289 60.6266,161.671 1.2174,1.6209 2.4141,3.1049 3.6041,4.5342 -4.5547,16.1329 -11.2021,43.2148 -8.6102,56.2155 3.8435,19.2036 4.8077,26.8836 10.5661,42.2369 5.7515,15.3601 3.8366,47.9952 3.8366,47.9952 0,0 12.4809,14.4027 20.1541,19.2035 7.687,4.7941 16.3244,49.9102 22.0828,66.2277 5.7652,16.3244 -9.5949,6.7158 -9.5949,6.7158 0,0 8.6374,80.6371 4.794,122.8741 -3.8434,42.2368 -73.9077,72.9571 -117.102,82.5452 -43.2012,9.6086 -94.0755,-18.2325 -119.0306,-82.5452 -24.9619,-64.3129 -3.8434,-121.9098 -3.8434,-121.9098 0,0 3.8434,-28.7917 7.68,-42.2369 3.8435,-13.4384 16.3244,-26.8768 16.3244,-26.8768 0,0 -2.886,-22.0759 -1.9286,-39.344 0.9643,-17.2887 30.7203,-50.8881 30.7203,-50.8881 l -22.0759,-47.9952 c 0,0 -28.7985,0.9643 -45.1229,-2.8723 -5.7515,-1.3541 -18.2325,-6.7911 -31.9444,-13.2401 26.9657,-16.9262 60.3872,-41.4846 60.3872,-53.3774"
           inkscape:connector-curvature="0"
           inkscape:export-filename="/home/cmaureir/1.png"
           inkscape:export-xdpi="282.39001"
           inkscape:export-ydpi="282.39001" />
        <path
           id="path3310"
           style="fill:#404040;fill-opacity:1;fill-rule:nonzero;stroke:none"
           d="m 5702.358,1505.1615 -12.5425,12.5527 c 0,0 6.9757,-68.3005 6.9757,-84.3343 0,-16.0234 0,-68.295 0,-68.295 0,0 43.9055,41.8129 127.5176,30.6731 83.6394,-11.1584 117.7927,-38.3347 117.7927,-38.3347 0,0 64.1076,115.6864 75.2618,145.6461 6.5996,17.7387 13.1785,37.6439 17.4665,55.8764 l -4.459,3.7135 2.8792,66.2345 c 0,0 3.4742,11.2363 14.4848,27.971 1.6139,5.8882 3.3715,10.272 5.1633,12.0774 0.8891,0.8822 2.079,1.8944 3.4537,2.9887 7.8031,17.145 11.4619,36.6358 11.4619,36.6358 0,0 19.1968,-2.8792 24.9482,9.5949 5.7583,12.4741 18.2393,39.3577 29.7628,67.1987 11.5235,27.8343 -11.5235,24.9482 -11.5235,24.9482 0,0 10.5592,33.5994 24.9619,96.0042 14.3958,62.3911 -41.2726,111.3437 -115.194,131.4978 -73.9077,20.1542 -146.8648,-20.1541 -182.3791,-58.5544 -35.5142,-38.4003 -23.9976,-111.3505 -23.9976,-111.3505 0,0 -5.7583,7.68 -23.0333,-11.5099 -17.2818,-19.2104 3.8366,-62.3978 9.5949,-83.5163 5.7583,-21.1185 27.841,-14.3958 27.841,-14.3958 0,0 -0.9642,-21.1253 -0.9642,-42.2437 0,-21.1185 -16.3176,-94.0619 -25.9194,-111.3505 -9.588,-17.2682 -72.9502,-27.8343 -76.7868,-27.8343 -3.3921,0 -0.8275,-0.01 -35.0218,-13.8145 0.5333,-8.3981 1.2241,-16.0576 2.4961,-21.139 4.1923,-16.7279 9.7591,-36.9401 9.7591,-36.9401"
           inkscape:connector-curvature="0"
           inkscape:export-filename="/home/cmaureir/1.png"
           inkscape:export-xdpi="282.39001"
           inkscape:export-ydpi="282.39001" />
        <path
           id="path3312"
           style="fill:#000000;fill-opacity:1;fill-rule:nonzero;stroke:none"
           d="m 9561.8082,2156.7727 c -6.6344,6.6201 -44.5895,23.6831 -71.0566,34.8441 -26.4662,11.1474 -28.586,-4.8761 -48.761,-14.6352 -20.2431,-9.7522 -8.0695,-33.1001 -8.0695,-33.1001 0,0 -4.5138,4.5273 -46.2997,26.8357 -41.854,22.2879 -24.4145,-11.8654 -24.4145,-11.8654 0,0 17.4394,-17.405 55.053,-38.3183 37.6136,-20.9064 42.538,-29.9747 42.538,-29.9747 0,0 -29.2708,22.3084 -39.7343,11.8517 -10.4635,-10.4498 14.6358,-27.8752 21.6109,-34.8509 6.976,-6.962 30.2961,-13.5819 30.2961,-13.5819 0,0 -4.5138,-4.5274 -28.9283,-14.2865 -24.3465,-9.7522 -37.2721,-65.8583 -62.7121,-91.9965 -2.2569,-2.3047 -4.1723,-4.5615 -5.8134,-6.7705 -17.2342,-22.7666 -5.403,-39.8364 0.9572,-46.1829 6.976,-6.9688 23.6626,-39.0294 34.81,-97.5702 11.1474,-58.5407 67.6363,-361.7019 67.6363,-361.7019 0,0 -41.1692,17.4227 -84.3229,17.4227 -43.2218,0 -91.6413,-4.8754 -91.6413,-4.8754 0,0 0,9.7673 0,15.6898 0,5.9169 29.6131,29.6259 44.932,52.6135 15.3188,22.9916 13.951,68.2923 13.951,77.3538 0,9.0615 -9.0957,50.1836 -23.7307,50.1836 -14.6349,0 0,-32.0674 0,-39.727 0,-7.6664 -7.6598,-45.3007 -7.6598,-45.3007 0,0 -4.8553,14.642 -10.4635,20.2089 -5.5392,5.5737 -13.9511,0 -13.9511,0 0,0 0,7.6732 -9.7115,7.6732 -9.7796,0 -13.2671,-13.2401 -13.2671,-13.2401 0,0 -3.4876,34.1397 -3.4876,57.8364 0,23.683 0,39.7202 -11.8313,43.1944 -11.8312,3.4946 -12.5151,-27.8616 -12.5151,-39.7202 0,-11.845 -6.2921,-76.657 -6.2921,-76.657 0,0 -14.2244,-18.4171 -26.8767,-36.975 -6.6336,-9.6306 -12.7885,-19.2959 -16.3451,-26.4419 -10.4635,-20.9044 -5.9497,-68.6424 -5.9497,-68.6424 0,0 -7.3174,-7.3204 -11.8313,-11.8531 -4.5138,-4.5233 -9.3691,-9.3987 -9.3691,-9.3987 0,0 -40.4181,113.6032 -101.7624,142.8681 -61.3451,29.2636 -123.3733,4.1786 -123.3733,4.1786 0,0 -4.8553,15.3259 -8.3437,29.2704 -0.1363,0.6155 -0.4105,1.1763 -0.6149,1.7371 -4.7872,12.4057 -24.8251,14.9908 -24.8251,14.9908 0,0 0,0 0,13.5889 0,13.5888 -11.4897,11.4961 -11.4897,11.4961 0,0 -4.924,45.3007 -4.924,81.533 0,15.579 -0.4787,59.9017 -1.0942,106.5838 -0.7523,61.8713 -1.6413,127.9007 -1.6413,136.6339 0,15.3396 43.9053,9.7659 71.7402,22.3015 27.9021,12.5494 64.1479,35.5485 90.615,52.2695 26.4662,16.7279 36.9297,48.0978 51.5646,62.733 14.635,14.6284 12.1737,41.4573 2.1198,51.5583 -10.1211,10.1079 -20.2423,-20.2089 -32.0735,-42.4968 -11.8313,-22.3084 -29.6132,-27.5469 -29.6132,-27.5469 0,0 0,0 -7.3174,-7.304 -7.3175,-7.3175 10.4635,22.9855 18.1233,40.4178 7.6599,17.4254 11.1474,52.2695 5.5392,57.8364 -5.5392,5.5736 -2.8036,27.1845 -20.858,27.1845 -18.1233,0 -17.0971,-28.2172 -11.2164,-34.1465 5.9506,-5.9293 -11.8313,-43.9124 -16.6866,-57.1457 -4.8553,-13.24 -31.0481,-22.6571 -40.4172,-32.0606 -9.4381,-9.4034 -3.4884,37.6412 -3.4884,46.689 0,9.0683 -11.1474,25.0918 -11.1474,25.0918 0,0 0,0 -8.7534,8.7128 -8.6852,8.7195 -30.2961,30.3235 -44.9316,15.6747 -14.6352,-14.6352 16.4137,-29.6123 23.0473,-36.2392 6.5646,-6.6132 6.2231,-18.1162 6.2231,-39.0295 0,-20.8996 -12.8567,-19.1625 -16.0027,-16.0167 -3.146,3.1391 0,43.9056 -32.0747,40.411 -32.0743,-3.481 -20.1746,-36.2256 -20.1746,-52.2627 0,-16.0235 -55.8052,-32.0607 -62.7125,-45.3007 -6.9756,-13.2332 -14.7036,-71.0832 -23.7308,-127.5313 -1.0942,-6.8662 -2.7356,-17.316 -4.7189,-30.3099 -14.2248,-93.8635 -47.5302,-322.3298 -47.5302,-322.3298 0,0 -4.1717,12.5494 -9.0956,17.4255 -4.8556,4.8898 -12.5152,18.8206 -12.5152,18.8206 0,0 7.6596,82.2374 3.4878,98.9517 -4.1717,16.7278 -6.2917,39.727 -6.2917,39.727 0,0 0,0 0,11.8517 0,11.8381 -16.003,25.7826 -23.6626,33.4558 -4.7188,4.6983 -18.3281,14.0881 -30.5697,18.2598 -7.7279,2.6398 -14.9087,3.2006 -18.9437,-0.848 -7.2492,-7.2629 0.1368,-15.025 8.6854,-22.4795 3.7614,-3.2758 7.7279,-6.49 10.8054,-9.5743 10.1215,-10.1011 25.7825,-17.4186 25.7825,-25.7826 0,-8.3639 2.804,-27.8821 2.804,-27.8821 0,0 -7.6595,12.5494 -16.003,12.5494 -8.4118,0 -4.8556,-16.7211 -4.8556,-16.7211 0,0 -6.2917,14.6215 -16.0713,17.4118 -9.7113,2.7971 -17.0972,-6.6201 -17.0972,-6.6201 0,0 -6.9072,6.9757 -12.1732,12.2006 -2.9407,2.9202 -11.8997,11.9065 -19.2856,19.2788 -5.813,5.854 -10.6687,10.696 -10.6687,10.696 0,0 0,4.8693 4.8557,9.7454 4.9239,4.8966 -4.8557,13.2469 -12.1732,20.5644 -7.3177,7.3177 -14.2933,-14.2863 -14.2933,-14.2863 0,0 -66.8842,62.733 -82.2716,78.0589 -15.3191,15.3327 -49.4451,67.5817 -56.4208,89.897 -6.9756,22.2946 -31.322,70.3856 -36.9299,89.1925 -5.5394,18.8069 -32.7582,32.7582 -12.1732,-6.6131 20.5167,-39.3783 -8.0014,-8.0153 -14.9771,-1.0464 -6.9756,6.9688 -32.7582,43.2011 -39.7338,36.246 -6.9757,-6.9825 0,-22.3084 0,-22.3084 0,0 -20.927,20.8996 -27.2188,10.4566 -6.2233,-10.4566 6.2918,-25.7894 6.2918,-25.7894 0,0 -11.1474,11.1474 -17.4392,-1.3883 -6.2917,-12.5493 37.6139,-66.2002 37.6139,-66.2002 0,0 -10.3951,10.4429 -20.1747,0.6838 -9.7796,-9.759 13.9513,-41.1152 29.9542,-62.7124 16.003,-21.6108 54.3691,-29.9611 71.1244,-46.689 16.6868,-16.7347 60.5924,-118.4903 60.5924,-118.4903 0,0 -29.2704,6.6268 -37.9558,6.6268 -8.6853,0 -7.6595,7.6596 -7.6595,7.6596 -5.266,33.8046 -34.5363,34.5021 -34.5363,34.5021 0,0 14.6352,-7.6595 20.9269,-13.9308 6.2918,-6.2712 2.8039,-24.3874 2.8039,-24.3874 0,0 -13.2674,4.8625 -59.293,-2.7902 -45.9572,-7.6801 -90.5603,-35.5485 -102.3916,-68.293 -11.8517,-32.7651 -48.7953,-74.5848 -48.7953,-74.5848 0,0 21.2552,5.2249 25.7894,9.7727 4.5204,4.5137 19.5113,13.9377 19.5113,13.9377 0,0 -14.6421,-21.6177 -21.5972,-34.8509 -6.9825,-13.2538 -23.0059,-23.006 -23.0059,-23.006 0,0 15.3327,0 22.3015,6.9756 6.9688,6.9757 14.642,0.6976 14.642,0.6976 0,0 -3.4878,-36.2446 -3.4878,-51.5733 0,-15.3341 4.5137,-36.5859 15.3328,-57.8453 10.7849,-21.2695 19.5113,-9.0615 19.5113,-9.0615 l -1.3951,-94.7689 c 0,0 -1.0054,-0.5341 -2.6877,-1.4505 -7.2082,-3.9188 -26.7879,-14.7918 -32.1496,-20.1665 -6.6337,-6.6283 -59.2451,-13.2318 -59.2451,-13.2318 l 21.604,21.5985 c 0,0 40.4177,-4.8754 50.1768,19.5202 9.7522,24.3846 -43.208,24.3798 -54.3554,24.3798 -11.1679,0 -35.1997,-12.1902 -43.208,-20.2041 -8.0152,-8.0062 -15.3396,-2.7868 -15.3396,11.1474 0,7.8866 12.0638,45.2679 24.8046,81.4045 9.7659,27.6892 19.9284,54.644 25.3654,67.0394 12.5562,28.5708 5.5874,47.3907 -4.1717,50.8717 -9.7523,3.4946 -20.2089,-13.2333 -20.2089,-13.2333 0,0 -21.0432,-49.7664 -34.4406,-81.1692 -4.1854,-9.8042 -7.639,-17.8316 -9.465,-21.9808 -7.6595,-17.4097 -18.4581,-30.3126 -21.604,-27.1736 -1.484,1.4772 6.0251,30.5075 14.3616,60.788 9.3624,33.9728 19.7918,69.5356 19.7918,69.5356 0,0 13.9308,30.6587 -5.5737,36.2324 -19.5113,5.5873 -29.968,-18.8206 -29.968,-18.8206 l -23.7651,-63.038 -12.4877,-33.1337 c 0,0 3.2826,17.2388 7.1466,37.0476 4.0965,21.0111 8.8426,44.9198 10.99,54.248 2.2774,9.9095 2.5783,16.7758 1.0806,22.2947 -1.2447,4.5821 -3.7272,8.2272 -7.3655,11.8655 -6.4969,6.4969 -15.2849,-5.7926 -18.3692,-10.6755 -0.7318,-1.1421 -1.1421,-1.8807 -1.1421,-1.8807 0,0 -0.061,0.7523 -0.1915,2.079 -0.9506,9.9916 -5.7856,54.1366 -19.313,83.6463 -15.3464,33.4421 -62.7261,154.0114 -83.6394,193.0409 -7.3449,13.6913 -14.4095,30.4808 -20.7286,47.4344 -11.6603,31.3562 -20.7013,63.2869 -23.8745,77.3066 -4.883,21.604 -4.1854,62.7125 -4.1854,70.3925 0,7.6595 0,45.9914 0,62.0218 0,16.0303 -3.4673,24.743 -8.7058,24.743 -5.2113,0 -8.706,-8.7127 -8.706,-8.7127 l -5.5873,-64.8189 c 0,0 -8.364,0 -22.9923,0 -14.6352,0 -32.047,-4.1717 -32.047,-4.1717 0,0 -4.1922,33.4421 -11.8586,63.4237 -7.6801,29.9611 -19.4976,35.5212 -25.7826,29.2704 -6.2712,-6.2781 0,-27.8889 0,-27.8889 l 14.9841,-83.2769 c 0,0 -10.8055,-10.7987 -25.4339,-18.4651 -14.642,-7.6663 9.0615,-46.6958 20.2089,-68.9905 8.2546,-16.5227 45.1981,-44.5142 63.7862,-57.9115 6.4969,-4.6915 10.7712,-7.6048 10.7712,-7.6048 0,0 11.1679,-57.8364 17.4391,-89.1995 6.2713,-31.3631 66.2003,-233.4655 66.2003,-255.0695 0,-21.5958 -24.401,-173.5282 -24.401,-173.5282 0,0 -6.6201,15.6843 -13.582,22.6483 -6.9757,6.973 -30.31,30.3208 -30.31,30.3208 0,0 54.3486,85.0243 57.8364,107.317 3.481,22.3036 -17.4254,67.6112 -48.7817,123.3617 -24.319,43.2216 -75.891,64.2375 -138.111,69.8727 -18.0205,1.6277 -36.9299,1.9833 -56.325,1.1969 -86.4091,-3.4742 -124.0503,-45.9846 -124.0503,-45.9846 0,0 -6.9756,13.9308 -6.9756,19.5113 0,1.7986 -1.6345,6.6063 -4.0555,12.5151 -5.1155,12.4126 -13.7461,29.6944 -18.2324,34.1739 -6.6269,6.62 -9.0684,-4.1854 -9.0684,-4.1854 0,0 -11.1405,34.1465 -21.604,32.765 -10.4498,-1.4019 -8.3639,-17.4254 -8.3639,-17.4254 0,0 -7.6596,32.0606 -21.604,27.1708 -13.9376,-4.8761 -1.7371,-33.0933 -1.7371,-33.0933 0,0 -7.6664,7.6458 -16.3791,-1.0463 -8.7059,-8.7128 11.1474,-57.1388 11.1474,-57.1388 l 6.2781,-32.7651 c 0,0 -22.9924,2.7903 -39.7202,-2.7902 -16.7211,-5.5805 -9.7591,-69.695 -4.8898,-93.378 4.8898,-23.7036 68.2998,-40.4191 68.2998,-40.4191 l 4.8761,-48.0862 -4.1785,-4.1806 c 0,0 -17.4186,29.9604 -41.1153,42.5077 -23.6831,12.537 -65.8584,38.6752 -70.3926,43.2025 -4.5273,4.5342 -8.3502,31.3631 -8.3502,31.3631 0,0 70.3788,162.3754 76.6501,177.7218 2.7013,6.5858 13.9102,29.0584 26.0903,53.3979 16.1329,32.2385 33.9481,67.7595 35.9383,74.1197 3.481,11.1543 39.0226,27.1914 55.7505,37.6412 16.721,10.4567 12.5425,28.5728 12.5425,34.8372 0,6.285 -15.326,13.9444 -15.326,13.9444 0,0 39.0227,107.3157 27.1709,111.5147 -11.8449,4.1786 -18.1094,-18.123 -18.1094,-18.123 l -32.0606,-82.2443 c 0,0 -9.7591,9.0615 -28.5728,9.0615 -18.8206,0 -38.3182,-9.7522 -38.3182,-9.7522 0,0 -2.804,12.5356 4.8761,45.9914 7.6459,33.4558 -11.8586,23.6967 -21.6109,1.402 -9.7659,-22.3084 -18.1161,-53.6715 -23.0059,-108.7313 -3.098,-34.9808 -8.1793,-50.2657 -17.1861,-65.3385 -5.1634,-8.658 -11.6124,-17.2477 -19.7438,-29.4413 -22.3153,-33.449 -117.0747,-182.5911 -117.0747,-182.5911 0,0 -34.1534,41.1358 -51.5788,64.8188 -17.4186,23.6967 -41.8129,57.1525 -41.8129,57.1525 0,0 -13.7324,80.979 -23.6077,150.1611 -5.5259,38.7833 -9.8481,73.8598 -9.8481,88.8779 0,41.8129 6.2713,206.2742 9.7729,220.9162 3.4672,14.6284 13.5819,22.6504 21.5834,30.6655 8.0152,8.0083 12.5493,43.2012 23.7103,66.2072 11.1406,22.9991 10.4567,49.4724 3.4742,64.8051 -6.9757,15.3328 -52.2695,12.5494 -52.2695,12.5494 0,0 -19.5182,56.4549 -29.2635,92.6872 -9.7522,36.2461 -19.5182,62.7193 -33.4489,57.8432 -13.9308,-4.883 -2.7972,-34.1534 -2.7972,-34.1534 l 31.37,-119.1741 c 0,0 -11.8587,0 -36.9437,-5.5669 -25.0918,-5.5805 -49.486,-25.085 -49.486,-25.085 0,0 -32.7445,45.2939 -41.1085,59.9291 -8.3571,14.6352 -21.2621,29.6123 -31.363,19.5181 -10.1079,-10.1079 -3.481,-20.2088 -3.481,-20.2088 0,0 39.7133,-73.1828 45.9845,-79.4472 6.2781,-6.2781 39.727,-84.3302 50.1906,-94.7868 10.4429,-10.443 -1.3952,-98.9654 -6.285,-128.9197 -3.4195,-21.0569 -24.702,-183.2817 -37.0872,-278.0753 -5.2454,-40.2127 -8.8974,-68.2999 -8.8974,-68.2999 0,0 0,-3.4741 -9.7659,-3.4741 -7.3176,0 -14.2385,3.5288 -21.946,9.9916 -2.5714,2.1611 -5.2317,4.6367 -8.0219,7.4202 -11.1337,11.1542 -26.829,7.3243 -32.0538,2.0995 -5.225,-5.225 -8.3571,13.9444 -21.604,18.1162 -13.2333,4.1785 -25.7826,-10.4498 -25.7826,-10.4498 0,0 -20.2089,6.9209 -43.7893,-21.2621 -1.19,-1.4293 -2.3867,-2.9133 -3.6041,-4.5342 -25.085,-33.4421 -44.5963,-128.2152 -60.6266,-161.671 -16.0372,-33.4489 -115.6864,-182.5938 -115.6864,-182.5938 0,0 -9.0547,131.0219 -9.0547,144.9527 0,13.9308 -32.0606,27.1845 -32.0606,27.1845 0,0 0,20.2225 0,32.7582 0,12.5493 38.325,88.5019 38.325,106.6317 0,11.8928 -33.4215,36.4512 -60.3872,53.3774 -14.0539,8.8153 -26.357,15.5585 -31.2536,17.3502 -14.2865,5.225 -20.5646,-20.5576 -20.5646,-20.5576 0,0 -10.7917,10.7917 -24.3737,5.5737 -13.5957,-5.225 -10.4703,-18.8206 -10.4703,-18.8206 0,0 -2.1542,2.1474 -5.7173,3.8434 -3.6246,1.7166 -8.6991,2.975 -14.4779,1.0464 -11.503,-3.8367 -18.1298,-25.7894 -18.1298,-25.7894 0,0 -9.0684,9.0615 -23.6967,-5.5668 -14.6352,-14.6421 26.4938,-59.9428 26.4938,-66.9047 0,-6.9688 4.8623,-54.3691 4.8623,-54.3691 0,0 -14.2863,32.4163 -32.0468,29.968 -17.7812,-2.4416 -11.1542,-26.487 -11.1542,-26.487 0,0 21.6108,-71.774 27.882,-87.8111 6.2644,-16.0167 13.2332,-49.4602 9.7591,-52.9596 -3.4947,-3.4947 -63.4237,99.6554 -69.0042,112.2047 -5.5669,12.5357 -20.9065,43.1944 -42.5036,31.3631 -21.6177,-11.8518 -6.2781,-33.4489 -6.2781,-33.4489 l 34.8441,-68.2999 c 0,0 -131.0124,-59.9365 -186.0858,-98.9612 -55.0461,-39.0349 -32.0402,-134.5069 -32.0402,-134.5069 0,0 -20.9064,-11.8477 -32.7718,-16.7231 -11.845,-4.8754 -42.8455,-35.8905 -42.8455,-35.8905 0,0 -11.845,11.8347 -19.1558,19.1674 -7.3312,7.3066 -32.0743,27.1687 -32.0743,27.1687 0,0 13.2401,66.9061 20.2157,103.8518 6.9825,36.9326 40.4314,108.7011 48.7817,124.7376 8.3708,16.0323 41.471,21.948 54.3622,34.8529 12.8913,12.8845 38.3251,38.3251 38.3251,48.7817 0,10.443 -17.4255,18.8138 -17.4255,27.1777 0,8.3503 25.0987,75.2687 25.0987,75.2687 0,0 9.0547,23.683 -3.4878,29.2703 -12.5425,5.5669 -23.6831,-14.642 -23.6831,-14.642 l -32.0674,-71.0832 c 0,0 -22.9992,5.5736 -47.3934,0.6907 -13.1306,-2.6193 -28.2583,-8.6785 -39.4534,-13.7051 -9.6018,-4.3154 -16.2971,-7.8784 -16.2971,-7.8784 0,0 0,19.4976 0,25.762 0,5.1839 15.2028,10.8397 22.8486,15.0182 1.6072,0.8685 2.9066,1.6892 3.6247,2.4141 4.1922,4.1854 18.1298,9.7523 9.759,18.123 -0.5539,0.554 -1.1284,1.0258 -1.7029,1.4362 -8.1861,5.8336 -18.5128,-1.4362 -18.5128,-1.4362 0,0 -19.101,-11.1473 -28.6001,-18.6153 -1.3747,-1.0943 -2.5646,-2.1065 -3.4537,-2.9887 -1.7918,-1.8054 -3.5494,-6.1892 -5.1633,-12.0774 -4.6163,-16.8989 -8.0631,-46.3265 -8.0631,-63.8956 0,-9.6702 -1.8875,-21.4536 -4.8419,-34.0234 -4.288,-18.2325 -10.8669,-38.1377 -17.4665,-55.8764 -11.1542,-29.9597 -75.2618,-145.6461 -75.2618,-145.6461 0,0 -34.1533,27.1763 -117.7927,38.3347 -83.6121,11.1398 -127.5176,-30.6731 -127.5176,-30.6731 0,0 0,52.2716 0,68.295 0,16.0338 -6.9757,84.3343 -6.9757,84.3343 l 12.5425,-12.5527 c 0,0 -5.5668,20.2122 -9.7591,36.9401 -1.272,5.0814 -1.9628,12.7409 -2.4961,21.139 -1.2448,19.224 -1.7098,42.3121 -6.5585,47.154 -6.962,6.9825 -29.6193,50.5256 -27.1709,48.0978 2.4278,-2.4483 22.9855,-4.8898 22.9855,-4.8898 0,0 -32.7446,25.085 -51.5583,43.9056 -18.8206,18.8206 -66.2208,8.364 -66.2208,8.364 0,0 4.1922,25.7893 -55.7369,28.5728 -26.7878,1.2446 -57.6175,-4.6368 -89.1788,-20.7082 -39.0637,-19.8737 -79.2558,-55.3469 -114.3255,-112.3968 -63.4237,-103.1405 -4.8761,-273.1822 -4.8761,-273.1822 0,0 -39.727,6.964 -52.9739,11.8422 -13.2332,4.8754 -29.2635,2.7971 -29.2635,2.7971 0,0 -3.8367,25.0843 -3.8367,33.7799 0,8.7222 26.8426,26.8398 34.4954,42.8633 7.6663,16.0289 -20.9134,62.7254 -20.9134,73.8919 0,11.1269 -2.7833,48.0719 -9.7453,55.0475 -6.9688,6.9552 -13.2401,33.4421 -36.93,79.4404 -23.7103,45.9914 -103.1439,43.208 -179.8076,11.1474 -76.6638,-32.0539 -80.8424,-67.6023 -80.8424,-67.6023 0,0 -59.2315,59.2383 -149.8329,69.695 -90.6013,10.4566 -135.2044,-45.9983 -135.2044,-45.9983 0,0 -3.4878,17.4391 -3.4878,36.246 0,18.8138 -17.4118,36.9368 -30.6656,58.5339 -13.2332,21.6109 -47.0378,66.5627 -53.6578,59.9359 -6.6201,-6.6201 4.1922,-27.1845 14.6352,-46.6958 10.4635,-19.5045 12.5493,-29.2704 12.5493,-37.6343 0,-8.3571 -6.9756,-13.9308 -6.9756,-13.9308 0,0 -7.6595,7.6732 -20.2089,4.1785 -12.5425,-3.4809 -19.5181,-16.7278 -19.5181,-16.7278 0,0 0,6.2644 -9.7523,6.2644 -9.7522,0 -16.7142,-9.7523 -16.7142,-9.7523 0,0 0,30.6655 0,55.7505 0,25.0987 2.0859,131.7168 2.0859,152.6369 0,20.8927 3.4878,26.4732 11.8449,43.8987 8.3708,17.4254 24.3943,78.052 24.3943,96.175 0,18.1162 8.3571,41.806 20.9064,54.3485 12.5357,12.5425 10.443,23.006 6.2644,36.9505 -0.01,0.027 -0.021,0.041 -0.027,0.068 -4.2264,13.8213 -21.5767,4.1101 -21.5767,4.1101 0,0 0,12.5425 -9.0546,21.604 -9.0684,9.0615 -24.4011,0.6907 -24.4011,0.6907 0,0 -6.962,6.9688 -15.3191,15.3396 -8.3776,8.3708 -28.5727,-4.1853 -28.5727,-4.1853 0,0 0,11.8449 -13.9445,18.1161 -13.9445,6.2781 -82.2306,-43.8987 -91.9897,-61.331 -9.7523,-17.4186 19.5113,-80.1379 25.7894,-96.1682 6.2781,-16.0235 16.721,-53.6579 -16.0303,-202.8069 -13.2469,-60.3188 -29.12,-103.4242 -46.3197,-139.4035 -19.6071,-41.0196 -40.9376,-72.7998 -62.0833,-110.2789 -3.0433,-5.3911 -6.0798,-10.8937 -9.1026,-16.5631 -3.1254,-5.8424 -6.237,-11.8559 -9.3282,-18.0936 -45.3075,-91.2798 -23.6967,-144.2489 -23.6967,-144.2489 l -6.9688,-8.3749 c 0,0 -13.9445,75.2755 -31.3563,108.0323 -17.4322,32.7521 -50.8812,26.4877 -50.8812,26.4877 0,0 -17.4254,7.8407 -31.534,7.8407 -14.1154,0 -11.1474,-11.1453 -17.2408,-17.2442 -6.1072,-6.1044 -14.6421,0 -27.5401,0 -12.8914,0 -10.1011,-10.1249 -15.6816,-15.6897 -5.5669,-5.5751 -25.7826,0.6975 -25.7826,0.6975 0,0 -16.7279,200.0186 -24.3942,250.1817 -7.6664,50.1973 -27.1777,188.1648 -31.3563,209.7756 -4.1854,21.6109 13.9376,37.6275 22.9923,55.0598 1.5867,3.0433 2.9476,6.2644 4.1308,9.5675 5.5873,15.5311 7.0234,32.7993 7.0234,41.9976 0,11.1542 34.1465,64.1145 38.3319,75.2618 4.1854,11.1542 11.1474,26.4938 -0.3556,30.3099 -11.4893,3.8435 -22.6435,-22.6367 -22.6435,-22.6367 l -31.3563,-57.85 c 0,0 -18.123,18.123 -30.6723,22.3016 -12.5425,4.1922 -51.572,7.6664 -51.572,7.6664 0,0 16.7279,64.1144 19.5182,79.4471 2.7972,15.3327 13.24,34.1533 -2.4346,37.9831 -15.6884,3.8366 -22.6503,-22.6504 -22.6503,-22.6504 l -36.2392,-92.694 c 0,0 -16.7279,0 -41.8129,-12.5425 -25.0918,-12.5425 0,-64.812 0,-64.812 0,0 -4.883,-10.4498 -4.883,-19.5113 0,-5.7515 13.4795,-24.1413 26.3502,-41.4367 7.4134,-9.9506 14.6215,-19.5388 18.9574,-26.1587 11.8381,-18.1094 24.3874,-141.4758 24.3874,-181.8936 0,-4.8214 -0.5813,-12.3168 -1.5935,-21.7339 -0.8344,-7.81 -1.9695,-16.933 -3.3305,-27.0204 -10.7781,-79.8985 -35.5006,-218.8562 -35.5006,-218.8562 0,0 -33.4557,60.6287 -96.8658,82.9336 -15.873,5.5874 -32.7172,8.3708 -49.0347,9.4103 -48.8774,3.1185 -93.1318,-9.4103 -93.1318,-9.4103 0,0 -9.7659,32.7445 -13.9445,45.2938 -4.1854,12.5425 -3.481,21.604 -3.481,32.7514 0,11.1542 -5.5805,36.2392 -9.759,55.0598 -4.1786,18.8205 -20.9065,43.208 -27.8753,43.208 -6.9688,0 3.4878,-29.2636 6.2713,-39.0295 2.7834,-9.7454 0,-12.5425 -3.481,-16.0235 -3.4947,-3.4878 -13.2469,-3.4878 -13.2469,-3.4878 0,0 -5.6147,63.9776 -8.0015,105.1204 -0.6429,11.0858 -1.0532,20.5303 -1.0532,26.5963 0,16.8442 2.8997,55.9489 5.2864,85.2329 1.6551,20.4072 3.0707,36.034 3.0707,36.034 0,0 13.9445,13.9308 18.8206,28.566 4.8693,14.6284 6.2644,64.1145 6.2644,68.9906 0,4.8693 20.9064,52.2627 20.9064,57.8432 0,5.5805 -16.721,5.5805 -16.721,5.5805 0,0 0,30.6724 -5.5737,44.6032 -5.5737,13.9376 -22.9991,32.7582 -36.246,38.3249 -13.2401,5.5806 -29.2636,-12.5493 -32.047,-15.3327 -2.7903,-2.7834 -14.642,0 -21.604,0 -6.9757,0 -21.6108,-10.4429 -25.7894,-23.683 -4.1786,-13.24 -18.1162,-15.3396 -24.3943,-15.3396 -6.2644,0 -20.9064,-9.7522 -23.6967,-20.2088 -2.7765,-10.4499 -11.1473,-11.1542 -18.1161,-11.1542 -6.962,0 -14.6284,-4.8762 -18.1162,-27.1846 -3.3784,-21.5766 36.971,-102.5284 46.5385,-114.6879 0.3146,-0.4104 0.6087,-0.7455 0.8549,-0.9848 7.6663,-7.68 -20.2157,-210.48 -24.3943,-267.6257 -4.1854,-57.1319 -17.4323,-272.4695 -17.4323,-272.4695 0,0 -45.9914,3.4728 -81.533,3.4728 -35.5416,0 -68.2929,-18.8206 -68.2929,-18.8206 0,0 -12.5494,26.4822 -24.3943,50.183 -11.8518,23.6823 -39.0226,63.4203 -39.0226,63.4203 0,0 5.5668,28.557 8.3639,41.1132 2.7834,12.5383 51.9207,65.8611 65.5028,79.4499 13.5888,13.582 33.4557,41.8197 33.4557,50.8744 0,9.0546 -4.8761,13.9307 -4.8761,23.6898 0,9.7659 -7.6664,25.7894 -7.6664,36.9368 0,11.1542 7.6664,50.1836 12.8913,71.0901 5.2249,20.9064 0,31.0006 -10.8054,34.1533 -10.8055,3.1323 -15.3328,-29.2772 -19.5113,-46.0051 -4.1854,-16.7347 -16.7279,-34.1397 -21.6109,-39.0226 -4.8761,-4.8761 -28.5591,-5.5737 -33.4489,-5.5737 -4.8761,0 -11.1474,0 -11.1474,22.9855 0,23.0128 -4.8693,42.5172 -11.8517,42.5172 -6.9688,0 -11.8381,-18.8069 -11.8381,-32.0538 0,-13.24 -2.0859,-101.7419 -2.0859,-129.624 0,-27.8821 -29.9748,-78.7495 -29.9748,-78.7495 0,0 -23.0059,32.7513 -29.9679,39.727 -6.9688,6.9756 -27.8753,64.1075 -27.8753,83.6188 0,19.5182 12.5425,127.5382 12.5425,141.4826 0,13.9308 4.8761,32.0538 -8.3571,32.0538 -13.2469,0 -18.8206,-89.897 -18.8206,-97.577 0,-7.6459 -12.2005,-12.1868 -15.3395,-9.0547 -2.0175,2.0175 -5.7583,43.55 -9.1095,78.6676 -1.8465,19.4702 -3.5767,36.9778 -4.8213,44.6784 -3.4879,21.6108 -22.9992,44.6031 -35.5485,39.727 -12.5288,-4.8898 -10.443,-22.9992 -10.443,-22.9992 0,0 9.7523,-34.1396 13.2333,-49.4792 1.8396,-8.0494 6.3601,-33.8319 9.3351,-56.4754 2.6807,-20.4277 4.0964,-38.2977 1.1215,-38.2977 -6.2781,0 -13.2469,28.5728 -13.2469,28.5728 0,0 -0.5266,1.5661 -1.443,4.2606 -5.7242,16.8374 -26.9862,79.2558 -34.7962,100.2784 -9.0547,24.3738 -20.2157,38.3182 -33.4489,32.7514 -13.2401,-5.5737 -4.1854,-30.6587 -4.1854,-30.6587 0,0 18.123,-66.9115 31.3699,-110.1195 0.8823,-2.886 1.6619,-5.5395 2.3526,-8.0152 9.7043,-34.55 1.8191,-30.3167 1.8191,-30.3167 0,0 -4.6231,11.1405 -10.8806,26.5826 -11.9339,29.4277 -29.8175,74.4617 -33.025,87.7155 -4.8761,20.2088 -19.5045,36.9367 -34.1396,28.5728 -14.6421,-8.364 -5.5874,-35.5416 -5.5874,-35.5416 0,0 8.3776,-38.3251 18.8206,-70.3857 2.6809,-8.2204 5.9567,-18.4034 9.3419,-29.0857 9.8412,-31.0075 20.6329,-66.2414 20.6329,-69.8728 0,-4.8898 -23.7036,7.6595 -39.727,14.6283 -16.0304,6.962 -41.8129,5.5805 -60.6335,-5.5737 -18.8206,-11.1542 3.481,-28.5659 19.5113,-28.5659 16.0303,0 34.1533,-6.2713 50.1837,-13.2538 16.0303,-6.962 60.6266,-49.4724 78.0452,-73.169 17.4255,-23.7036 85.7253,-93.3814 90.6082,-98.2698 4.8762,-4.8755 13.2401,-53.6558 13.2401,-53.6558 0,0 -6.9688,-6.9777 -13.9445,-24.3902 -6.9688,-17.4309 -26.4733,-71.7815 -26.4733,-71.7815 0,0 -117.7859,98.9551 -170.0486,139.3688 -52.2695,40.419 -156.4597,102.1152 -156.4597,102.1152 0,0 12.2006,12.18 34.5022,34.4885 22.2946,22.3015 3.4809,26.4801 0,29.9611 -3.4948,3.4878 -20.9065,-20.9065 -20.9065,-20.9065 0,0 5.5668,25.085 24.3874,43.9193 18.8206,18.8069 28.5728,40.404 23.6967,45.2938 -4.8761,4.8761 -43.9055,-37.6411 -43.9055,-37.6411 0,0 17.4185,20.2088 35.5485,43.9055 1.5934,2.0996 2.8654,3.9461 3.8776,5.6216 10.5044,17.2819 -7.9947,13.2674 -10.8464,10.4088 -0.2463,-0.253 -0.6019,-0.6292 -0.9985,-1.0532 -4.5958,-4.9719 -18.2325,-20.968 -23.0471,-25.7825 -5.2317,-5.225 -17.7742,-17.7675 -17.7742,-17.7675 0,0 9.0615,18.8138 14.9771,30.3236 5.9225,11.4893 -9.4034,9.4034 -12.8844,5.9156 -3.4878,-3.4878 -36.9367,-49.4724 -36.9367,-49.4724 0,0 9.0546,18.8137 11.8449,29.2635 2.7903,10.4567 1.3883,16.0304 -2.7903,16.0304 -4.1785,0 -13.9307,-13.9308 -13.9307,-13.9308 0,0 -20.2089,-38.3387 -23.7036,-50.1699 -3.481,-11.8518 -16.721,-41.1359 -16.721,-41.1359 0,0 -15.3328,6.2712 -20.2089,6.2712 -4.8761,0 -22.3016,0.6976 -22.3016,0.6976 0,0 -73.8667,158.9012 -83.6257,183.2955 -9.7591,24.3806 -22.9992,59.2315 -22.9992,68.9905 0,9.7523 20.2089,43.2149 25.085,56.4481 4.8761,13.2332 -5.5668,52.9603 -5.5668,62.7193 0,9.7591 1.3883,35.5417 4.8693,50.8744 3.481,15.3191 0,32.0607 -5.5737,47.3866 -0.4993,1.3814 -0.9712,2.6124 -1.4294,3.7818 -4.6094,11.7697 -7.4953,12.9529 -20.1746,12.9529 -13.9377,0 -6.2713,-18.8274 -6.2713,-26.4938 0,-0.9369 0.1094,-2.0722 0.2941,-3.3305 1.3131,-9.0684 6.6747,-25.2286 6.6747,-30.1184 0,-5.5737 -12.5493,-27.8753 -12.5493,-27.8753 0,0 0,17.4255 -9.7591,20.2089 -9.759,2.7903 -20.2088,-11.1405 -20.2088,-11.1405 0,0 -0.014,0.014 -0.021,0.021 -0.1231,0.1163 -5.9429,5.9361 -9.7248,9.7317 -3.8367,3.8367 -18.8206,0 -23.7036,-4.8761 -4.8829,-4.8898 -16.721,-9.0684 -16.721,-9.0684 0,0 0,38.3319 0,44.61 0,6.2713 19.86,19.8532 25.085,25.085 5.2248,5.2318 19.1624,19.1694 10.4566,27.8753 -8.7128,8.7127 -25.7894,-4.8762 -25.7894,-4.8762 0,0 -38.3251,-31.363 -43.2148,-42.5104 -4.8693,-11.1542 -9.0479,-55.0598 -9.0479,-68.9974 0,-4.3085 0.6634,-13.3494 1.785,-25.933 2.5166,-28.1283 7.3381,-74.024 12.1526,-124.5975 -42.5104,3.4879 -60.6334,-119.858 -60.6334,-119.858 0,0 -29.9611,24.3874 -44.6031,47.3797 -14.6352,23.006 -24.3875,66.2003 -24.3875,78.0589 0,11.8449 -7.6732,61.3105 -3.4946,90.5945 0.9301,6.4628 1.4224,12.0706 1.5661,16.9468 0.5129,17.2066 -3.5631,24.8661 -10.6208,24.8661 -9.0547,0 -6.9688,-20.2089 -6.9688,-28.5728 0,-0.424 0,-1.06 -0.014,-1.8191 -0.1983,-13.8146 -2.2157,-79.0095 -4.8556,-91.5726 -2.7902,-13.2332 -10.4635,38.3319 -10.4635,48.091 0,6.326 0,23.4573 0,37.4018 0,7.5706 0,14.2249 0,17.658 0,9.7659 0,21.5971 -13.24,21.5971 -12.8229,0 -11.2568,-35.9724 -11.1474,-38.2224 -0.041,0.6976 -0.5402,5.2249 -6.2781,17.3296 -6.2643,13.2333 -19.5126,11.845 -23.6905,-26.4869 -18.1209,6.9756 -29.2738,-39.0363 -33.4571,-62.0286 -1.8705,-10.2856 -2.0654,-20.5576 -1.7098,-28.7847 0.4377,-10.1695 1.7098,-17.2204 1.7098,-17.2204 0,0 -2.8696,-2.2431 -7.0981,-5.5942 -10.6673,-8.4391 -30.022,-23.854 -34.0104,-27.8547 -5.575,-5.5668 0,-22.2947 0,-33.4489 0,-11.1473 -24.3956,10.4635 -31.3624,17.4255 -6.9722,6.9688 -9.7536,48.0978 -9.7536,55.046 0,6.9825 0,41.129 -17.4227,41.129 -9.4008,0 -12.5077,-10.1421 -13.3816,-22.8692 -0.7503,-10.8738 0.134,-23.6283 0.134,-33.5788 0,-8.2067 2.3109,-20.1132 5.1743,-31.7392 4.686,-19.0053 10.8595,-37.2514 10.8595,-37.2514 0,0 -6.8177,6.8184 -14.8561,15.914 -8.8154,9.978 -19.0983,22.6846 -23.471,32.1701 -8.3694,18.1093 -20.9065,29.9611 -33.4572,23.6967 -12.5397,-6.2781 0,-30.6724 9.7509,-50.8812 6.1947,-12.8229 28.6487,-42.4694 46.3758,-64.5658 10.2159,-12.7408 18.8711,-22.9855 21.9247,-26.0356 8.3694,-8.3571 31.3651,-18.8069 50.8724,-25.0849 1.0387,-0.3352 2.1207,-0.6976 3.2162,-1.0738 19.4402,-6.579 46.7122,-18.4376 54.6338,-18.4376 8.3585,0 17.4172,-11.1542 17.4172,-11.1542 l -45.2937,-134.4935 c 0,0 -22.3063,22.2982 -25.7901,25.7874 -1.4156,1.4074 -6.6281,6.6221 -12.3181,12.3072 -8.3161,8.3161 -17.6478,17.6559 -17.6478,17.6559 0,0 10.1038,25.4339 3.4892,32.047 -6.6227,6.6406 -16.7313,-5.5737 -16.7313,-5.5737 0,0 0,0 4.1834,10.4635 4.1758,10.4498 5.5675,29.2704 5.5675,38.325 0,9.0479 -18.1072,4.1786 -18.1072,4.1786 0,0 0,0 3.1287,9.0547 3.139,9.082 0,18.4855 -6.62,25.085 -6.6173,6.6337 -20.2151,-7.6459 -20.2151,-7.6459 l -26.5108,-53.0355 -22.9635,-45.9435 c 0,0 14.6365,57.8568 14.6365,63.4305 0,5.5874 4.8782,32.0538 -7.6643,35.5485 -12.5452,3.4742 -19.5147,-29.2704 -19.5147,-29.2704 0,0 -16.029,0 -23.6961,0 -7.6697,0 -29.9679,-4.1854 -29.9679,-4.1854 0,0 -28.5762,137.9811 -33.4489,160.9803 -4.8782,22.9991 -6.2699,62.7261 -6.2699,85.0209 0,22.3015 -18.1258,40.4314 -25.7874,48.0909 -1.205,1.2036 -2.185,4.1922 -2.9865,8.3708 -4.2798,22.3289 -3.2888,78.7359 -3.2888,78.7359 0,0 -3.481,19.5113 -13.937,19.5113 -10.4559,0 -10.4559,-20.8996 -10.4559,-20.8996 l 0.6948,-71.7945 c 0,0 -10.4532,4.1923 -16.0207,4.1923 -5.5806,0 -8.3592,-8.364 -8.3592,-8.364 l -5.5832,-5.5805 c 0,0 -12.1952,5.9293 -16.031,2.0996 -3.8312,-3.8367 -6.9648,-15.3259 -6.9648,-15.3259 0,0 0,34.1396 0,43.2011 0,9.0546 0,28.5797 -9.7638,31.3631 -9.7509,2.7833 -12.5452,-12.5425 -12.5452,-27.1846 0,-14.6352 -1.3863,-80.1378 -1.3863,-85.014 0,-1.3062 3.2136,-5.519 8.1184,-11.1952 13.5547,-15.6815 40.1408,-42.6404 48.3263,-50.8402 11.1583,-11.1405 10.4559,-27.1708 10.4559,-47.3866 0,-20.2088 2.0948,-174.9247 2.0948,-174.9247 0,0 -6.2754,-6.962 -21.6095,-22.3015 -15.3314,-15.3328 -58.8841,-68.2896 -70.3816,-119.8616 -11.4927,11.4873 -60.6307,20.2096 -60.6307,20.2096 l 0,34.8352 25.0897,-12.5371 c 0,0 -6.2753,16.0235 -10.4586,31.3576 -4.1779,15.3342 0.7023,34.1513 0.7023,34.1513 l 23.6878,-11.8449 c 0,0 0,24.3874 -4.1833,37.6343 -0.2859,0.9028 -0.556,1.8876 -0.8145,2.9339 -3.548,14.3411 -4.7578,40.9717 -4.7578,40.9717 0,0 3.4803,-14.642 10.458,-21.604 6.9619,-6.9688 22.2961,-11.8586 22.2961,-11.8586 0,0 -12.2006,48.4466 -22.9985,59.2452 -9.2913,9.294 -13.9472,32.5256 -19.9504,53.0286 -0.9724,3.3169 -1.9736,6.579 -3.0398,9.6838 -7.6726,22.3084 -59.2445,34.1534 -59.2445,34.1534 0,0 53.6667,12.5561 63.4223,22.3015 0.022,0.021 0.043,0.048 0.065,0.068 9.6736,9.725 6.5401,16.3313 2.0251,20.8449 -1.0074,0.9985 -2.8368,1.19 -5.0355,0.9164 -7.6588,-0.9711 -20.0522,-7.892 -20.0522,-7.892 0,0 -14.6393,0 -25.7846,0 -11.1453,0 4.5334,10.1079 9.7618,15.3327 2.0728,2.0722 15.4647,8.323 31.456,15.7089 24.3075,11.2363 54.6468,25.0987 60.5323,30.9938 9.7556,9.7454 0,20.8996 -9.7591,17.4118 -8.7305,14.3479 -47.5678,-9.807 -55.6404,-15.0524 -0.954,-0.6155 -1.499,-0.978 -1.499,-0.978 0,0 -3.494,11.8518 -7.6773,21.6109 -4.1759,9.7591 -33.449,18.8069 -39.0275,18.8069 -5.5723,0 -20.204,-6.9688 -40.4157,-16.7142 -13.3975,-6.4627 -40.037,-23.0265 -56.4931,-33.4695 -8.3802,-5.3203 -14.1292,-9.0543 -14.1292,-9.0543 l 0,-965.77208 8140.7896,0 0,1300.99988 c 0,0 -10.805,8.6991 -17.4386,15.3259"
           inkscape:connector-curvature="0"
           inkscape:export-filename="/home/cmaureir/1.png"
           inkscape:export-xdpi="282.39001"
           inkscape:export-ydpi="282.39001" />
        <flowRoot
           xml:space="preserve"
           id="flowRoot3465"
           style="font-size:40px;font-style:normal;font-weight:normal;line-height:125%;letter-spacing:0px;word-spacing:0px;fill:#000000;fill-opacity:1;stroke:none;font-family:Bitstream Vera Sans"
           transform="matrix(35.438688,0,0,-35.438688,6089.1716,20013.493)"
           inkscape:export-filename="/home/cmaureir/1.png"
           inkscape:export-xdpi="282.39001"
           inkscape:export-ydpi="282.39001"><flowRegion
             id="flowRegion3467"><rect
               id="rect3469"
               width="1333.4014"
               height="216.17264"
               x="-98.994949"
               y="424.0473" /></flowRegion><flowPara
             id="flowPara3471"
             style="font-size:40px;font-style:normal;font-variant:normal;font-weight:normal;font-stretch:normal;text-align:start;line-height:125%;writing-mode:lr-tb;text-anchor:start;font-family:Frakturika;-inkscape-font-specification:Frakturika">Music Labs</flowPara></flowRoot>        <flowRoot
           xml:space="preserve"
           id="flowRoot3473"
           style="font-size:40px;font-style:normal;font-weight:normal;line-height:125%;letter-spacing:0px;word-spacing:0px;fill:#000000;fill-opacity:1;stroke:none;font-family:Bitstream Vera Sans"
           transform="matrix(14.492871,3.0805548,3.0805548,-14.492871,-342.27693,12271.579)"
           inkscape:export-filename="/home/cmaureir/1.png"
           inkscape:export-xdpi="282.39001"
           inkscape:export-ydpi="282.39001"><flowRegion
             id="flowRegion3475"><rect
               id="rect3477"
               width="1060.6602"
               height="155.56349"
               x="123.23861"
               y="682.64636" /></flowRegion><flowPara
             id="flowPara3479"
             style="font-size:40px;font-style:normal;font-variant:normal;font-weight:normal;font-stretch:normal;text-align:start;line-height:125%;writing-mode:lr-tb;text-anchor:start;fill:#ff0000;font-family:Annie Use Your Telescope;-inkscape-font-specification:Annie Use Your Telescope">tu opcin a la fama!</flowPara></flowRoot>      </g>
    </g>
  </g>
</svg>
